Festive.glyphspackage
{
color = 5;
glyphname = Acircumflex;
layers = (
{
background = {
paths = (
{
closed = 1;
nodes = (
"488 -81 OFFCURVE",
"672 235 OFFCURVE",
"724 402 CURVE",
"772 251 OFFCURVE",
"835 54 OFFCURVE",
"859 -7 CURVE",
"868 -7 OFFCURVE",
"915 31 OFFCURVE",
"931 44 CURVE",
"862 141 OFFCURVE",
"781 399 OFFCURVE",
"749 544 CURVE",
"820 589 OFFCURVE",
"864 638 OFFCURVE",
"864 685 CURVE SMOOTH",
"864 722 OFFCURVE",
"833 752 OFFCURVE",
"757 752 CURVE SMOOTH",
"563 752 OFFCURVE",
"411 604 OFFCURVE",
"320 411 CURVE",
"296 408 OFFCURVE",
"273 407 OFFCURVE",
"251 407 CURVE SMOOTH",
"134 407 OFFCURVE",
"46 446 OFFCURVE",
"46 550 CURVE SMOOTH",
"46 634 OFFCURVE",
"154 732 OFFCURVE",
"309 743 CURVE SMOOTH",
"356 747 OFFCURVE",
"416 724 OFFCURVE",
"416 668 CURVE SMOOTH",
"416 648 OFFCURVE",
"409 624 OFFCURVE",
"391 596 CURVE SMOOTH",
"372 565 OFFCURVE",
"340 540 OFFCURVE",
"307 521 CURVE SMOOTH",
"274 501 OFFCURVE",
"251 496 OFFCURVE",
"228 496 CURVE SMOOTH",
"185 496 OFFCURVE",
"168 515 OFFCURVE",
"168 540 CURVE SMOOTH",
"168 590 OFFCURVE",
"236 665 OFFCURVE",
"313 670 CURVE",
"334 670 OFFCURVE",
"369 672 OFFCURVE",
"369 642 CURVE SMOOTH",
"369 632 OFFCURVE",
"375 636 OFFCURVE",
"375 650 CURVE SMOOTH",
"375 679 OFFCURVE",
"344 691 OFFCURVE",
"317 688 CURVE SMOOTH",
"191 678 OFFCURVE",
"125 597 OFFCURVE",
"125 538 CURVE SMOOTH",
"125 503 OFFCURVE",
"149 475 OFFCURVE",
"196 475 CURVE SMOOTH",
"225 475 OFFCURVE",
"260 483 OFFCURVE",
"309 512 CURVE SMOOTH",
"336 529 OFFCURVE",
"369 556 OFFCURVE",
"396 588 CURVE SMOOTH",
"425 625 OFFCURVE",
"437 658 OFFCURVE",
"437 688 CURVE SMOOTH",
"437 763 OFFCURVE",
"357 809 OFFCURVE",
"275 803 CURVE SMOOTH",
"100 790 OFFCURVE",
"0 682 OFFCURVE",
"0 578 CURVE SMOOTH",
"0 447 OFFCURVE",
"107 399 OFFCURVE",
"246 399 CURVE SMOOTH",
"269 399 OFFCURVE",
"292 400 OFFCURVE",
"316 402 CURVE",
"267 294 OFFCURVE",
"241 159 OFFCURVE",
"241 70 CURVE SMOOTH",
"241 35 OFFCURVE",
"245 6 OFFCURVE",
"253 -10 CURVE SMOOTH",
"273 -52 OFFCURVE",
"315 -81 OFFCURVE",
"359 -81 CURVE SMOOTH"
);
},
{
closed = 1;
nodes = (
"344 -53 OFFCURVE",
"327 -19 OFFCURVE",
"327 30 CURVE SMOOTH",
"327 138 OFFCURVE",
"356 283 OFFCURVE",
"412 416 CURVE",
"512 436 OFFCURVE",
"610 470 OFFCURVE",
"690 511 CURVE",
"716 430 LINE",
"684 288 OFFCURVE",
"506 -57 OFFCURVE",
"360 -53 CURVE SMOOTH"
);
},
{
closed = 1;
nodes = (
"491 595 OFFCURVE",
"607 736 OFFCURVE",
"770 736 CURVE SMOOTH",
"817 736 OFFCURVE",
"841 712 OFFCURVE",
"841 681 CURVE SMOOTH",
"841 644 OFFCURVE",
"804 603 OFFCURVE",
"745 563 CURVE",
"742 581 OFFCURVE",
"740 597 OFFCURVE",
"739 610 CURVE",
"715 591 OFFCURVE",
"677 571 OFFCURVE",
"674 562 CURVE",
"685 527 LINE",
"608 486 OFFCURVE",
"512 450 OFFCURVE",
"416 427 CURVE"
);
},
{
closed = 1;
nodes = (
"842 813 OFFCURVE",
"845 816 OFFCURVE",
"845 823 CURVE SMOOTH",
"845 832 OFFCURVE",
"830 851 OFFCURVE",
"801 878 CURVE SMOOTH",
"782 897 OFFCURVE",
"768 906 OFFCURVE",
"760 906 CURVE SMOOTH",
"751 906 OFFCURVE",
"730 895 OFFCURVE",
"699 874 CURVE SMOOTH",
"667 852 OFFCURVE",
"651 837 OFFCURVE",
"651 829 CURVE SMOOTH",
"651 825 OFFCURVE",
"654 823 OFFCURVE",
"660 823 CURVE SMOOTH",
"662 823 OFFCURVE",
"678 829 OFFCURVE",
"709 842 CURVE SMOOTH",
"738 855 OFFCURVE",
"754 864 OFFCURVE",
"761 867 CURVE",
"785 855 OFFCURVE",
"804 839 OFFCURVE",
"821 822 CURVE SMOOTH",
"827 816 OFFCURVE",
"832 813 OFFCURVE",
"835 813 CURVE SMOOTH"
);
}
);
};
components = (
{
name = A;
},
{
name = circumflexcomb.case;
transform = "{1, 0, 0, 1, 561, 384}";
}
);
layerId = "04B30934-05D4-410C-A3F8-810C0079C645";
width = 951;
}
);
note = Acircumflex;
unicode = 00C2;
}
{
color = 4;
glyphname = Eth;
layers = (
{
anchors = (
{
name = bottom;
position = "{255, -15}";
},
{
name = top;
position = "{495, 787}";
}
);
background = {
paths = (
{
closed = 1;
nodes = (
"77 -103 OFFCURVE",
"79 -105 OFFCURVE",
"81 -105 CURVE SMOOTH",
"83 -105 OFFCURVE",
"85 -103 OFFCURVE",
"85 -97 CURVE SMOOTH",
"89 8 OFFCURVE",
"120 127 OFFCURVE",
"161 243 CURVE",
"204 246 OFFCURVE",
"240 248 OFFCURVE",
"253 252 CURVE SMOOTH",
"271 257 OFFCURVE",
"278 262 OFFCURVE",
"278 265 CURVE SMOOTH",
"278 268 OFFCURVE",
"274 269 OFFCURVE",
"267 269 CURVE SMOOTH",
"264 269 OFFCURVE",
"261 268 OFFCURVE",
"257 268 CURVE SMOOTH",
"249 267 OFFCURVE",
"239 266 OFFCURVE",
"228 266 CURVE SMOOTH",
"211 266 OFFCURVE",
"191 267 OFFCURVE",
"170 268 CURVE",
"199 348 OFFCURVE",
"232 423 OFFCURVE",
"264 491 CURVE SMOOTH",
"306 584 OFFCURVE",
"393 753 OFFCURVE",
"496 753 CURVE SMOOTH",
"565 753 OFFCURVE",
"594 658 OFFCURVE",
"594 541 CURVE SMOOTH",
"594 521 OFFCURVE",
"594 501 OFFCURVE",
"592 480 CURVE SMOOTH",
"585 387 OFFCURVE",
"575 301 OFFCURVE",
"536 205 CURVE SMOOTH",
"491 89 OFFCURVE",
"429 31 OFFCURVE",
"369 12 CURVE SMOOTH",
"359 9 OFFCURVE",
"350 8 OFFCURVE",
"342 8 CURVE SMOOTH",
"300 8 OFFCURVE",
"285 48 OFFCURVE",
"285 94 CURVE SMOOTH",
"285 131 OFFCURVE",
"294 172 OFFCURVE",
"307 200 CURVE SMOOTH",
"322 231 OFFCURVE",
"358 257 OFFCURVE",
"392 257 CURVE SMOOTH",
"413 257 OFFCURVE",
"433 246 OFFCURVE",
"446 220 CURVE SMOOTH",
"450 209 OFFCURVE",
"452 198 OFFCURVE",
"452 186 CURVE SMOOTH",
"452 177 OFFCURVE",
"451 167 OFFCURVE",
"449 157 CURVE SMOOTH",
"439 117 OFFCURVE",
"416 99 OFFCURVE",
"394 99 CURVE SMOOTH",
"371 99 OFFCURVE",
"350 119 OFFCURVE",
"348 154 CURVE",
"345 174 OFFCURVE",
"354 222 OFFCURVE",
"394 222 CURVE SMOOTH",
"401 222 OFFCURVE",
"404 221 OFFCURVE",
"405 220 CURVE",
"410 218 OFFCURVE",
"414 218 OFFCURVE",
"414 220 CURVE SMOOTH",
"414 221 OFFCURVE",
"413 222 OFFCURVE",
"411 223 CURVE SMOOTH",
"405 227 OFFCURVE",
"398 228 OFFCURVE",
"389 228 CURVE SMOOTH",
"337 228 OFFCURVE",
"330 157 OFFCURVE",
"330 144 CURVE SMOOTH",
"330 100 OFFCURVE",
"355 72 OFFCURVE",
"383 72 CURVE SMOOTH",
"410 72 OFFCURVE",
"440 96 OFFCURVE",
"455 156 CURVE SMOOTH",
"457 165 OFFCURVE",
"458 175 OFFCURVE",
"458 185 CURVE SMOOTH",
"458 197 OFFCURVE",
"457 209 OFFCURVE",
"453 221 CURVE SMOOTH",
"440 263 OFFCURVE",
"408 279 OFFCURVE",
"372 279 CURVE SMOOTH",
"331 279 OFFCURVE",
"284 256 OFFCURVE",
"257 223 CURVE SMOOTH",
"232 193 OFFCURVE",
"218 152 OFFCURVE",
"218 112 CURVE SMOOTH",
"218 47 OFFCURVE",
"255 -15 OFFCURVE",
"339 -15 CURVE SMOOTH",
"345 -15 OFFCURVE",
"351 -15 OFFCURVE",
"358 -14 CURVE SMOOTH",
"493 2 OFFCURVE",
"541 63 OFFCURVE",
"595 158 CURVE SMOOTH",
"633 231 OFFCURVE",
"659 356 OFFCURVE",
"659 472 CURVE SMOOTH",
"659 623 OFFCURVE",
"615 765 OFFCURVE",
"496 762 CURVE SMOOTH",
"387 762 OFFCURVE",
"298 584 OFFCURVE",
"256 495 CURVE SMOOTH",
"224 426 OFFCURVE",
"192 349 OFFCURVE",
"161 269 CURVE",
"154 269 OFFCURVE",
"148 269 OFFCURVE",
"141 270 CURVE",
"181 409 OFFCURVE",
"235 542 OFFCURVE",
"278 622 CURVE",
"230 703 LINE",
"185 577 OFFCURVE",
"116 432 OFFCURVE",
"73 272 CURVE",
"53 272 OFFCURVE",
"37 271 OFFCURVE",
"25 269 CURVE SMOOTH",
"6 266 OFFCURVE",
"-13 252 OFFCURVE",
"-6 249 CURVE SMOOTH",
"7 244 OFFCURVE",
"30 242 OFFCURVE",
"65 242 CURVE",
"50 182 OFFCURVE",
"39 122 OFFCURVE",
"34 61 CURVE",
"93 33 LINE",
"84 -12 OFFCURVE",
"79 -54 OFFCURVE",
"76 -97 CURVE"
);
},
{
closed = 1;
nodes = (
"104 112 OFFCURVE",
"116 178 OFFCURVE",
"133 242 CURVE",
"140 242 OFFCURVE",
"145 243 OFFCURVE",
"152 243 CURVE",
"129 179 OFFCURVE",
"110 116 OFFCURVE",
"97 52 CURVE"
);
},
{
closed = 1;
nodes = (
"82 578 OFFCURVE",
"138 587 OFFCURVE",
"138 624 CURVE SMOOTH",
"138 629 OFFCURVE",
"137 634 OFFCURVE",
"135 640 CURVE",
"132 651 OFFCURVE",
"119 660 OFFCURVE",
"98 666 CURVE SMOOTH",
"93 668 OFFCURVE",
"90 666 OFFCURVE",
"90 664 CURVE SMOOTH",
"90 662 OFFCURVE",
"92 660 OFFCURVE",
"95 660 CURVE",
"114 655 OFFCURVE",
"124 647 OFFCURVE",
"124 638 CURVE SMOOTH",
"124 626 OFFCURVE",
"104 614 OFFCURVE",
"57 614 CURVE SMOOTH",
"13 614 OFFCURVE",
"-15 631 OFFCURVE",
"-15 657 CURVE SMOOTH",
"-15 686 OFFCURVE",
"48 706 OFFCURVE",
"140 703 CURVE SMOOTH",
"149 703 OFFCURVE",
"288 699 OFFCURVE",
"275 739 CURVE SMOOTH",
"272 747 OFFCURVE",
"268 745 OFFCURVE",
"269 737 CURVE SMOOTH",
"269 736 OFFCURVE",
"269 734 OFFCURVE",
"265 730 CURVE",
"243 713 OFFCURVE",
"162 712 OFFCURVE",
"140 712 CURVE SMOOTH",
"53 715 OFFCURVE",
"-24 697 OFFCURVE",
"-24 657 CURVE SMOOTH",
"-24 603 OFFCURVE",
"17 581 OFFCURVE",
"57 578 CURVE SMOOTH"
);
}
);
};
layerId = "04B30934-05D4-410C-A3F8-810C0079C645";
paths = (
{
closed = 1;
nodes = (
"189 456 OFFCURVE",
"278 622 CURVE",
"230 703 LINE",
"185 577 OFFCURVE",
"116 432 OFFCURVE",
"73 272 CURVE SMOOTH",
"65 242 LINE SMOOTH",
"50 182 OFFCURVE",
"39 122 OFFCURVE",
"34 61 CURVE",
"93 33 LINE",
"84 -12 OFFCURVE",
"79 -54 OFFCURVE",
"76 -97 CURVE",
"77 -103 OFFCURVE",
"79 -105 OFFCURVE",
"81 -105 CURVE SMOOTH",
"83 -105 OFFCURVE",
"85 -103 OFFCURVE",
"85 -97 CURVE SMOOTH",
"92 93 OFFCURVE",
"191 335 OFFCURVE",
"264 491 CURVE SMOOTH",
"306 584 OFFCURVE",
"393 753 OFFCURVE",
"496 753 CURVE SMOOTH",
"565 753 OFFCURVE",
"594 658 OFFCURVE",
"594 541 CURVE SMOOTH",
"594 521 OFFCURVE",
"594 501 OFFCURVE",
"592 480 CURVE SMOOTH",
"585 387 OFFCURVE",
"575 301 OFFCURVE",
"536 205 CURVE SMOOTH",
"475 47 OFFCURVE",
"334 8 OFFCURVE",
"291 8 CURVE SMOOTH",
"249 8 OFFCURVE",
"234 48 OFFCURVE",
"234 94 CURVE SMOOTH",
"234 131 OFFCURVE",
"243 172 OFFCURVE",
"256 200 CURVE SMOOTH",
"271 231 OFFCURVE",
"307 257 OFFCURVE",
"341 257 CURVE SMOOTH",
"377 257 OFFCURVE",
"402 226 OFFCURVE",
"402 186 CURVE SMOOTH",
"402 147 OFFCURVE",
"382 99 OFFCURVE",
"343 99 CURVE SMOOTH",
"320 99 OFFCURVE",
"299 119 OFFCURVE",
"297 154 CURVE",
"294 174 OFFCURVE",
"303 222 OFFCURVE",
"343 222 CURVE SMOOTH",
"350 222 OFFCURVE",
"353 221 OFFCURVE",
"354 220 CURVE",
"359 218 OFFCURVE",
"363 218 OFFCURVE",
"363 220 CURVE SMOOTH",
"363 221 OFFCURVE",
"362 222 OFFCURVE",
"360 223 CURVE SMOOTH",
"354 227 OFFCURVE",
"347 228 OFFCURVE",
"338 228 CURVE SMOOTH",
"286 228 OFFCURVE",
"279 157 OFFCURVE",
"279 144 CURVE SMOOTH",
"279 100 OFFCURVE",
"304 72 OFFCURVE",
"332 72 CURVE SMOOTH",
"377 72 OFFCURVE",
"408 137 OFFCURVE",
"408 185 CURVE SMOOTH",
"408 236 OFFCURVE",
"380 279 OFFCURVE",
"321 279 CURVE SMOOTH",
"280 279 OFFCURVE",
"233 256 OFFCURVE",
"206 223 CURVE SMOOTH",
"181 193 OFFCURVE",
"167 152 OFFCURVE",
"167 112 CURVE SMOOTH",
"167 47 OFFCURVE",
"204 -15 OFFCURVE",
"288 -15 CURVE SMOOTH",
"364 -15 OFFCURVE",
"506 2 OFFCURVE",
"595 158 CURVE SMOOTH",
"633 231 OFFCURVE",
"659 356 OFFCURVE",
"659 472 CURVE SMOOTH",
"659 623 OFFCURVE",
"615 765 OFFCURVE",
"496 762 CURVE SMOOTH",
"387 762 OFFCURVE",
"298 584 OFFCURVE",
"256 495 CURVE SMOOTH",
"193 357 OFFCURVE",
"126 195 OFFCURVE",
"97 52 CURVE",
"117 227 OFFCURVE"
);
},
{
closed = 1;
nodes = (
"82 578 OFFCURVE",
"138 587 OFFCURVE",
"138 624 CURVE SMOOTH",
"138 645 OFFCURVE",
"127 658 OFFCURVE",
"98 666 CURVE SMOOTH",
"93 668 OFFCURVE",
"90 666 OFFCURVE",
"90 664 CURVE SMOOTH",
"90 662 OFFCURVE",
"92 660 OFFCURVE",
"95 660 CURVE",
"114 655 OFFCURVE",
"124 647 OFFCURVE",
"124 638 CURVE SMOOTH",
"124 626 OFFCURVE",
"104 614 OFFCURVE",
"57 614 CURVE SMOOTH",
"13 614 OFFCURVE",
"-15 631 OFFCURVE",
"-15 657 CURVE SMOOTH",
"-15 686 OFFCURVE",
"48 706 OFFCURVE",
"140 703 CURVE SMOOTH",
"149 703 OFFCURVE",
"288 699 OFFCURVE",
"275 739 CURVE SMOOTH",
"272 747 OFFCURVE",
"268 745 OFFCURVE",
"269 737 CURVE SMOOTH",
"269 736 OFFCURVE",
"269 734 OFFCURVE",
"265 730 CURVE",
"243 713 OFFCURVE",
"162 712 OFFCURVE",
"140 712 CURVE SMOOTH",
"53 715 OFFCURVE",
"-24 697 OFFCURVE",
"-24 657 CURVE SMOOTH",
"-24 603 OFFCURVE",
"17 581 OFFCURVE",
"57 578 CURVE SMOOTH"
);
},
{
closed = 1;
nodes = (
"206 414 LINE",
"249 417 OFFCURVE",
"366 419 OFFCURVE",
"379 423 CURVE SMOOTH",
"397 428 OFFCURVE",
"404 433 OFFCURVE",
"404 436 CURVE SMOOTH",
"404 439 OFFCURVE",
"400 440 OFFCURVE",
"393 440 CURVE SMOOTH",
"390 440 OFFCURVE",
"387 439 OFFCURVE",
"383 439 CURVE SMOOTH",
"375 438 OFFCURVE",
"365 437 OFFCURVE",
"354 437 CURVE SMOOTH",
"215 440 LINE SMOOTH",
"208 440 OFFCURVE",
"134 442 OFFCURVE",
"127 443 CURVE",
"107 443 OFFCURVE",
"91 442 OFFCURVE",
"79 440 CURVE SMOOTH",
"60 437 OFFCURVE",
"41 423 OFFCURVE",
"48 420 CURVE SMOOTH",
"61 415 OFFCURVE",
"84 413 OFFCURVE",
"119 413 CURVE SMOOTH"
);
}
);
width = 698;
}
);
note = Eth;
unicode = 00D0;
}
{
color = 5;
glyphname = Idieresis;
layers = (
{
background = {
paths = (
{
closed = 1;
nodes = (
"75 -156 OFFCURVE",
"107 -164 OFFCURVE",
"139 -164 CURVE SMOOTH",
"183 -164 OFFCURVE",
"227 -150 OFFCURVE",
"241 -103 CURVE",
"242 -95 OFFCURVE",
"243 -88 OFFCURVE",
"243 -81 CURVE SMOOTH",
"243 -24 OFFCURVE",
"197 3 OFFCURVE",
"157 15 CURVE SMOOTH",
"143 18 OFFCURVE",
"127 21 OFFCURVE",
"112 21 CURVE SMOOTH",
"84 21 OFFCURVE",
"61 12 OFFCURVE",
"64 -16 CURVE",
"64 -24 OFFCURVE",
"70 -27 OFFCURVE",
"74 -27 CURVE SMOOTH",
"76 -27 OFFCURVE",
"77 -26 OFFCURVE",
"77 -25 CURVE SMOOTH",
"77 -24 OFFCURVE",
"76 -22 OFFCURVE",
"73 -20 CURVE",
"74 -16 LINE",
"83 0 OFFCURVE",
"102 7 OFFCURVE",
"124 7 CURVE SMOOTH",
"172 7 OFFCURVE",
"231 -25 OFFCURVE",
"224 -73 CURVE SMOOTH",
"222 -92 OFFCURVE",
"205 -106 OFFCURVE",
"172 -106 CURVE SMOOTH",
"163 -106 OFFCURVE",
"152 -105 OFFCURVE",
"139 -102 CURVE SMOOTH",
"38 -81 OFFCURVE",
"-17 -22 OFFCURVE",
"-17 32 CURVE SMOOTH",
"-17 40 OFFCURVE",
"-16 49 OFFCURVE",
"-13 57 CURVE SMOOTH",
"-2 86 OFFCURVE",
"36 103 OFFCURVE",
"91 103 CURVE SMOOTH",
"142 103 OFFCURVE",
"208 88 OFFCURVE",
"279 55 CURVE",
"279 31 OFFCURVE",
"279 7 OFFCURVE",
"280 -17 CURVE",
"345 -38 LINE",
"344 -18 OFFCURVE",
"343 2 OFFCURVE",
"343 23 CURVE",
"391 0 OFFCURVE",
"467 -29 OFFCURVE",
"522 -29 CURVE SMOOTH",
"558 -29 OFFCURVE",
"585 -15 OFFCURVE",
"585 23 CURVE SMOOTH",
"585 34 OFFCURVE",
"581 39 OFFCURVE",
"576 39 CURVE SMOOTH",
"571 39 OFFCURVE",
"565 33 OFFCURVE",
"561 24 CURVE SMOOTH",
"560 21 OFFCURVE",
"559 17 OFFCURVE",
"548 12 CURVE",
"541 10 OFFCURVE",
"531 9 OFFCURVE",
"521 9 CURVE SMOOTH",
"471 9 OFFCURVE",
"394 32 OFFCURVE",
"344 50 CURVE",
"352 235 OFFCURVE",
"402 443 OFFCURVE",
"445 561 CURVE",
"476 558 OFFCURVE",
"507 555 OFFCURVE",
"541 555 CURVE SMOOTH",
"583 555 OFFCURVE",
"636 565 OFFCURVE",
"671 579 CURVE SMOOTH",
"676 581 OFFCURVE",
"678 584 OFFCURVE",
"678 585 CURVE SMOOTH",
"678 587 OFFCURVE",
"676 588 OFFCURVE",
"673 588 CURVE SMOOTH",
"671 588 OFFCURVE",
"669 588 OFFCURVE",
"667 587 CURVE SMOOTH",
"640 581 OFFCURVE",
"606 574 OFFCURVE",
"572 574 CURVE SMOOTH",
"563 574 OFFCURVE",
"553 575 OFFCURVE",
"544 576 CURVE SMOOTH",
"432 592 LINE",
"391 646 LINE",
"379 598 LINE",
"358 599 OFFCURVE",
"337 601 OFFCURVE",
"317 601 CURVE SMOOTH",
"282 601 OFFCURVE",
"248 597 OFFCURVE",
"218 588 CURVE SMOOTH",
"179 575 OFFCURVE",
"148 524 OFFCURVE",
"143 490 CURVE",
"143 486 OFFCURVE",
"146 483 OFFCURVE",
"149 483 CURVE SMOOTH",
"151 483 OFFCURVE",
"153 485 OFFCURVE",
"153 491 CURVE",
"156 518 OFFCURVE",
"230 548 OFFCURVE",
"273 556 CURVE SMOOTH",
"309 563 OFFCURVE",
"340 565 OFFCURVE",
"371 565 CURVE",
"334 418 OFFCURVE",
"288 249 OFFCURVE",
"280 74 CURVE",
"206 100 OFFCURVE",
"135 117 OFFCURVE",
"79 117 CURVE SMOOTH",
"26 117 OFFCURVE",
"-13 101 OFFCURVE",
"-28 64 CURVE SMOOTH",
"-38 38 OFFCURVE",
"-43 14 OFFCURVE",
"-43 -8 CURVE SMOOTH",
"-43 -77 OFFCURVE",
"2 -125 OFFCURVE",
"55 -147 CURVE SMOOTH"
);
},
{
closed = 1;
nodes = (
"413 721 OFFCURVE",
"436 738 OFFCURVE",
"436 759 CURVE SMOOTH",
"436 780 OFFCURVE",
"426 797 OFFCURVE",
"405 797 CURVE SMOOTH",
"384 797 OFFCURVE",
"360 780 OFFCURVE",
"360 759 CURVE SMOOTH",
"360 738 OFFCURVE",
"369 721 OFFCURVE",
"390 721 CURVE SMOOTH"
);
},
{
closed = 1;
nodes = (
"535 721 OFFCURVE",
"558 738 OFFCURVE",
"558 759 CURVE SMOOTH",
"558 780 OFFCURVE",
"548 797 OFFCURVE",
"527 797 CURVE SMOOTH",
"506 797 OFFCURVE",
"482 780 OFFCURVE",
"482 759 CURVE SMOOTH",
"482 738 OFFCURVE",
"491 721 OFFCURVE",
"512 721 CURVE SMOOTH"
);
}
);
};
components = (
{
name = I;
},
{
name = dieresiscomb;
transform = "{1, 0, 0, 1, 331, 243}";
}
);
layerId = "04B30934-05D4-410C-A3F8-810C0079C645";
width = 599;
}
);
note = Idieresis;
unicode = 00CF;
}
{
color = 5;
glyphname = Odieresis;
layers = (
{
background = {
paths = (
{
closed = 1;
nodes = (
"357 -1 OFFCURVE",
"483 188 OFFCURVE",
"525 278 CURVE SMOOTH",
"563 359 OFFCURVE",
"588 455 OFFCURVE",
"588 544 CURVE SMOOTH",
"588 646 OFFCURVE",
"556 739 OFFCURVE",
"472 793 CURVE",
"465 795 OFFCURVE",
"462 795 OFFCURVE",
"462 792 CURVE SMOOTH",
"462 790 OFFCURVE",
"463 788 OFFCURVE",
"467 785 CURVE",
"539 740 OFFCURVE",
"565 667 OFFCURVE",
"565 584 CURVE SMOOTH",
"565 484 OFFCURVE",
"527 371 OFFCURVE",
"483 278 CURVE SMOOTH",
"438 186 OFFCURVE",
"320 27 OFFCURVE",
"215 27 CURVE SMOOTH",
"146 27 OFFCURVE",
"117 122 OFFCURVE",
"117 239 CURVE SMOOTH",
"117 259 OFFCURVE",
"117 279 OFFCURVE",
"119 300 CURVE SMOOTH",
"126 393 OFFCURVE",
"136 479 OFFCURVE",
"175 575 CURVE SMOOTH",
"220 691 OFFCURVE",
"282 749 OFFCURVE",
"342 768 CURVE SMOOTH",
"349 770 OFFCURVE",
"356 771 OFFCURVE",
"362 771 CURVE SMOOTH",
"417 771 OFFCURVE",
"443 691 OFFCURVE",
"443 602 CURVE SMOOTH",
"443 553 OFFCURVE",
"435 502 OFFCURVE",
"420 460 CURVE SMOOTH",
"400 406 OFFCURVE",
"351 359 OFFCURVE",
"305 359 CURVE SMOOTH",
"277 359 OFFCURVE",
"251 378 OFFCURVE",
"234 424 CURVE SMOOTH",
"228 442 OFFCURVE",
"225 463 OFFCURVE",
"225 484 CURVE SMOOTH",
"225 502 OFFCURVE",
"227 520 OFFCURVE",
"230 537 CURVE SMOOTH",
"243 608 OFFCURVE",
"273 639 OFFCURVE",
"301 639 CURVE SMOOTH",
"334 639 OFFCURVE",
"365 598 OFFCURVE",
"365 529 CURVE SMOOTH",
"365 489 OFFCURVE",
"352 421 OFFCURVE",
"303 421 CURVE SMOOTH",
"295 421 OFFCURVE",
"290 422 OFFCURVE",
"288 425 CURVE",
"283 427 OFFCURVE",
"278 427 OFFCURVE",
"278 424 CURVE SMOOTH",
"278 423 OFFCURVE",
"279 421 OFFCURVE",
"281 419 CURVE SMOOTH",
"288 413 OFFCURVE",
"298 410 OFFCURVE",
"309 410 CURVE SMOOTH",
"371 410 OFFCURVE",
"384 500 OFFCURVE",
"389 542 CURVE",
"395 629 OFFCURVE",
"359 687 OFFCURVE",
"317 687 CURVE SMOOTH",
"281 687 OFFCURVE",
"241 644 OFFCURVE",
"221 539 CURVE SMOOTH",
"219 524 OFFCURVE",
"217 507 OFFCURVE",
"217 488 CURVE SMOOTH",
"217 467 OFFCURVE",
"219 444 OFFCURVE",
"224 423 CURVE SMOOTH",
"241 349 OFFCURVE",
"284 319 OFFCURVE",
"331 319 CURVE SMOOTH",
"387 319 OFFCURVE",
"450 361 OFFCURVE",
"486 420 CURVE SMOOTH",
"514 464 OFFCURVE",
"527 518 OFFCURVE",
"527 570 CURVE SMOOTH",
"527 685 OFFCURVE",
"465 795 OFFCURVE",
"367 795 CURVE SMOOTH",
"362 795 OFFCURVE",
"358 795 OFFCURVE",
"353 794 CURVE SMOOTH",
"220 778 OFFCURVE",
"168 717 OFFCURVE",
"116 622 CURVE SMOOTH",
"76 548 OFFCURVE",
"52 422 OFFCURVE",
"52 304 CURVE SMOOTH",
"52 152 OFFCURVE",
"90 -1 OFFCURVE",
"209 -1 CURVE SMOOTH"
);
},
{
closed = 1;
nodes = (
"397 863 OFFCURVE",
"420 880 OFFCURVE",
"420 901 CURVE SMOOTH",
"420 922 OFFCURVE",
"410 939 OFFCURVE",
"389 939 CURVE SMOOTH",
"368 939 OFFCURVE",
"344 922 OFFCURVE",
"344 901 CURVE SMOOTH",
"344 880 OFFCURVE",
"353 863 OFFCURVE",
"374 863 CURVE SMOOTH"
);
},
{
closed = 1;
nodes = (
"519 863 OFFCURVE",
"542 880 OFFCURVE",
"542 901 CURVE SMOOTH",
"542 922 OFFCURVE",
"532 939 OFFCURVE",
"511 939 CURVE SMOOTH",
"490 939 OFFCURVE",
"466 922 OFFCURVE",
"466 901 CURVE SMOOTH",
"466 880 OFFCURVE",
"475 863 OFFCURVE",
"496 863 CURVE SMOOTH"
);
}
);
};
components = (
{
name = O;
},
{
name = dieresiscomb;
transform = "{1, 0, 0, 1, 296, 441}";
}
);
layerId = "04B30934-05D4-410C-A3F8-810C0079C645";
width = 597;
}
);
note = Odieresis;
unicode = 00D6;
}
{
color = 5;
glyphname = Ograve;
layers = (
{
background = {
paths = (
{
closed = 1;
nodes = (
"357 -1 OFFCURVE",
"483 188 OFFCURVE",
"525 278 CURVE SMOOTH",
"563 359 OFFCURVE",
"588 455 OFFCURVE",
"588 544 CURVE SMOOTH",
"588 646 OFFCURVE",
"556 739 OFFCURVE",
"472 793 CURVE",
"465 795 OFFCURVE",
"462 795 OFFCURVE",
"462 792 CURVE SMOOTH",
"462 790 OFFCURVE",
"463 788 OFFCURVE",
"467 785 CURVE",
"539 740 OFFCURVE",
"565 667 OFFCURVE",
"565 584 CURVE SMOOTH",
"565 484 OFFCURVE",
"527 371 OFFCURVE",
"483 278 CURVE SMOOTH",
"438 186 OFFCURVE",
"320 27 OFFCURVE",
"215 27 CURVE SMOOTH",
"146 27 OFFCURVE",
"117 122 OFFCURVE",
"117 239 CURVE SMOOTH",
"117 259 OFFCURVE",
"117 279 OFFCURVE",
"119 300 CURVE SMOOTH",
"126 393 OFFCURVE",
"136 479 OFFCURVE",
"175 575 CURVE SMOOTH",
"220 691 OFFCURVE",
"282 749 OFFCURVE",
"342 768 CURVE SMOOTH",
"349 770 OFFCURVE",
"356 771 OFFCURVE",
"362 771 CURVE SMOOTH",
"417 771 OFFCURVE",
"443 691 OFFCURVE",
"443 602 CURVE SMOOTH",
"443 553 OFFCURVE",
"435 502 OFFCURVE",
"420 460 CURVE SMOOTH",
"400 406 OFFCURVE",
"351 359 OFFCURVE",
"305 359 CURVE SMOOTH",
"277 359 OFFCURVE",
"251 378 OFFCURVE",
"234 424 CURVE SMOOTH",
"228 442 OFFCURVE",
"225 463 OFFCURVE",
"225 484 CURVE SMOOTH",
"225 502 OFFCURVE",
"227 520 OFFCURVE",
"230 537 CURVE SMOOTH",
"243 608 OFFCURVE",
"273 639 OFFCURVE",
"301 639 CURVE SMOOTH",
"334 639 OFFCURVE",
"365 598 OFFCURVE",
"365 529 CURVE SMOOTH",
"365 489 OFFCURVE",
"352 421 OFFCURVE",
"303 421 CURVE SMOOTH",
"295 421 OFFCURVE",
"290 422 OFFCURVE",
"288 425 CURVE",
"283 427 OFFCURVE",
"278 427 OFFCURVE",
"278 424 CURVE SMOOTH",
"278 423 OFFCURVE",
"279 421 OFFCURVE",
"281 419 CURVE SMOOTH",
"288 413 OFFCURVE",
"298 410 OFFCURVE",
"309 410 CURVE SMOOTH",
"371 410 OFFCURVE",
"384 500 OFFCURVE",
"389 542 CURVE",
"395 629 OFFCURVE",
"359 687 OFFCURVE",
"317 687 CURVE SMOOTH",
"281 687 OFFCURVE",
"241 644 OFFCURVE",
"221 539 CURVE SMOOTH",
"219 524 OFFCURVE",
"217 507 OFFCURVE",
"217 488 CURVE SMOOTH",
"217 467 OFFCURVE",
"219 444 OFFCURVE",
"224 423 CURVE SMOOTH",
"241 349 OFFCURVE",
"284 319 OFFCURVE",
"331 319 CURVE SMOOTH",
"387 319 OFFCURVE",
"450 361 OFFCURVE",
"486 420 CURVE SMOOTH",
"514 464 OFFCURVE",
"527 518 OFFCURVE",
"527 570 CURVE SMOOTH",
"527 685 OFFCURVE",
"465 795 OFFCURVE",
"367 795 CURVE SMOOTH",
"362 795 OFFCURVE",
"358 795 OFFCURVE",
"353 794 CURVE SMOOTH",
"220 778 OFFCURVE",
"168 717 OFFCURVE",
"116 622 CURVE SMOOTH",
"76 548 OFFCURVE",
"52 422 OFFCURVE",
"52 304 CURVE SMOOTH",
"52 152 OFFCURVE",
"90 -1 OFFCURVE",
"209 -1 CURVE SMOOTH"
);
},
{
closed = 1;
nodes = (
"481 871 OFFCURVE",
"484 874 OFFCURVE",
"484 879 CURVE SMOOTH",
"484 882 OFFCURVE",
"481 887 OFFCURVE",
"474 895 CURVE SMOOTH",
"424 945 LINE SMOOTH",
"399 970 OFFCURVE",
"381 982 OFFCURVE",
"368 982 CURVE SMOOTH",
"357 982 OFFCURVE",
"351 976 OFFCURVE",
"351 963 CURVE SMOOTH",
"351 956 OFFCURVE",
"354 951 OFFCURVE",
"361 948 CURVE",
"398 927 OFFCURVE",
"431 904 OFFCURVE",
"462 877 CURVE SMOOTH",
"467 873 OFFCURVE",
"471 871 OFFCURVE",
"476 871 CURVE SMOOTH"
);
}
);
};
components = (
{
name = O;
},
{
name = gravecomb.case;
transform = "{1, 0, 0, 1, 294, 441}";
}
);
layerId = "04B30934-05D4-410C-A3F8-810C0079C645";
width = 597;
}
);
note = Ograve;
unicode = 00D2;
}
{
color = 5;
glyphname = Otilde;
layers = (
{
background = {
paths = (
{
closed = 1;
nodes = (
"357 -1 OFFCURVE",
"483 188 OFFCURVE",
"525 278 CURVE SMOOTH",
"563 359 OFFCURVE",
"588 455 OFFCURVE",
"588 544 CURVE SMOOTH",
"588 646 OFFCURVE",
"556 739 OFFCURVE",
"472 793 CURVE",
"465 795 OFFCURVE",
"462 795 OFFCURVE",
"462 792 CURVE SMOOTH",
"462 790 OFFCURVE",
"463 788 OFFCURVE",
"467 785 CURVE",
"539 740 OFFCURVE",
"565 667 OFFCURVE",
"565 584 CURVE SMOOTH",
"565 484 OFFCURVE",
"527 371 OFFCURVE",
"483 278 CURVE SMOOTH",
"438 186 OFFCURVE",
"320 27 OFFCURVE",
"215 27 CURVE SMOOTH",
"146 27 OFFCURVE",
"117 122 OFFCURVE",
"117 239 CURVE SMOOTH",
"117 259 OFFCURVE",
"117 279 OFFCURVE",
"119 300 CURVE SMOOTH",
"126 393 OFFCURVE",
"136 479 OFFCURVE",
"175 575 CURVE SMOOTH",
"220 691 OFFCURVE",
"282 749 OFFCURVE",
"342 768 CURVE SMOOTH",
"349 770 OFFCURVE",
"356 771 OFFCURVE",
"362 771 CURVE SMOOTH",
"417 771 OFFCURVE",
"443 691 OFFCURVE",
"443 602 CURVE SMOOTH",
"443 553 OFFCURVE",
"435 502 OFFCURVE",
"420 460 CURVE SMOOTH",
"400 406 OFFCURVE",
"351 359 OFFCURVE",
"305 359 CURVE SMOOTH",
"277 359 OFFCURVE",
"251 378 OFFCURVE",
"234 424 CURVE SMOOTH",
"228 442 OFFCURVE",
"225 463 OFFCURVE",
"225 484 CURVE SMOOTH",
"225 502 OFFCURVE",
"227 520 OFFCURVE",
"230 537 CURVE SMOOTH",
"243 608 OFFCURVE",
"273 639 OFFCURVE",
"301 639 CURVE SMOOTH",
"334 639 OFFCURVE",
"365 598 OFFCURVE",
"365 529 CURVE SMOOTH",
"365 489 OFFCURVE",
"352 421 OFFCURVE",
"303 421 CURVE SMOOTH",
"295 421 OFFCURVE",
"290 422 OFFCURVE",
"288 425 CURVE",
"283 427 OFFCURVE",
"278 427 OFFCURVE",
"278 424 CURVE SMOOTH",
"278 423 OFFCURVE",
"279 421 OFFCURVE",
"281 419 CURVE SMOOTH",
"288 413 OFFCURVE",
"298 410 OFFCURVE",
"309 410 CURVE SMOOTH",
"371 410 OFFCURVE",
"384 500 OFFCURVE",
"389 542 CURVE",
"395 629 OFFCURVE",
"359 687 OFFCURVE",
"317 687 CURVE SMOOTH",
"281 687 OFFCURVE",
"241 644 OFFCURVE",
"221 539 CURVE SMOOTH",
"219 524 OFFCURVE",
"217 507 OFFCURVE",
"217 488 CURVE SMOOTH",
"217 467 OFFCURVE",
"219 444 OFFCURVE",
"224 423 CURVE SMOOTH",
"241 349 OFFCURVE",
"284 319 OFFCURVE",
"331 319 CURVE SMOOTH",
"387 319 OFFCURVE",
"450 361 OFFCURVE",
"486 420 CURVE SMOOTH",
"514 464 OFFCURVE",
"527 518 OFFCURVE",
"527 570 CURVE SMOOTH",
"527 685 OFFCURVE",
"465 795 OFFCURVE",
"367 795 CURVE SMOOTH",
"362 795 OFFCURVE",
"358 795 OFFCURVE",
"353 794 CURVE SMOOTH",
"220 778 OFFCURVE",
"168 717 OFFCURVE",
"116 622 CURVE SMOOTH",
"76 548 OFFCURVE",
"52 422 OFFCURVE",
"52 304 CURVE SMOOTH",
"52 152 OFFCURVE",
"90 -1 OFFCURVE",
"209 -1 CURVE SMOOTH"
);
},
{
closed = 1;
nodes = (
"500 898 OFFCURVE",
"523 918 OFFCURVE",
"523 970 CURVE SMOOTH",
"523 976 OFFCURVE",
"518 989 OFFCURVE",
"511 989 CURVE SMOOTH",
"510 989 OFFCURVE",
"510 989 OFFCURVE",
"509 989 CURVE",
"502 984 OFFCURVE",
"509 943 OFFCURVE",
"467 943 CURVE SMOOTH",
"460 943 OFFCURVE",
"443 946 OFFCURVE",
"420 965 CURVE SMOOTH",
"399 984 OFFCURVE",
"381 993 OFFCURVE",
"366 993 CURVE SMOOTH",
"323 993 OFFCURVE",
"293 975 OFFCURVE",
"293 939 CURVE SMOOTH",
"293 912 OFFCURVE",
"308 900 OFFCURVE",
"316 900 CURVE SMOOTH",
"320 900 OFFCURVE",
"313 907 OFFCURVE",
"318 926 CURVE SMOOTH",
"323 944 OFFCURVE",
"335 953 OFFCURVE",
"356 953 CURVE SMOOTH",
"375 953 OFFCURVE",
"382 944 OFFCURVE",
"401 925 CURVE SMOOTH",
"421 907 OFFCURVE",
"442 898 OFFCURVE",
"464 898 CURVE SMOOTH"
);
}
);
};
components = (
{
name = O;
},
{
name = tildecomb.case;
transform = "{1, 0, 0, 1, 313, 420}";
}
);
layerId = "04B30934-05D4-410C-A3F8-810C0079C645";
width = 597;
}
);
note = Otilde;
unicode = 00D5;
}
{
color = 4;
glyphname = ae;
layers = (
{
anchors = (
{
name = bottom;
position = "{168, 0}";
},
{
name = top;
position = "{271, 360}";
}
);
background = {
paths = (
{
closed = 1;
nodes = (
"319 -7 OFFCURVE",
"364 1 OFFCURVE",
"385 27 CURVE SMOOTH",
"418 73 OFFCURVE",
"433 99 OFFCURVE",
"462 146 CURVE SMOOTH",
"483 182 OFFCURVE",
"508 220 OFFCURVE",
"527 245 CURVE SMOOTH",
"531 250 OFFCURVE",
"531 254 OFFCURVE",
"528 254 CURVE SMOOTH",
"526 254 OFFCURVE",
"524 252 OFFCURVE",
"521 248 CURVE",
"501 225 OFFCURVE",
"478 188 OFFCURVE",
"455 155 CURVE SMOOTH",
"431 119 OFFCURVE",
"361 34 OFFCURVE",
"309 34 CURVE SMOOTH",
"279 34 OFFCURVE",
"262 63 OFFCURVE",
"262 118 CURVE SMOOTH",
"262 130 OFFCURVE",
"263 142 OFFCURVE",
"264 155 CURVE",
"277 143 OFFCURVE",
"297 140 OFFCURVE",
"302 140 CURVE SMOOTH",
"364 140 OFFCURVE",
"399 192 OFFCURVE",
"421 244 CURVE SMOOTH",
"434 272 OFFCURVE",
"444 301 OFFCURVE",
"444 325 CURVE SMOOTH",
"444 360 OFFCURVE",
"423 385 OFFCURVE",
"361 385 CURVE SMOOTH",
"331 385 OFFCURVE",
"303 374 OFFCURVE",
"286 359 CURVE SMOOTH",
"277 351 OFFCURVE",
"270 342 OFFCURVE",
"264 333 CURVE",
"264 334 OFFCURVE",
"263 337 OFFCURVE",
"262 341 CURVE",
"254 357 OFFCURVE",
"226 370 OFFCURVE",
"198 370 CURVE SMOOTH",
"70 365 OFFCURVE",
"15 246 OFFCURVE",
"-14 167 CURVE SMOOTH",
"-21 151 OFFCURVE",
"-25 124 OFFCURVE",
"-25 97 CURVE SMOOTH",
"-25 59 OFFCURVE",
"-16 22 OFFCURVE",
"10 16 CURVE",
"21 8 OFFCURVE",
"34 1 OFFCURVE",
"39 1 CURVE SMOOTH",
"94 1 OFFCURVE",
"164 90 OFFCURVE",
"207 168 CURVE",
"202 141 OFFCURVE",
"200 117 OFFCURVE",
"200 98 CURVE SMOOTH",
"200 52 OFFCURVE",
"222 -11 OFFCURVE",
"282 -11 CURVE SMOOTH",
"287 -11 OFFCURVE",
"292 -11 OFFCURVE",
"297 -10 CURVE SMOOTH"
);
},
{
closed = 1;
nodes = (
"34 14 OFFCURVE",
"31 22 OFFCURVE",
"31 36 CURVE SMOOTH",
"31 52 OFFCURVE",
"35 75 OFFCURVE",
"42 101 CURVE SMOOTH",
"63 180 OFFCURVE",
"114 336 OFFCURVE",
"222 352 CURVE SMOOTH",
"231 353 OFFCURVE",
"235 346 OFFCURVE",
"235 335 CURVE SMOOTH",
"235 311 OFFCURVE",
"213 293 OFFCURVE",
"190 293 CURVE SMOOTH",
"182 293 OFFCURVE",
"179 287 OFFCURVE",
"198 287 CURVE SMOOTH",
"204 287 OFFCURVE",
"210 288 OFFCURVE",
"216 289 CURVE SMOOTH",
"229 292 OFFCURVE",
"240 297 OFFCURVE",
"247 302 CURVE",
"232 271 OFFCURVE",
"221 237 OFFCURVE",
"213 202 CURVE",
"176 127 OFFCURVE",
"87 14 OFFCURVE",
"41 14 CURVE SMOOTH"
);
},
{
closed = 1;
nodes = (
"293 152 OFFCURVE",
"277 161 OFFCURVE",
"274 166 CURVE",
"271 169 OFFCURVE",
"270 174 OFFCURVE",
"267 178 CURVE",
"276 233 OFFCURVE",
"294 289 OFFCURVE",
"319 325 CURVE SMOOTH",
"338 352 OFFCURVE",
"362 372 OFFCURVE",
"377 372 CURVE SMOOTH",
"390 371 OFFCURVE",
"394 360 OFFCURVE",
"394 344 CURVE SMOOTH",
"394 320 OFFCURVE",
"384 286 OFFCURVE",
"377 262 CURVE SMOOTH",
"372 238 OFFCURVE",
"334 152 OFFCURVE",
"302 152 CURVE SMOOTH"
);
}
);
};
layerId = "04B30934-05D4-410C-A3F8-810C0079C645";
paths = (
{
closed = 1;
nodes = (
"287 -11 OFFCURVE",
"292 -11 OFFCURVE",
"297 -10 CURVE SMOOTH",
"319 -7 OFFCURVE",
"364 1 OFFCURVE",
"385 27 CURVE SMOOTH",
"418 73 OFFCURVE",
"433 99 OFFCURVE",
"462 146 CURVE SMOOTH",
"483 182 OFFCURVE",
"508 220 OFFCURVE",
"527 245 CURVE SMOOTH",
"531 250 OFFCURVE",
"531 254 OFFCURVE",
"528 254 CURVE SMOOTH",
"526 254 OFFCURVE",
"524 252 OFFCURVE",
"521 248 CURVE SMOOTH",
"501 225 OFFCURVE",
"478 188 OFFCURVE",
"455 155 CURVE SMOOTH",
"431 119 OFFCURVE",
"361 34 OFFCURVE",
"309 34 CURVE SMOOTH",
"279 34 OFFCURVE",
"262 63 OFFCURVE",
"262 118 CURVE SMOOTH",
"262 130 OFFCURVE",
"263 142 OFFCURVE",
"264 155 CURVE",
"277 143 OFFCURVE",
"297 140 OFFCURVE",
"302 140 CURVE SMOOTH",
"364 140 OFFCURVE",
"399 192 OFFCURVE",
"421 244 CURVE SMOOTH",
"434 272 OFFCURVE",
"444 301 OFFCURVE",
"444 325 CURVE SMOOTH",
"444 360 OFFCURVE",
"423 385 OFFCURVE",
"361 385 CURVE SMOOTH",
"331 385 OFFCURVE",
"303 374 OFFCURVE",
"286 359 CURVE SMOOTH",
"277 351 OFFCURVE",
"270 342 OFFCURVE",
"264 333 CURVE",
"262 341 LINE",
"254 357 OFFCURVE",
"226 370 OFFCURVE",
"198 370 CURVE SMOOTH",
"70 365 OFFCURVE",
"15 246 OFFCURVE",
"-14 167 CURVE SMOOTH",
"-21 151 OFFCURVE",
"-25 124 OFFCURVE",
"-25 97 CURVE SMOOTH",
"-25 59 OFFCURVE",
"-16 22 OFFCURVE",
"10 16 CURVE",
"21 8 OFFCURVE",
"34 1 OFFCURVE",
"39 1 CURVE SMOOTH",
"94 1 OFFCURVE",
"164 90 OFFCURVE",
"207 168 CURVE",
"202 141 OFFCURVE",
"200 117 OFFCURVE",
"200 98 CURVE SMOOTH",
"200 52 OFFCURVE",
"222 -11 OFFCURVE",
"282 -11 CURVE SMOOTH"
);
},
{
closed = 1;
nodes = (
"34 14 OFFCURVE",
"31 22 OFFCURVE",
"31 36 CURVE SMOOTH",
"31 52 OFFCURVE",
"35 75 OFFCURVE",
"42 101 CURVE SMOOTH",
"63 180 OFFCURVE",
"114 336 OFFCURVE",
"222 352 CURVE SMOOTH",
"231 353 OFFCURVE",
"235 346 OFFCURVE",
"235 335 CURVE SMOOTH",
"235 311 OFFCURVE",
"213 293 OFFCURVE",
"190 293 CURVE SMOOTH",
"182 293 OFFCURVE",
"179 287 OFFCURVE",
"198 287 CURVE SMOOTH",
"204 287 OFFCURVE",
"210 288 OFFCURVE",
"216 289 CURVE SMOOTH",
"229 292 OFFCURVE",
"240 297 OFFCURVE",
"247 302 CURVE",
"232 271 OFFCURVE",
"221 237 OFFCURVE",
"213 202 CURVE",
"176 127 OFFCURVE",
"87 14 OFFCURVE",
"41 14 CURVE SMOOTH"
);
},
{
closed = 1;
nodes = (
"293 152 OFFCURVE",
"277 161 OFFCURVE",
"274 166 CURVE",
"271 169 OFFCURVE",
"270 174 OFFCURVE",
"267 178 CURVE",
"276 233 OFFCURVE",
"294 289 OFFCURVE",
"319 325 CURVE SMOOTH",
"338 352 OFFCURVE",
"362 372 OFFCURVE",
"377 372 CURVE SMOOTH",
"390 371 OFFCURVE",
"394 360 OFFCURVE",
"394 344 CURVE SMOOTH",
"394 320 OFFCURVE",
"384 286 OFFCURVE",
"377 262 CURVE SMOOTH",
"372 238 OFFCURVE",
"334 152 OFFCURVE",
"302 152 CURVE SMOOTH"
);
}
);
width = 486;
}
);
note = ae;
unicode = 00E6;
}
{
color = 5;
glyphname = agrave;
layers = (
{
background = {
paths = (
{
closed = 1;
nodes = (
"98 1 OFFCURVE",
"175 102 OFFCURVE",
"215 183 CURVE",
"226 124 OFFCURVE",
"246 70 OFFCURVE",
"293 27 CURVE SMOOTH",
"310 12 OFFCURVE",
"330 5 OFFCURVE",
"352 5 CURVE SMOOTH",
"371 5 OFFCURVE",
"392 10 OFFCURVE",
"412 19 CURVE SMOOTH",
"416 20 OFFCURVE",
"420 25 OFFCURVE",
"420 27 CURVE SMOOTH",
"420 28 OFFCURVE",
"420 29 OFFCURVE",
"418 29 CURVE SMOOTH",
"416 29 OFFCURVE",
"414 29 OFFCURVE",
"410 27 CURVE SMOOTH",
"404 25 OFFCURVE",
"398 23 OFFCURVE",
"392 23 CURVE SMOOTH",
"379 23 OFFCURVE",
"366 29 OFFCURVE",
"353 41 CURVE SMOOTH",
"300 89 OFFCURVE",
"264 221 OFFCURVE",
"261 288 CURVE",
"263 300 OFFCURVE",
"207 259 OFFCURVE",
"207 248 CURVE SMOOTH",
"208 232 OFFCURVE",
"209 216 OFFCURVE",
"212 200 CURVE",
"175 125 OFFCURVE",
"86 14 OFFCURVE",
"41 14 CURVE SMOOTH",
"34 14 OFFCURVE",
"31 22 OFFCURVE",
"31 36 CURVE SMOOTH",
"31 52 OFFCURVE",
"35 75 OFFCURVE",
"42 101 CURVE SMOOTH",
"63 180 OFFCURVE",
"114 336 OFFCURVE",
"222 352 CURVE SMOOTH",
"231 353 OFFCURVE",
"235 346 OFFCURVE",
"235 335 CURVE SMOOTH",
"235 311 OFFCURVE",
"213 293 OFFCURVE",
"190 293 CURVE SMOOTH",
"182 293 OFFCURVE",
"179 287 OFFCURVE",
"198 287 CURVE SMOOTH",
"204 287 OFFCURVE",
"210 288 OFFCURVE",
"216 289 CURVE SMOOTH",
"246 296 OFFCURVE",
"264 315 OFFCURVE",
"264 332 CURVE SMOOTH",
"264 352 OFFCURVE",
"231 370 OFFCURVE",
"198 370 CURVE SMOOTH",
"70 365 OFFCURVE",
"15 246 OFFCURVE",
"-14 167 CURVE SMOOTH",
"-21 151 OFFCURVE",
"-25 124 OFFCURVE",
"-25 97 CURVE SMOOTH",
"-25 59 OFFCURVE",
"-16 22 OFFCURVE",
"10 16 CURVE",
"21 8 OFFCURVE",
"34 1 OFFCURVE",
"39 1 CURVE SMOOTH"
);
},
{
closed = 1;
nodes = (
"243 417 OFFCURVE",
"246 420 OFFCURVE",
"246 425 CURVE SMOOTH",
"246 428 OFFCURVE",
"243 433 OFFCURVE",
"236 441 CURVE SMOOTH",
"186 491 LINE SMOOTH",
"161 516 OFFCURVE",
"143 528 OFFCURVE",
"130 528 CURVE SMOOTH",
"119 528 OFFCURVE",
"113 522 OFFCURVE",
"113 509 CURVE SMOOTH",
"113 502 OFFCURVE",
"116 497 OFFCURVE",
"123 494 CURVE",
"160 473 OFFCURVE",
"193 450 OFFCURVE",
"224 423 CURVE SMOOTH",
"229 419 OFFCURVE",
"233 417 OFFCURVE",
"238 417 CURVE SMOOTH"
);
}
);
};
components = (
{
name = a;
},
{
name = gravecomb;
transform = "{1, 0, 0, 1, 108, 0}";
}
);
layerId = "04B30934-05D4-410C-A3F8-810C0079C645";
width = 389;
}
);
note = agrave;
unicode = 00E0;
}
{
color = 5;
glyphname = atilde;
layers = (
{
background = {
paths = (
{
closed = 1;
nodes = (
"98 1 OFFCURVE",
"175 102 OFFCURVE",
"215 183 CURVE",
"226 124 OFFCURVE",
"246 70 OFFCURVE",
"293 27 CURVE SMOOTH",
"310 12 OFFCURVE",
"330 5 OFFCURVE",
"352 5 CURVE SMOOTH",
"371 5 OFFCURVE",
"392 10 OFFCURVE",
"412 19 CURVE SMOOTH",
"416 20 OFFCURVE",
"420 25 OFFCURVE",
"420 27 CURVE SMOOTH",
"420 28 OFFCURVE",
"420 29 OFFCURVE",
"418 29 CURVE SMOOTH",
"416 29 OFFCURVE",
"414 29 OFFCURVE",
"410 27 CURVE SMOOTH",
"404 25 OFFCURVE",
"398 23 OFFCURVE",
"392 23 CURVE SMOOTH",
"379 23 OFFCURVE",
"366 29 OFFCURVE",
"353 41 CURVE SMOOTH",
"300 89 OFFCURVE",
"264 221 OFFCURVE",
"261 288 CURVE",
"263 300 OFFCURVE",
"207 259 OFFCURVE",
"207 248 CURVE SMOOTH",
"208 232 OFFCURVE",
"209 216 OFFCURVE",
"212 200 CURVE",
"175 125 OFFCURVE",
"86 14 OFFCURVE",
"41 14 CURVE SMOOTH",
"34 14 OFFCURVE",
"31 22 OFFCURVE",
"31 36 CURVE SMOOTH",
"31 52 OFFCURVE",
"35 75 OFFCURVE",
"42 101 CURVE SMOOTH",
"63 180 OFFCURVE",
"114 336 OFFCURVE",
"222 352 CURVE SMOOTH",
"231 353 OFFCURVE",
"235 346 OFFCURVE",
"235 335 CURVE SMOOTH",
"235 311 OFFCURVE",
"213 293 OFFCURVE",
"190 293 CURVE SMOOTH",
"182 293 OFFCURVE",
"179 287 OFFCURVE",
"198 287 CURVE SMOOTH",
"204 287 OFFCURVE",
"210 288 OFFCURVE",
"216 289 CURVE SMOOTH",
"246 296 OFFCURVE",
"264 315 OFFCURVE",
"264 332 CURVE SMOOTH",
"264 352 OFFCURVE",
"231 370 OFFCURVE",
"198 370 CURVE SMOOTH",
"70 365 OFFCURVE",
"15 246 OFFCURVE",
"-14 167 CURVE SMOOTH",
"-21 151 OFFCURVE",
"-25 124 OFFCURVE",
"-25 97 CURVE SMOOTH",
"-25 59 OFFCURVE",
"-16 22 OFFCURVE",
"10 16 CURVE",
"21 8 OFFCURVE",
"34 1 OFFCURVE",
"39 1 CURVE SMOOTH"
);
},
{
closed = 1;
nodes = (
"292 439 OFFCURVE",
"315 459 OFFCURVE",
"315 511 CURVE SMOOTH",
"315 517 OFFCURVE",
"310 530 OFFCURVE",
"303 530 CURVE SMOOTH",
"302 530 OFFCURVE",
"302 530 OFFCURVE",
"301 530 CURVE",
"294 525 OFFCURVE",
"301 484 OFFCURVE",
"259 484 CURVE SMOOTH",
"252 484 OFFCURVE",
"235 487 OFFCURVE",
"212 506 CURVE SMOOTH",
"191 525 OFFCURVE",
"173 534 OFFCURVE",
"158 534 CURVE SMOOTH",
"115 534 OFFCURVE",
"85 516 OFFCURVE",
"85 480 CURVE SMOOTH",
"85 453 OFFCURVE",
"100 441 OFFCURVE",
"108 441 CURVE SMOOTH",
"112 441 OFFCURVE",
"105 448 OFFCURVE",
"110 467 CURVE SMOOTH",
"115 485 OFFCURVE",
"127 494 OFFCURVE",
"148 494 CURVE SMOOTH",
"167 494 OFFCURVE",
"174 485 OFFCURVE",
"193 466 CURVE SMOOTH",
"213 448 OFFCURVE",
"234 439 OFFCURVE",
"256 439 CURVE SMOOTH"
);
}
);
};
components = (
{
name = a;
},
{
name = tildecomb;
transform = "{1, 0, 0, 1, 100, 3}";
}
);
layerId = "04B30934-05D4-410C-A3F8-810C0079C645";
width = 389;
}
);
note = atilde;
unicode = 00E3;
}
{
color = 5;
glyphname = ccedilla;
layers = (
{
background = {
paths = (
{
closed = 1;
nodes = (
"148 -8 OFFCURVE",
"173 -3 OFFCURVE",
"195 27 CURVE SMOOTH",
"228 73 OFFCURVE",
"243 99 OFFCURVE",
"272 146 CURVE SMOOTH",
"293 182 OFFCURVE",
"318 220 OFFCURVE",
"337 245 CURVE SMOOTH",
"341 250 OFFCURVE",
"341 254 OFFCURVE",
"338 254 CURVE SMOOTH",
"336 254 OFFCURVE",
"334 252 OFFCURVE",
"331 248 CURVE",
"311 225 OFFCURVE",
"288 188 OFFCURVE",
"265 155 CURVE SMOOTH",
"242 119 OFFCURVE",
"186 33 OFFCURVE",
"136 33 CURVE SMOOTH",
"131 33 OFFCURVE",
"125 34 OFFCURVE",
"120 36 CURVE SMOOTH",
"101 43 OFFCURVE",
"92 73 OFFCURVE",
"87 112 CURVE SMOOTH",
"84 132 OFFCURVE",
"82 154 OFFCURVE",
"82 176 CURVE SMOOTH",
"82 232 OFFCURVE",
"92 291 OFFCURVE",
"113 329 CURVE SMOOTH",
"126 356 OFFCURVE",
"144 371 OFFCURVE",
"159 371 CURVE SMOOTH",
"178 371 OFFCURVE",
"194 352 OFFCURVE",
"201 310 CURVE SMOOTH",
"202 305 OFFCURVE",
"202 301 OFFCURVE",
"202 298 CURVE SMOOTH",
"202 276 OFFCURVE",
"187 263 OFFCURVE",
"172 263 CURVE SMOOTH",
"168 263 OFFCURVE",
"165 264 OFFCURVE",
"162 265 CURVE",
"155 263 OFFCURVE",
"152 261 OFFCURVE",
"152 258 CURVE SMOOTH",
"152 255 OFFCURVE",
"155 252 OFFCURVE",
"158 248 CURVE",
"163 247 OFFCURVE",
"167 246 OFFCURVE",
"171 246 CURVE SMOOTH",
"204 246 OFFCURVE",
"222 281 OFFCURVE",
"229 309 CURVE SMOOTH",
"230 316 OFFCURVE",
"231 322 OFFCURVE",
"231 328 CURVE SMOOTH",
"231 373 OFFCURVE",
"189 391 OFFCURVE",
"157 391 CURVE SMOOTH",
"122 391 OFFCURVE",
"92 380 OFFCURVE",
"76 361 CURVE SMOOTH",
"37 320 OFFCURVE",
"24 224 OFFCURVE",
"24 153 CURVE SMOOTH",
"24 131 OFFCURVE",
"25 113 OFFCURVE",
"27 98 CURVE SMOOTH",
"35 50 OFFCURVE",
"62 -8 OFFCURVE",
"124 -8 CURVE SMOOTH"
);
},
{
closed = 1;
nodes = (
"57 -270 OFFCURVE",
"85 -261 OFFCURVE",
"108 -244 CURVE SMOOTH",
"134 -226 OFFCURVE",
"147 -201 OFFCURVE",
"147 -169 CURVE SMOOTH",
"147 -151 OFFCURVE",
"139 -130 OFFCURVE",
"122 -107 CURVE SMOOTH",
"109 -89 OFFCURVE",
"94 -65 OFFCURVE",
"94 -43 CURVE SMOOTH",
"94 -37 OFFCURVE",
"95 -32 OFFCURVE",
"97 -27 CURVE SMOOTH",
"104 -12 OFFCURVE",
"118 -4 OFFCURVE",
"122 -4 CURVE SMOOTH",
"132 -4 OFFCURVE",
"137 -1 OFFCURVE",
"137 1 CURVE SMOOTH",
"137 4 OFFCURVE",
"132 7 OFFCURVE",
"122 7 CURVE SMOOTH",
"105 7 OFFCURVE",
"84 -4 OFFCURVE",
"73 -23 CURVE SMOOTH",
"65 -39 OFFCURVE",
"61 -56 OFFCURVE",
"61 -73 CURVE SMOOTH",
"61 -92 OFFCURVE",
"68 -111 OFFCURVE",
"83 -128 CURVE",
"96 -147 OFFCURVE",
"108 -172 OFFCURVE",
"108 -194 CURVE SMOOTH",
"108 -209 OFFCURVE",
"103 -222 OFFCURVE",
"91 -233 CURVE SMOOTH",
"76 -248 OFFCURVE",
"50 -252 OFFCURVE",
"29 -252 CURVE SMOOTH",
"6 -252 OFFCURVE",
"-7 -233 OFFCURVE",
"-7 -215 CURVE SMOOTH",
"-7 -201 OFFCURVE",
"0 -187 OFFCURVE",
"15 -180 CURVE SMOOTH",
"20 -178 OFFCURVE",
"31 -172 OFFCURVE",
"31 -169 CURVE SMOOTH",
"31 -167 OFFCURVE",
"27 -165 OFFCURVE",
"18 -165 CURVE SMOOTH",
"-7 -165 OFFCURVE",
"-35 -192 OFFCURVE",
"-35 -220 CURVE SMOOTH",
"-35 -234 OFFCURVE",
"-29 -246 OFFCURVE",
"-16 -256 CURVE SMOOTH",
"-3 -265 OFFCURVE",
"10 -270 OFFCURVE",
"25 -270 CURVE SMOOTH"
);
}
);
};
components = (
{
name = c;
},
{
name = cedillacomb;
transform = "{1, 0, 0, 1, -26, -7}";
}
);
layerId = "04B30934-05D4-410C-A3F8-810C0079C645";
width = 296;
}
);
note = ccedilla;
unicode = 00E7;
}
{
glyphname = cent;
layers = (
{
background = {
paths = (
{
closed = 1;
nodes = (
"99 -97 OFFCURVE",
"104 -93 OFFCURVE",
"108 -85 CURVE SMOOTH",
"123 -53 OFFCURVE",
"139 -16 OFFCURVE",
"154 29 CURVE",
"209 29 OFFCURVE",
"252 51 OFFCURVE",
"281 95 CURVE SMOOTH",
"285 101 OFFCURVE",
"287 107 OFFCURVE",
"287 112 CURVE SMOOTH",
"287 116 OFFCURVE",
"286 118 OFFCURVE",
"284 118 CURVE SMOOTH",
"280 118 OFFCURVE",
"276 115 OFFCURVE",
"271 108 CURVE SMOOTH",
"267 101 OFFCURVE",
"263 96 OFFCURVE",
"259 92 CURVE SMOOTH",
"238 67 OFFCURVE",
"207 54 OFFCURVE",
"167 54 CURVE SMOOTH",
"101 54 OFFCURVE",
"62 97 OFFCURVE",
"62 162 CURVE SMOOTH",
"62 217 OFFCURVE",
"85 261 OFFCURVE",
"131 293 CURVE",
"124 282 OFFCURVE",
"121 269 OFFCURVE",
"121 255 CURVE SMOOTH",
"121 223 OFFCURVE",
"135 207 OFFCURVE",
"163 207 CURVE SMOOTH",
"180 207 OFFCURVE",
"200 215 OFFCURVE",
"222 231 CURVE SMOOTH",
"244 248 OFFCURVE",
"255 264 OFFCURVE",
"255 281 CURVE SMOOTH",
"255 311 OFFCURVE",
"227 329 OFFCURVE",
"187 329 CURVE SMOOTH",
"181 329 LINE",
"182 335 OFFCURVE",
"190 359 OFFCURVE",
"205 401 CURVE SMOOTH",
"217 435 OFFCURVE",
"223 457 OFFCURVE",
"223 466 CURVE SMOOTH",
"223 476 OFFCURVE",
"218 481 OFFCURVE",
"207 481 CURVE SMOOTH",
"199 481 OFFCURVE",
"194 477 OFFCURVE",
"193 468 CURVE",
"183 422 LINE SMOOTH",
"176 395 OFFCURVE",
"167 364 OFFCURVE",
"155 325 CURVE",
"118 317 OFFCURVE",
"86 296 OFFCURVE",
"61 261 CURVE SMOOTH",
"36 226 OFFCURVE",
"23 190 OFFCURVE",
"23 151 CURVE SMOOTH",
"23 97 OFFCURVE",
"61 47 OFFCURVE",
"121 32 CURVE",
"86 -81 LINE",
"84 -84 OFFCURVE",
"83 -87 OFFCURVE",
"83 -88 CURVE SMOOTH",
"83 -94 OFFCURVE",
"86 -97 OFFCURVE",
"92 -97 CURVE SMOOTH"
);
},
{
closed = 1;
nodes = (
"154 222 OFFCURVE",
"151 225 OFFCURVE",
"151 231 CURVE SMOOTH",
"151 240 OFFCURVE",
"155 253 OFFCURVE",
"162 270 CURVE SMOOTH",
"171 289 OFFCURVE",
"175 302 OFFCURVE",
"176 309 CURVE",
"185 309 LINE SMOOTH",
"195 309 OFFCURVE",
"205 307 OFFCURVE",
"215 304 CURVE",
"218 299 OFFCURVE",
"220 295 OFFCURVE",
"220 290 CURVE SMOOTH",
"220 279 OFFCURVE",
"213 265 OFFCURVE",
"198 247 CURVE SMOOTH",
"183 230 OFFCURVE",
"170 222 OFFCURVE",
"159 222 CURVE SMOOTH"
);
}
);
};
layerId = "04B30934-05D4-410C-A3F8-810C0079C645";
paths = (
{
closed = 1;
nodes = (
"99 -97 OFFCURVE",
"104 -93 OFFCURVE",
"108 -85 CURVE SMOOTH",
"123 -53 OFFCURVE",
"139 -16 OFFCURVE",
"154 29 CURVE",
"209 29 OFFCURVE",
"252 51 OFFCURVE",
"281 95 CURVE SMOOTH",
"285 101 OFFCURVE",
"287 107 OFFCURVE",
"287 112 CURVE SMOOTH",
"287 116 OFFCURVE",
"286 118 OFFCURVE",
"284 118 CURVE SMOOTH",
"280 118 OFFCURVE",
"276 115 OFFCURVE",
"271 108 CURVE SMOOTH",
"267 101 OFFCURVE",
"263 96 OFFCURVE",
"259 92 CURVE SMOOTH",
"238 67 OFFCURVE",
"207 54 OFFCURVE",
"167 54 CURVE SMOOTH",
"101 54 OFFCURVE",
"62 97 OFFCURVE",
"62 162 CURVE SMOOTH",
"62 217 OFFCURVE",
"85 261 OFFCURVE",
"131 293 CURVE",
"124 282 OFFCURVE",
"121 269 OFFCURVE",
"121 255 CURVE SMOOTH",
"121 223 OFFCURVE",
"135 207 OFFCURVE",
"163 207 CURVE SMOOTH",
"180 207 OFFCURVE",
"200 215 OFFCURVE",
"222 231 CURVE SMOOTH",
"244 248 OFFCURVE",
"255 264 OFFCURVE",
"255 281 CURVE SMOOTH",
"255 311 OFFCURVE",
"227 329 OFFCURVE",
"187 329 CURVE SMOOTH",
"181 329 LINE",
"182 335 OFFCURVE",
"190 359 OFFCURVE",
"205 401 CURVE SMOOTH",
"217 435 OFFCURVE",
"223 457 OFFCURVE",
"223 466 CURVE SMOOTH",
"223 476 OFFCURVE",
"218 481 OFFCURVE",
"207 481 CURVE SMOOTH",
"199 481 OFFCURVE",
"194 477 OFFCURVE",
"193 468 CURVE",
"183 422 LINE SMOOTH",
"176 395 OFFCURVE",
"167 364 OFFCURVE",
"155 325 CURVE",
"118 317 OFFCURVE",
"86 296 OFFCURVE",
"61 261 CURVE SMOOTH",
"36 226 OFFCURVE",
"23 190 OFFCURVE",
"23 151 CURVE SMOOTH",
"23 97 OFFCURVE",
"61 47 OFFCURVE",
"121 32 CURVE",
"86 -81 LINE",
"84 -84 OFFCURVE",
"83 -87 OFFCURVE",
"83 -88 CURVE SMOOTH",
"83 -94 OFFCURVE",
"86 -97 OFFCURVE",
"92 -97 CURVE SMOOTH"
);
},
{
closed = 1;
nodes = (
"154 222 OFFCURVE",
"151 225 OFFCURVE",
"151 231 CURVE SMOOTH",
"151 240 OFFCURVE",
"155 253 OFFCURVE",
"162 270 CURVE SMOOTH",
"171 289 OFFCURVE",
"175 302 OFFCURVE",
"176 309 CURVE",
"185 309 LINE SMOOTH",
"195 309 OFFCURVE",
"205 307 OFFCURVE",
"215 304 CURVE",
"218 299 OFFCURVE",
"220 295 OFFCURVE",
"220 290 CURVE SMOOTH",
"220 279 OFFCURVE",
"213 265 OFFCURVE",
"198 247 CURVE SMOOTH",
"183 230 OFFCURVE",
"170 222 OFFCURVE",
"159 222 CURVE SMOOTH"
);
}
);
width = 274;
}
);
note = cent;
unicode = 00A2;
userData = {
KernOnSpecialSpacing = {
L = symbols;
R = symbols;
};
};
}
{
glyphname = currency;
layers = (
{
layerId = "04B30934-05D4-410C-A3F8-810C0079C645";
paths = (
{
closed = 1;
nodes = (
"251 113 OFFCURVE",
"303 161 OFFCURVE",
"303 220 CURVE SMOOTH",
"303 279 OFFCURVE",
"251 327 OFFCURVE",
"187 327 CURVE SMOOTH",
"122 327 OFFCURVE",
"71 279 OFFCURVE",
"71 220 CURVE SMOOTH",
"71 161 OFFCURVE",
"122 113 OFFCURVE",
"187 113 CURVE SMOOTH"
);
},
{
closed = 1;
nodes = (
"152 156 OFFCURVE",
"125 185 OFFCURVE",
"125 222 CURVE SMOOTH",
"125 257 OFFCURVE",
"152 287 OFFCURVE",
"187 287 CURVE SMOOTH",
"222 287 OFFCURVE",
"249 257 OFFCURVE",
"249 222 CURVE SMOOTH",
"249 185 OFFCURVE",
"222 156 OFFCURVE",
"187 156 CURVE SMOOTH"
);
},
{
closed = 1;
nodes = (
"143 317 OFFCURVE",
"127 332 OFFCURVE",
"111 344 CURVE SMOOTH",
"95 356 OFFCURVE",
"74 362 OFFCURVE",
"62 362 CURVE SMOOTH",
"56 362 OFFCURVE",
"52 360 OFFCURVE",
"54 356 CURVE SMOOTH",
"60 339 OFFCURVE",
"84 310 OFFCURVE",
"115 278 CURVE",
"161 300 LINE"
);
},
{
closed = 1;
nodes = (
"278 310 OFFCURVE",
"290 327 OFFCURVE",
"296 337 CURVE SMOOTH",
"313 367 OFFCURVE",
"314 381 OFFCURVE",
"308 381 CURVE SMOOTH",
"303 381 OFFCURVE",
"294 373 OFFCURVE",
"283 360 CURVE SMOOTH",
"270 343 OFFCURVE",
"253 327 OFFCURVE",
"234 309 CURVE",
"263 291 LINE"
);
},
{
closed = 1;
nodes = (
"261 139 OFFCURVE",
"288 119 OFFCURVE",
"302 111 CURVE SMOOTH",
"332 94 OFFCURVE",
"346 93 OFFCURVE",
"346 99 CURVE SMOOTH",
"346 104 OFFCURVE",
"338 113 OFFCURVE",
"325 124 CURVE SMOOTH",
"306 139 OFFCURVE",
"286 159 OFFCURVE",
"266 182 CURVE",
"231 166 LINE"
);
},
{
closed = 1;
nodes = (
"95 184 OFFCURVE",
"76 165 OFFCURVE",
"63 146 CURVE SMOOTH",
"51 130 OFFCURVE",
"45 109 OFFCURVE",
"45 98 CURVE SMOOTH",
"45 91 OFFCURVE",
"47 87 OFFCURVE",
"51 89 CURVE SMOOTH",
"70 97 OFFCURVE",
"102 125 OFFCURVE",
"138 159 CURVE",
"114 205 LINE"
);
}
);
width = 391;
}
);
unicode = 00A4;
userData = {
KernOnSpecialSpacing = {
L = symbols;
R = symbols;
};
};
}
{
glyphname = degree;
layers = (
{
background = {
paths = (
{
closed = 1;
nodes = (
"211 347 OFFCURVE",
"255 380 OFFCURVE",
"255 438 CURVE SMOOTH",
"255 494 OFFCURVE",
"213 554 OFFCURVE",
"151 554 CURVE SMOOTH",
"91 554 OFFCURVE",
"52 510 OFFCURVE",
"52 452 CURVE SMOOTH",
"52 397 OFFCURVE",
"89 347 OFFCURVE",
"150 347 CURVE SMOOTH"
);
},
{
closed = 1;
nodes = (
"106 371 OFFCURVE",
"76 415 OFFCURVE",
"76 460 CURVE SMOOTH",
"76 502 OFFCURVE",
"97 523 OFFCURVE",
"138 523 CURVE SMOOTH",
"189 523 OFFCURVE",
"230 482 OFFCURVE",
"230 430 CURVE SMOOTH",
"230 391 OFFCURVE",
"202 371 OFFCURVE",
"147 371 CURVE SMOOTH"
);
}
);
};
layerId = "04B30934-05D4-410C-A3F8-810C0079C645";
paths = (
{
closed = 1;
nodes = (
"211 347 OFFCURVE",
"255 380 OFFCURVE",
"255 438 CURVE SMOOTH",
"255 494 OFFCURVE",
"213 554 OFFCURVE",
"151 554 CURVE SMOOTH",
"91 554 OFFCURVE",
"52 510 OFFCURVE",
"52 452 CURVE SMOOTH",
"52 397 OFFCURVE",
"89 347 OFFCURVE",
"150 347 CURVE SMOOTH"
);
},
{
closed = 1;
nodes = (
"106 371 OFFCURVE",
"76 415 OFFCURVE",
"76 460 CURVE SMOOTH",
"76 502 OFFCURVE",
"97 523 OFFCURVE",
"138 523 CURVE SMOOTH",
"189 523 OFFCURVE",
"230 482 OFFCURVE",
"230 430 CURVE SMOOTH",
"230 391 OFFCURVE",
"202 371 OFFCURVE",
"147 371 CURVE SMOOTH"
);
}
);
width = 299;
}
);
note = degree;
unicode = 00B0;
userData = {
KernOnSpecialSpacing = {
L = symbols;
R = symbols;
};
};
}
{
color = 4;
glyphname = eth;
layers = (
{
background = {
paths = (
{
closed = 1;
nodes = (
"236 47 OFFCURVE",
"295 205 OFFCURVE",
"295 352 CURVE SMOOTH",
"295 431 OFFCURVE",
"278 508 OFFCURVE",
"243 565 CURVE",
"272 584 OFFCURVE",
"295 601 OFFCURVE",
"303 609 CURVE SMOOTH",
"314 620 OFFCURVE",
"319 628 OFFCURVE",
"319 631 CURVE SMOOTH",
"319 633 OFFCURVE",
"318 634 OFFCURVE",
"316 634 CURVE SMOOTH",
"313 634 OFFCURVE",
"306 631 OFFCURVE",
"298 625 CURVE SMOOTH",
"282 614 OFFCURVE",
"257 600 OFFCURVE",
"230 585 CURVE",
"199 624 OFFCURVE",
"160 651 OFFCURVE",
"109 660 CURVE SMOOTH",
"94 662 OFFCURVE",
"74 645 OFFCURVE",
"74 630 CURVE SMOOTH",
"74 624 OFFCURVE",
"76 618 OFFCURVE",
"83 614 CURVE SMOOTH",
"110 597 OFFCURVE",
"141 579 OFFCURVE",
"170 554 CURVE",
"139 537 OFFCURVE",
"114 521 OFFCURVE",
"98 508 CURVE SMOOTH",
"83 496 OFFCURVE",
"73 474 OFFCURVE",
"81 475 CURVE SMOOTH",
"98 478 OFFCURVE",
"146 504 OFFCURVE",
"193 533 CURVE",
"228 494 OFFCURVE",
"254 442 OFFCURVE",
"250 366 CURVE",
"233 379 OFFCURVE",
"209 388 OFFCURVE",
"183 388 CURVE SMOOTH",
"136 388 OFFCURVE",
"100 367 OFFCURVE",
"78 337 CURVE SMOOTH",
"44 289 OFFCURVE",
"30 205 OFFCURVE",
"30 127 CURVE SMOOTH",
"30 84 OFFCURVE",
"34 43 OFFCURVE",
"41 11 CURVE",
"52 -7 OFFCURVE",
"84 -25 OFFCURVE",
"106 -25 CURVE SMOOTH",
"111 -25 OFFCURVE",
"116 -24 OFFCURVE",
"120 -22 CURVE SMOOTH"
);
},
{
closed = 1;
nodes = (
"93 31 OFFCURVE",
"92 58 OFFCURVE",
"92 85 CURVE SMOOTH",
"92 145 OFFCURVE",
"96 205 OFFCURVE",
"112 268 CURVE SMOOTH",
"125 320 OFFCURVE",
"150 372 OFFCURVE",
"200 372 CURVE SMOOTH",
"229 372 OFFCURVE",
"248 327 OFFCURVE",
"248 289 CURVE SMOOTH",
"248 214 OFFCURVE",
"168 20 OFFCURVE",
"94 3 CURVE"
);
}
);
};
layerId = "04B30934-05D4-410C-A3F8-810C0079C645";
paths = (
{
closed = 1;
nodes = (
"111 -25 OFFCURVE",
"116 -24 OFFCURVE",
"120 -22 CURVE SMOOTH",
"236 47 OFFCURVE",
"295 205 OFFCURVE",
"295 352 CURVE SMOOTH",
"295 431 OFFCURVE",
"278 508 OFFCURVE",
"243 565 CURVE",
"272 584 OFFCURVE",
"295 601 OFFCURVE",
"303 609 CURVE SMOOTH",
"314 620 OFFCURVE",
"319 628 OFFCURVE",
"319 631 CURVE SMOOTH",
"319 633 OFFCURVE",
"318 634 OFFCURVE",
"316 634 CURVE SMOOTH",
"313 634 OFFCURVE",
"306 631 OFFCURVE",
"298 625 CURVE SMOOTH",
"282 614 OFFCURVE",
"257 600 OFFCURVE",
"230 585 CURVE",
"199 624 OFFCURVE",
"160 651 OFFCURVE",
"109 660 CURVE SMOOTH",
"94 662 OFFCURVE",
"74 645 OFFCURVE",
"74 630 CURVE SMOOTH",
"74 624 OFFCURVE",
"76 618 OFFCURVE",
"83 614 CURVE SMOOTH",
"110 597 OFFCURVE",
"141 579 OFFCURVE",
"170 554 CURVE",
"139 537 OFFCURVE",
"114 521 OFFCURVE",
"98 508 CURVE SMOOTH",
"83 496 OFFCURVE",
"73 474 OFFCURVE",
"81 475 CURVE SMOOTH",
"98 478 OFFCURVE",
"146 504 OFFCURVE",
"193 533 CURVE",
"228 494 OFFCURVE",
"254 442 OFFCURVE",
"250 366 CURVE",
"233 379 OFFCURVE",
"209 388 OFFCURVE",
"183 388 CURVE SMOOTH",
"136 388 OFFCURVE",
"100 367 OFFCURVE",
"78 337 CURVE SMOOTH",
"44 289 OFFCURVE",
"30 205 OFFCURVE",
"30 127 CURVE SMOOTH",
"30 84 OFFCURVE",
"34 43 OFFCURVE",
"41 11 CURVE",
"52 -7 OFFCURVE",
"84 -25 OFFCURVE",
"106 -25 CURVE SMOOTH"
);
},
{
closed = 1;
nodes = (
"92 85 LINE SMOOTH",
"92 145 OFFCURVE",
"96 205 OFFCURVE",
"112 268 CURVE SMOOTH",
"125 320 OFFCURVE",
"150 372 OFFCURVE",
"200 372 CURVE SMOOTH",
"229 372 OFFCURVE",
"248 327 OFFCURVE",
"248 289 CURVE SMOOTH",
"248 214 OFFCURVE",
"168 20 OFFCURVE",
"94 3 CURVE"
);
}
);
width = 371;
}
);
note = eth;
unicode = 00F0;
}
{
glyphname = exclamdown;
layers = (
{
background = {
paths = (
{
closed = 1;
nodes = (
"59 -313 OFFCURVE",
"71 -308 OFFCURVE",
"84 -298 CURVE",
"84 -294 LINE",
"83 -295 OFFCURVE",
"79 -292 OFFCURVE",
"71 -284 CURVE SMOOTH",
"62 -277 OFFCURVE",
"58 -269 OFFCURVE",
"58 -259 CURVE SMOOTH",
"58 -242 OFFCURVE",
"72 -201 OFFCURVE",
"101 -138 CURVE SMOOTH",
"125 -79 OFFCURVE",
"145 -36 OFFCURVE",
"156 -7 CURVE SMOOTH",
"181 54 OFFCURVE",
"194 105 OFFCURVE",
"194 144 CURVE SMOOTH",
"194 155 OFFCURVE",
"192 161 OFFCURVE",
"188 161 CURVE SMOOTH",
"181 161 OFFCURVE",
"174 155 OFFCURVE",
"169 142 CURVE SMOOTH",
"136 57 OFFCURVE",
"117 9 OFFCURVE",
"112 -2 CURVE SMOOTH",
"47 -127 LINE SMOOTH",
"8 -198 OFFCURVE",
"-9 -238 OFFCURVE",
"-9 -249 CURVE SMOOTH",
"-9 -265 OFFCURVE",
"-3 -280 OFFCURVE",
"8 -293 CURVE SMOOTH",
"19 -306 OFFCURVE",
"32 -313 OFFCURVE",
"48 -313 CURVE SMOOTH"
);
},
{
closed = 1;
nodes = (
"249 250 OFFCURVE",
"282 273 OFFCURVE",
"282 302 CURVE SMOOTH",
"282 331 OFFCURVE",
"269 354 OFFCURVE",
"240 354 CURVE SMOOTH",
"211 354 OFFCURVE",
"178 331 OFFCURVE",
"178 302 CURVE SMOOTH",
"178 273 OFFCURVE",
"191 250 OFFCURVE",
"220 250 CURVE SMOOTH"
);
}
);
};
layerId = "04B30934-05D4-410C-A3F8-810C0079C645";
paths = (
{
closed = 1;
nodes = (
"59 -313 OFFCURVE",
"71 -308 OFFCURVE",
"84 -298 CURVE",
"84 -294 LINE",
"83 -295 OFFCURVE",
"79 -292 OFFCURVE",
"71 -284 CURVE SMOOTH",
"62 -277 OFFCURVE",
"58 -269 OFFCURVE",
"58 -259 CURVE SMOOTH",
"58 -242 OFFCURVE",
"72 -201 OFFCURVE",
"101 -138 CURVE SMOOTH",
"125 -79 OFFCURVE",
"145 -36 OFFCURVE",
"156 -7 CURVE SMOOTH",
"181 54 OFFCURVE",
"194 105 OFFCURVE",
"194 144 CURVE SMOOTH",
"194 155 OFFCURVE",
"192 161 OFFCURVE",
"188 161 CURVE SMOOTH",
"181 161 OFFCURVE",
"174 155 OFFCURVE",
"169 142 CURVE SMOOTH",
"112 -2 LINE",
"47 -127 LINE SMOOTH",
"8 -198 OFFCURVE",
"-9 -238 OFFCURVE",
"-9 -249 CURVE SMOOTH",
"-9 -265 OFFCURVE",
"-3 -280 OFFCURVE",
"8 -293 CURVE SMOOTH",
"19 -306 OFFCURVE",
"32 -313 OFFCURVE",
"48 -313 CURVE SMOOTH"
);
},
{
closed = 1;
nodes = (
"249 250 OFFCURVE",
"282 273 OFFCURVE",
"282 302 CURVE SMOOTH",
"282 331 OFFCURVE",
"269 354 OFFCURVE",
"240 354 CURVE SMOOTH",
"211 354 OFFCURVE",
"178 331 OFFCURVE",
"178 302 CURVE SMOOTH",
"178 273 OFFCURVE",
"191 250 OFFCURVE",
"220 250 CURVE SMOOTH"
);
}
);
width = 269;
}
);
note = exclamdown;
unicode = 00A1;
userData = {
KernOnSpecialSpacing = {
R = "spaced-off";
};
};
}
{
color = 5;
glyphname = icircumflex;
layers = (
{
background = {
paths = (
{
closed = 1;
nodes = (
"100 14 OFFCURVE",
"147 95 OFFCURVE",
"200 183 CURVE SMOOTH",
"216 208 OFFCURVE",
"230 232 OFFCURVE",
"245 251 CURVE SMOOTH",
"250 258 OFFCURVE",
"245 262 OFFCURVE",
"238 254 CURVE SMOOTH",
"174 177 OFFCURVE",
"101 61 OFFCURVE",
"75 14 CURVE",
"65 26 OFFCURVE",
"61 48 OFFCURVE",
"61 74 CURVE SMOOTH",
"61 115 OFFCURVE",
"71 165 OFFCURVE",
"83 197 CURVE SMOOTH",
"100 244 OFFCURVE",
"117 271 OFFCURVE",
"128 283 CURVE SMOOTH",
"138 293 OFFCURVE",
"82 328 OFFCURVE",
"72 318 CURVE SMOOTH",
"32 279 OFFCURVE",
"9 175 OFFCURVE",
"9 92 CURVE SMOOTH",
"9 62 OFFCURVE",
"12 34 OFFCURVE",
"18 14 CURVE",
"21 0 OFFCURVE",
"79 -39 OFFCURVE",
"85 -33 CURVE"
);
},
{
closed = 1;
nodes = (
"222 419 OFFCURVE",
"225 422 OFFCURVE",
"225 429 CURVE SMOOTH",
"225 438 OFFCURVE",
"210 457 OFFCURVE",
"181 484 CURVE SMOOTH",
"162 503 OFFCURVE",
"148 512 OFFCURVE",
"140 512 CURVE SMOOTH",
"131 512 OFFCURVE",
"110 501 OFFCURVE",
"79 480 CURVE SMOOTH",
"47 458 OFFCURVE",
"31 443 OFFCURVE",
"31 435 CURVE SMOOTH",
"31 431 OFFCURVE",
"34 429 OFFCURVE",
"40 429 CURVE SMOOTH",
"42 429 OFFCURVE",
"58 435 OFFCURVE",
"89 448 CURVE SMOOTH",
"118 461 OFFCURVE",
"134 470 OFFCURVE",
"141 473 CURVE",
"165 461 OFFCURVE",
"184 445 OFFCURVE",
"201 428 CURVE SMOOTH",
"207 422 OFFCURVE",
"212 419 OFFCURVE",
"215 419 CURVE SMOOTH"
);
}
);
};
components = (
{
name = idotless;
},
{
name = circumflexcomb;
transform = "{1, 0, 0, 1, 2, -52}";
}
);
layerId = "04B30934-05D4-410C-A3F8-810C0079C645";
width = 200;
}
);
note = icircumflex;
unicode = 00EE;
}
{
color = 4;
glyphname = logicalnot;
layers = (
{
background = {
paths = (
{
closed = 1;
nodes = (
"689 103 OFFCURVE",
"698 142 OFFCURVE",
"707 181 CURVE SMOOTH",
"723 248 OFFCURVE",
"744 325 OFFCURVE",
"768 378 CURVE",
"723 370 OFFCURVE",
"559 366 OFFCURVE",
"404 363 CURVE SMOOTH",
"313 361 OFFCURVE",
"214 360 OFFCURVE",
"106 359 CURVE",
"106 299 LINE",
"336 301 LINE SMOOTH",
"460 301 OFFCURVE",
"603 303 OFFCURVE",
"676 306 CURVE",
"663 278 OFFCURVE",
"651 220 OFFCURVE",
"640 169 CURVE SMOOTH",
"634 139 OFFCURVE",
"628 107 OFFCURVE",
"623 74 CURVE",
"681 62 LINE"
);
}
);
};
layerId = "04B30934-05D4-410C-A3F8-810C0079C645";
paths = (
{
closed = 1;
nodes = (
"609 83 OFFCURVE",
"618 122 OFFCURVE",
"627 161 CURVE SMOOTH",
"643 228 OFFCURVE",
"664 305 OFFCURVE",
"688 358 CURVE",
"643 350 OFFCURVE",
"479 346 OFFCURVE",
"324 341 CURVE SMOOTH",
"313 341 OFFCURVE",
"214 340 OFFCURVE",
"106 339 CURVE",
"106 279 LINE",
"336 281 LINE SMOOTH",
"380 281 OFFCURVE",
"523 283 OFFCURVE",
"596 286 CURVE",
"583 258 OFFCURVE",
"571 200 OFFCURVE",
"560 149 CURVE SMOOTH",
"554 119 OFFCURVE",
"548 87 OFFCURVE",
"543 54 CURVE",
"601 42 LINE"
);
}
);
width = 833;
}
);
note = logicalnot;
unicode = 00AC;
}
{
glyphname = micro;
layers = (
{
background = {
paths = (
{
closed = 1;
nodes = (
"73 -239 OFFCURVE",
"67 -175 OFFCURVE",
"67 -107 CURVE SMOOTH",
"67 -67 OFFCURVE",
"69 -25 OFFCURVE",
"73 17 CURVE",
"92 6 LINE",
"98 3 LINE",
"102 2 OFFCURVE",
"105 1 OFFCURVE",
"108 1 CURVE SMOOTH",
"165 -4 OFFCURVE",
"206 92 OFFCURVE",
"230 171 CURVE",
"241 118 OFFCURVE",
"262 66 OFFCURVE",
"305 27 CURVE SMOOTH",
"321 12 OFFCURVE",
"342 5 OFFCURVE",
"364 5 CURVE SMOOTH",
"379 5 OFFCURVE",
"394 8 OFFCURVE",
"409 13 CURVE SMOOTH",
"424 19 LINE SMOOTH",
"428 20 OFFCURVE",
"432 25 OFFCURVE",
"432 27 CURVE SMOOTH",
"432 28 OFFCURVE",
"432 29 OFFCURVE",
"430 29 CURVE SMOOTH",
"428 29 OFFCURVE",
"426 29 OFFCURVE",
"422 27 CURVE SMOOTH",
"416 25 OFFCURVE",
"410 23 OFFCURVE",
"404 23 CURVE SMOOTH",
"391 23 OFFCURVE",
"378 29 OFFCURVE",
"365 41 CURVE SMOOTH",
"312 89 OFFCURVE",
"276 221 OFFCURVE",
"273 288 CURVE",
"275 300 OFFCURVE",
"219 259 OFFCURVE",
"219 248 CURVE SMOOTH",
"220 229 OFFCURVE",
"223 211 OFFCURVE",
"226 192 CURVE",
"205 116 OFFCURVE",
"160 8 OFFCURVE",
"111 13 CURVE",
"93 16 OFFCURVE",
"85 42 OFFCURVE",
"85 76 CURVE SMOOTH",
"85 151 OFFCURVE",
"122 269 OFFCURVE",
"134 299 CURVE",
"136 309 OFFCURVE",
"97 356 OFFCURVE",
"92 345 CURVE SMOOTH",
"78 318 OFFCURVE",
"34 251 OFFCURVE",
"8 212 CURVE SMOOTH",
"5 208 OFFCURVE",
"9 203 OFFCURVE",
"12 207 CURVE SMOOTH",
"31 231 OFFCURVE",
"38 242 OFFCURVE",
"47 253 CURVE",
"31 208 OFFCURVE",
"20 -40 OFFCURVE",
"20 -77 CURVE SMOOTH",
"21 -157 OFFCURVE",
"31 -229 OFFCURVE",
"43 -264 CURVE SMOOTH",
"48 -282 OFFCURVE",
"61 -294 OFFCURVE",
"75 -294 CURVE SMOOTH",
"79 -294 OFFCURVE",
"83 -293 OFFCURVE",
"88 -290 CURVE"
);
}
);
};
layerId = "04B30934-05D4-410C-A3F8-810C0079C645";
paths = (
{
closed = 1;
nodes = (
"79 -294 OFFCURVE",
"83 -293 OFFCURVE",
"88 -290 CURVE",
"73 -239 OFFCURVE",
"67 -175 OFFCURVE",
"67 -107 CURVE SMOOTH",
"67 -67 OFFCURVE",
"69 -25 OFFCURVE",
"73 17 CURVE",
"92 6 LINE",
"98 3 LINE",
"102 2 OFFCURVE",
"105 1 OFFCURVE",
"108 1 CURVE SMOOTH",
"165 -4 OFFCURVE",
"206 92 OFFCURVE",
"230 171 CURVE",
"241 118 OFFCURVE",
"262 66 OFFCURVE",
"305 27 CURVE SMOOTH",
"321 12 OFFCURVE",
"342 5 OFFCURVE",
"364 5 CURVE SMOOTH",
"379 5 OFFCURVE",
"394 8 OFFCURVE",
"409 13 CURVE SMOOTH",
"424 19 LINE SMOOTH",
"428 20 OFFCURVE",
"432 25 OFFCURVE",
"432 27 CURVE SMOOTH",
"432 28 OFFCURVE",
"432 29 OFFCURVE",
"430 29 CURVE SMOOTH",
"428 29 OFFCURVE",
"426 29 OFFCURVE",
"422 27 CURVE SMOOTH",
"416 25 OFFCURVE",
"410 23 OFFCURVE",
"404 23 CURVE SMOOTH",
"391 23 OFFCURVE",
"378 29 OFFCURVE",
"365 41 CURVE SMOOTH",
"312 89 OFFCURVE",
"276 221 OFFCURVE",
"273 288 CURVE",
"275 300 OFFCURVE",
"219 259 OFFCURVE",
"219 248 CURVE SMOOTH",
"220 229 OFFCURVE",
"223 211 OFFCURVE",
"226 192 CURVE",
"205 116 OFFCURVE",
"160 8 OFFCURVE",
"111 13 CURVE SMOOTH",
"93 16 OFFCURVE",
"85 42 OFFCURVE",
"85 76 CURVE SMOOTH",
"85 151 OFFCURVE",
"122 269 OFFCURVE",
"134 299 CURVE",
"136 309 OFFCURVE",
"97 356 OFFCURVE",
"92 345 CURVE SMOOTH",
"78 318 OFFCURVE",
"34 251 OFFCURVE",
"8 212 CURVE SMOOTH",
"5 208 OFFCURVE",
"9 203 OFFCURVE",
"12 207 CURVE SMOOTH",
"47 253 LINE",
"31 208 OFFCURVE",
"20 -40 OFFCURVE",
"20 -77 CURVE SMOOTH",
"21 -157 OFFCURVE",
"31 -229 OFFCURVE",
"43 -264 CURVE SMOOTH",
"48 -282 OFFCURVE",
"61 -294 OFFCURVE",
"75 -294 CURVE SMOOTH"
);
}
);
width = 364;
}
);
note = mu;
unicode = 00B5;
}
{
glyphname = onequarter;
layers = (
{
background = {
paths = (
{
closed = 1;
nodes = (
"162 109 OFFCURVE",
"163 111 OFFCURVE",
"163 114 CURVE SMOOTH",
"163 116 OFFCURVE",
"162 120 OFFCURVE",
"160 126 CURVE SMOOTH",
"158 131 OFFCURVE",
"157 134 OFFCURVE",
"157 137 CURVE SMOOTH",
"157 165 OFFCURVE",
"197 231 OFFCURVE",
"278 336 CURVE SMOOTH",
"347 425 OFFCURVE",
"402 491 OFFCURVE",
"441 532 CURVE SMOOTH",
"442 533 OFFCURVE",
"442 533 OFFCURVE",
"442 534 CURVE SMOOTH",
"442 537 OFFCURVE",
"439 540 OFFCURVE",
"434 542 CURVE SMOOTH",
"429 545 OFFCURVE",
"424 546 OFFCURVE",
"420 546 CURVE SMOOTH",
"415 546 LINE",
"393 537 OFFCURVE",
"342 475 OFFCURVE",
"263 358 CURVE SMOOTH",
"182 240 OFFCURVE",
"141 166 OFFCURVE",
"141 137 CURVE SMOOTH",
"141 130 OFFCURVE",
"143 124 OFFCURVE",
"146 119 CURVE SMOOTH",
"151 112 OFFCURVE",
"155 109 OFFCURVE",
"160 109 CURVE SMOOTH"
);
},
{
closed = 1;
nodes = (
"43 339 OFFCURVE",
"44 340 OFFCURVE",
"45 341 CURVE SMOOTH",
"70 358 OFFCURVE",
"96 367 OFFCURVE",
"123 367 CURVE SMOOTH",
"126 367 OFFCURVE",
"129 367 OFFCURVE",
"132 366 CURVE",
"136 366 OFFCURVE",
"138 365 OFFCURVE",
"141 365 CURVE SMOOTH",
"146 365 OFFCURVE",
"149 368 OFFCURVE",
"149 374 CURVE SMOOTH",
"149 381 OFFCURVE",
"140 384 OFFCURVE",
"123 384 CURVE SMOOTH",
"115 384 OFFCURVE",
"107 383 OFFCURVE",
"99 382 CURVE",
"94 391 OFFCURVE",
"92 404 OFFCURVE",
"92 421 CURVE SMOOTH",
"92 450 OFFCURVE",
"101 491 OFFCURVE",
"120 545 CURVE SMOOTH",
"139 598 OFFCURVE",
"148 634 OFFCURVE",
"148 652 CURVE SMOOTH",
"148 659 OFFCURVE",
"144 662 OFFCURVE",
"135 662 CURVE SMOOTH",
"127 662 OFFCURVE",
"120 656 OFFCURVE",
"113 643 CURVE SMOOTH",
"109 634 OFFCURVE",
"101 624 OFFCURVE",
"89 615 CURVE SMOOTH",
"81 609 OFFCURVE",
"70 602 OFFCURVE",
"56 594 CURVE SMOOTH",
"51 591 OFFCURVE",
"48 587 OFFCURVE",
"48 584 CURVE SMOOTH",
"48 581 OFFCURVE",
"50 580 OFFCURVE",
"53 580 CURVE SMOOTH",
"62 580 OFFCURVE",
"79 590 OFFCURVE",
"104 609 CURVE",
"87 536 OFFCURVE",
"78 474 OFFCURVE",
"78 418 CURVE SMOOTH",
"78 401 OFFCURVE",
"80 388 OFFCURVE",
"83 378 CURVE",
"74 375 OFFCURVE",
"65 371 OFFCURVE",
"54 365 CURVE SMOOTH",
"39 358 OFFCURVE",
"31 352 OFFCURVE",
"31 347 CURVE SMOOTH",
"31 342 OFFCURVE",
"34 339 OFFCURVE",
"40 339 CURVE SMOOTH"
);
},
{
closed = 1;
nodes = (
"519 14 OFFCURVE",
"525 16 OFFCURVE",
"532 20 CURVE SMOOTH",
"539 23 OFFCURVE",
"543 27 OFFCURVE",
"543 32 CURVE SMOOTH",
"543 43 OFFCURVE",
"542 62 OFFCURVE",
"535 90 CURVE SMOOTH",
"529 118 OFFCURVE",
"526 138 OFFCURVE",
"526 150 CURVE",
"551 143 OFFCURVE",
"572 142 OFFCURVE",
"591 142 CURVE SMOOTH",
"609 142 OFFCURVE",
"627 146 OFFCURVE",
"646 153 CURVE",
"667 164 OFFCURVE",
"678 179 OFFCURVE",
"678 196 CURVE SMOOTH",
"678 212 OFFCURVE",
"669 224 OFFCURVE",
"652 232 CURVE SMOOTH",
"637 239 OFFCURVE",
"622 242 OFFCURVE",
"606 242 CURVE SMOOTH",
"590 242 OFFCURVE",
"575 239 OFFCURVE",
"561 234 CURVE SMOOTH",
"544 227 OFFCURVE",
"536 216 OFFCURVE",
"536 202 CURVE SMOOTH",
"536 187 OFFCURVE",
"544 179 OFFCURVE",
"561 179 CURVE SMOOTH",
"569 179 OFFCURVE",
"577 180 OFFCURVE",
"585 183 CURVE SMOOTH",
"597 186 OFFCURVE",
"603 190 OFFCURVE",
"603 195 CURVE SMOOTH",
"603 201 OFFCURVE",
"600 204 OFFCURVE",
"595 204 CURVE SMOOTH",
"592 204 OFFCURVE",
"587 202 OFFCURVE",
"580 199 CURVE SMOOTH",
"572 196 OFFCURVE",
"567 195 OFFCURVE",
"562 195 CURVE SMOOTH",
"556 195 OFFCURVE",
"553 197 OFFCURVE",
"553 202 CURVE SMOOTH",
"553 210 OFFCURVE",
"560 216 OFFCURVE",
"574 220 CURVE SMOOTH",
"585 223 OFFCURVE",
"595 224 OFFCURVE",
"606 224 CURVE SMOOTH",
"642 224 OFFCURVE",
"660 215 OFFCURVE",
"660 196 CURVE SMOOTH",
"660 177 OFFCURVE",
"633 168 OFFCURVE",
"580 168 CURVE SMOOTH",
"563 168 OFFCURVE",
"545 170 OFFCURVE",
"525 173 CURVE",
"525 254 OFFCURVE",
"538 319 OFFCURVE",
"563 370 CURVE",
"564 371 OFFCURVE",
"565 373 OFFCURVE",
"565 375 CURVE SMOOTH",
"565 380 OFFCURVE",
"562 383 OFFCURVE",
"556 383 CURVE SMOOTH",
"554 383 OFFCURVE",
"552 382 OFFCURVE",
"549 379 CURVE",
"534 356 OFFCURVE",
"524 325 OFFCURVE",
"513 282 CURVE SMOOTH",
"506 247 OFFCURVE",
"500 214 OFFCURVE",
"496 179 CURVE",
"443 190 OFFCURVE",
"407 196 OFFCURVE",
"386 196 CURVE SMOOTH",
"381 196 LINE",
"420 237 OFFCURVE",
"450 267 OFFCURVE",
"470 287 CURVE SMOOTH",
"502 317 OFFCURVE",
"518 335 OFFCURVE",
"518 341 CURVE SMOOTH",
"518 344 OFFCURVE",
"516 346 OFFCURVE",
"511 346 CURVE SMOOTH",
"507 346 OFFCURVE",
"503 345 OFFCURVE",
"500 342 CURVE SMOOTH",
"484 327 OFFCURVE",
"472 316 OFFCURVE",
"465 311 CURVE",
"391 240 LINE SMOOTH",
"368 217 OFFCURVE",
"353 206 OFFCURVE",
"346 203 CURVE SMOOTH",
"336 198 OFFCURVE",
"331 193 OFFCURVE",
"331 188 CURVE SMOOTH",
"331 184 OFFCURVE",
"333 181 OFFCURVE",
"337 178 CURVE SMOOTH",
"342 175 OFFCURVE",
"346 173 OFFCURVE",
"349 173 CURVE SMOOTH",
"353 173 OFFCURVE",
"359 174 OFFCURVE",
"366 177 CURVE SMOOTH",
"371 179 OFFCURVE",
"375 179 OFFCURVE",
"378 179 CURVE SMOOTH",
"380 179 OFFCURVE",
"382 179 OFFCURVE",
"384 179 CURVE SMOOTH",
"405 179 OFFCURVE",
"442 172 OFFCURVE",
"494 159 CURVE",
"494 123 LINE SMOOTH",
"494 72 OFFCURVE",
"498 37 OFFCURVE",
"507 18 CURVE SMOOTH",
"508 15 OFFCURVE",
"511 14 OFFCURVE",
"514 14 CURVE SMOOTH"
);
}
);
};
layerId = "04B30934-05D4-410C-A3F8-810C0079C645";
paths = (
{
closed = 1;
nodes = (
"162 109 OFFCURVE",
"163 111 OFFCURVE",
"163 114 CURVE SMOOTH",
"163 116 OFFCURVE",
"162 120 OFFCURVE",
"160 126 CURVE SMOOTH",
"158 131 OFFCURVE",
"157 134 OFFCURVE",
"157 137 CURVE SMOOTH",
"157 165 OFFCURVE",
"197 231 OFFCURVE",
"278 336 CURVE SMOOTH",
"347 425 OFFCURVE",
"402 491 OFFCURVE",
"441 532 CURVE SMOOTH",
"442 533 OFFCURVE",
"442 533 OFFCURVE",
"442 534 CURVE SMOOTH",
"442 537 OFFCURVE",
"439 540 OFFCURVE",
"434 542 CURVE SMOOTH",
"429 545 OFFCURVE",
"424 546 OFFCURVE",
"420 546 CURVE SMOOTH",
"415 546 LINE",
"393 537 OFFCURVE",
"342 475 OFFCURVE",
"263 358 CURVE SMOOTH",
"182 240 OFFCURVE",
"141 166 OFFCURVE",
"141 137 CURVE SMOOTH",
"141 130 OFFCURVE",
"143 124 OFFCURVE",
"146 119 CURVE SMOOTH",
"151 112 OFFCURVE",
"155 109 OFFCURVE",
"160 109 CURVE SMOOTH"
);
},
{
closed = 1;
nodes = (
"43 339 OFFCURVE",
"44 340 OFFCURVE",
"45 341 CURVE SMOOTH",
"70 358 OFFCURVE",
"96 367 OFFCURVE",
"123 367 CURVE SMOOTH",
"126 367 OFFCURVE",
"129 367 OFFCURVE",
"132 366 CURVE",
"136 366 OFFCURVE",
"138 365 OFFCURVE",
"141 365 CURVE SMOOTH",
"146 365 OFFCURVE",
"149 368 OFFCURVE",
"149 374 CURVE SMOOTH",
"149 381 OFFCURVE",
"140 384 OFFCURVE",
"123 384 CURVE SMOOTH",
"115 384 OFFCURVE",
"107 383 OFFCURVE",
"99 382 CURVE",
"94 391 OFFCURVE",
"92 404 OFFCURVE",
"92 421 CURVE SMOOTH",
"92 450 OFFCURVE",
"101 491 OFFCURVE",
"120 545 CURVE SMOOTH",
"139 598 OFFCURVE",
"148 634 OFFCURVE",
"148 652 CURVE SMOOTH",
"148 659 OFFCURVE",
"144 662 OFFCURVE",
"135 662 CURVE SMOOTH",
"127 662 OFFCURVE",
"120 656 OFFCURVE",
"113 643 CURVE SMOOTH",
"109 634 OFFCURVE",
"101 624 OFFCURVE",
"89 615 CURVE SMOOTH",
"81 609 OFFCURVE",
"70 602 OFFCURVE",
"56 594 CURVE SMOOTH",
"51 591 OFFCURVE",
"48 587 OFFCURVE",
"48 584 CURVE SMOOTH",
"48 581 OFFCURVE",
"50 580 OFFCURVE",
"53 580 CURVE SMOOTH",
"62 580 OFFCURVE",
"79 590 OFFCURVE",
"104 609 CURVE",
"87 536 OFFCURVE",
"78 474 OFFCURVE",
"78 418 CURVE SMOOTH",
"78 401 OFFCURVE",
"80 388 OFFCURVE",
"83 378 CURVE",
"74 375 OFFCURVE",
"65 371 OFFCURVE",
"54 365 CURVE SMOOTH",
"39 358 OFFCURVE",
"31 352 OFFCURVE",
"31 347 CURVE SMOOTH",
"31 342 OFFCURVE",
"34 339 OFFCURVE",
"40 339 CURVE SMOOTH"
);
},
{
closed = 1;
nodes = (
"519 14 OFFCURVE",
"525 16 OFFCURVE",
"532 20 CURVE SMOOTH",
"539 23 OFFCURVE",
"543 27 OFFCURVE",
"543 32 CURVE SMOOTH",
"543 43 OFFCURVE",
"542 62 OFFCURVE",
"535 90 CURVE SMOOTH",
"529 118 OFFCURVE",
"526 138 OFFCURVE",
"526 150 CURVE",
"551 143 OFFCURVE",
"572 142 OFFCURVE",
"591 142 CURVE SMOOTH",
"632 142 OFFCURVE",
"678 160 OFFCURVE",
"678 196 CURVE SMOOTH",
"678 229 OFFCURVE",
"637 242 OFFCURVE",
"606 242 CURVE SMOOTH",
"580 242 OFFCURVE",
"536 234 OFFCURVE",
"536 202 CURVE SMOOTH",
"536 187 OFFCURVE",
"544 179 OFFCURVE",
"561 179 CURVE SMOOTH",
"573 179 OFFCURVE",
"603 185 OFFCURVE",
"603 195 CURVE SMOOTH",
"603 201 OFFCURVE",
"600 204 OFFCURVE",
"595 204 CURVE SMOOTH",
"591 204 OFFCURVE",
"574 195 OFFCURVE",
"562 195 CURVE SMOOTH",
"556 195 OFFCURVE",
"553 197 OFFCURVE",
"553 202 CURVE SMOOTH",
"553 219 OFFCURVE",
"587 224 OFFCURVE",
"606 224 CURVE SMOOTH",
"642 224 OFFCURVE",
"660 215 OFFCURVE",
"660 196 CURVE SMOOTH",
"660 177 OFFCURVE",
"633 168 OFFCURVE",
"580 168 CURVE SMOOTH",
"563 168 OFFCURVE",
"545 170 OFFCURVE",
"525 173 CURVE",
"525 254 OFFCURVE",
"538 319 OFFCURVE",
"563 370 CURVE",
"564 371 OFFCURVE",
"565 373 OFFCURVE",
"565 375 CURVE SMOOTH",
"565 380 OFFCURVE",
"562 383 OFFCURVE",
"556 383 CURVE SMOOTH",
"554 383 OFFCURVE",
"552 382 OFFCURVE",
"549 379 CURVE",
"534 356 OFFCURVE",
"524 325 OFFCURVE",
"513 282 CURVE SMOOTH",
"506 247 OFFCURVE",
"500 214 OFFCURVE",
"496 179 CURVE",
"443 190 OFFCURVE",
"407 196 OFFCURVE",
"386 196 CURVE SMOOTH",
"381 196 LINE",
"420 237 OFFCURVE",
"450 267 OFFCURVE",
"470 287 CURVE SMOOTH",
"502 317 OFFCURVE",
"518 335 OFFCURVE",
"518 341 CURVE SMOOTH",
"518 344 OFFCURVE",
"516 346 OFFCURVE",
"511 346 CURVE SMOOTH",
"507 346 OFFCURVE",
"503 345 OFFCURVE",
"500 342 CURVE SMOOTH",
"484 327 OFFCURVE",
"472 316 OFFCURVE",
"465 311 CURVE",
"391 240 LINE SMOOTH",
"368 217 OFFCURVE",
"353 206 OFFCURVE",
"346 203 CURVE SMOOTH",
"336 198 OFFCURVE",
"331 193 OFFCURVE",
"331 188 CURVE SMOOTH",
"331 184 OFFCURVE",
"333 181 OFFCURVE",
"337 178 CURVE SMOOTH",
"342 175 OFFCURVE",
"346 173 OFFCURVE",
"349 173 CURVE SMOOTH",
"353 173 OFFCURVE",
"359 174 OFFCURVE",
"366 177 CURVE SMOOTH",
"371 179 OFFCURVE",
"375 179 OFFCURVE",
"378 179 CURVE SMOOTH",
"384 179 LINE SMOOTH",
"405 179 OFFCURVE",
"442 172 OFFCURVE",
"494 159 CURVE",
"494 123 LINE SMOOTH",
"494 72 OFFCURVE",
"498 37 OFFCURVE",
"507 18 CURVE SMOOTH",
"508 15 OFFCURVE",
"511 14 OFFCURVE",
"514 14 CURVE SMOOTH"
);
}
);
width = 714;
}
);
note = onequarter;
unicode = 00BC;
userData = {
KernOnSpecialSpacing = {
};
};
}
{
glyphname = onesuperior;
layers = (
{
background = {
paths = (
{
closed = 1;
nodes = (
"43 339 OFFCURVE",
"44 340 OFFCURVE",
"45 341 CURVE SMOOTH",
"70 358 OFFCURVE",
"96 367 OFFCURVE",
"123 367 CURVE SMOOTH",
"126 367 OFFCURVE",
"129 367 OFFCURVE",
"132 366 CURVE",
"136 366 OFFCURVE",
"138 365 OFFCURVE",
"141 365 CURVE SMOOTH",
"146 365 OFFCURVE",
"149 368 OFFCURVE",
"149 374 CURVE SMOOTH",
"149 381 OFFCURVE",
"140 384 OFFCURVE",
"123 384 CURVE SMOOTH",
"115 384 OFFCURVE",
"107 383 OFFCURVE",
"99 382 CURVE",
"94 391 OFFCURVE",
"92 404 OFFCURVE",
"92 421 CURVE SMOOTH",
"92 450 OFFCURVE",
"101 491 OFFCURVE",
"120 545 CURVE SMOOTH",
"139 598 OFFCURVE",
"148 634 OFFCURVE",
"148 652 CURVE SMOOTH",
"148 659 OFFCURVE",
"144 662 OFFCURVE",
"135 662 CURVE SMOOTH",
"127 662 OFFCURVE",
"120 656 OFFCURVE",
"113 643 CURVE SMOOTH",
"109 634 OFFCURVE",
"101 624 OFFCURVE",
"89 615 CURVE SMOOTH",
"81 609 OFFCURVE",
"70 602 OFFCURVE",
"56 594 CURVE SMOOTH",
"51 591 OFFCURVE",
"48 587 OFFCURVE",
"48 584 CURVE SMOOTH",
"48 581 OFFCURVE",
"50 580 OFFCURVE",
"53 580 CURVE SMOOTH",
"62 580 OFFCURVE",
"79 590 OFFCURVE",
"104 609 CURVE",
"87 536 OFFCURVE",
"78 474 OFFCURVE",
"78 418 CURVE SMOOTH",
"78 401 OFFCURVE",
"80 388 OFFCURVE",
"83 378 CURVE",
"74 375 OFFCURVE",
"65 371 OFFCURVE",
"54 365 CURVE SMOOTH",
"39 358 OFFCURVE",
"31 352 OFFCURVE",
"31 347 CURVE SMOOTH",
"31 342 OFFCURVE",
"34 339 OFFCURVE",
"40 339 CURVE SMOOTH"
);
}
);
};
layerId = "04B30934-05D4-410C-A3F8-810C0079C645";
paths = (
{
closed = 1;
nodes = (
"43 339 OFFCURVE",
"44 340 OFFCURVE",
"45 341 CURVE SMOOTH",
"70 358 OFFCURVE",
"96 367 OFFCURVE",
"123 367 CURVE SMOOTH",
"126 367 OFFCURVE",
"129 367 OFFCURVE",
"132 366 CURVE",
"136 366 OFFCURVE",
"138 365 OFFCURVE",
"141 365 CURVE SMOOTH",
"146 365 OFFCURVE",
"149 368 OFFCURVE",
"149 374 CURVE SMOOTH",
"149 381 OFFCURVE",
"140 384 OFFCURVE",
"123 384 CURVE SMOOTH",
"115 384 OFFCURVE",
"107 383 OFFCURVE",
"99 382 CURVE",
"94 391 OFFCURVE",
"92 404 OFFCURVE",
"92 421 CURVE SMOOTH",
"92 450 OFFCURVE",
"101 491 OFFCURVE",
"120 545 CURVE SMOOTH",
"139 598 OFFCURVE",
"148 634 OFFCURVE",
"148 652 CURVE SMOOTH",
"148 659 OFFCURVE",
"144 662 OFFCURVE",
"135 662 CURVE SMOOTH",
"127 662 OFFCURVE",
"120 656 OFFCURVE",
"113 643 CURVE SMOOTH",
"109 634 OFFCURVE",
"101 624 OFFCURVE",
"89 615 CURVE SMOOTH",
"81 609 OFFCURVE",
"70 602 OFFCURVE",
"56 594 CURVE SMOOTH",
"51 591 OFFCURVE",
"48 587 OFFCURVE",
"48 584 CURVE SMOOTH",
"48 581 OFFCURVE",
"50 580 OFFCURVE",
"53 580 CURVE SMOOTH",
"62 580 OFFCURVE",
"79 590 OFFCURVE",
"104 609 CURVE",
"87 536 OFFCURVE",
"78 474 OFFCURVE",
"78 418 CURVE SMOOTH",
"78 401 OFFCURVE",
"80 388 OFFCURVE",
"83 378 CURVE",
"74 375 OFFCURVE",
"65 371 OFFCURVE",
"54 365 CURVE SMOOTH",
"39 358 OFFCURVE",
"31 352 OFFCURVE",
"31 347 CURVE SMOOTH",
"31 342 OFFCURVE",
"34 339 OFFCURVE",
"40 339 CURVE SMOOTH"
);
}
);
width = 209;
}
);
note = onesuperior;
unicode = 00B9;
userData = {
KernOnSpecialSpacing = {
L = superiors;
R = superiors;
};
};
}
{
color = 3;
glyphname = ordfeminine;
layers = (
{
background = {
paths = (
{
closed = 1;
nodes = (
"152 412 OFFCURVE",
"202 479 OFFCURVE",
"228 531 CURVE",
"235 492 OFFCURVE",
"248 456 OFFCURVE",
"279 429 CURVE SMOOTH",
"289 419 OFFCURVE",
"302 415 OFFCURVE",
"316 415 CURVE SMOOTH",
"329 415 OFFCURVE",
"343 418 OFFCURVE",
"356 424 CURVE SMOOTH",
"360 425 OFFCURVE",
"362 428 OFFCURVE",
"362 430 CURVE SMOOTH",
"362 431 OFFCURVE",
"362 431 OFFCURVE",
"361 431 CURVE SMOOTH",
"360 431 OFFCURVE",
"358 430 OFFCURVE",
"355 429 CURVE SMOOTH",
"352 427 OFFCURVE",
"348 427 OFFCURVE",
"344 427 CURVE SMOOTH",
"336 427 OFFCURVE",
"327 430 OFFCURVE",
"318 438 CURVE SMOOTH",
"284 470 OFFCURVE",
"261 554 OFFCURVE",
"258 599 CURVE",
"260 606 OFFCURVE",
"223 579 OFFCURVE",
"223 573 CURVE SMOOTH",
"226 542 LINE",
"201 493 OFFCURVE",
"145 421 OFFCURVE",
"115 421 CURVE SMOOTH",
"110 421 OFFCURVE",
"108 426 OFFCURVE",
"108 434 CURVE SMOOTH",
"108 444 OFFCURVE",
"111 459 OFFCURVE",
"116 477 CURVE SMOOTH",
"130 528 OFFCURVE",
"164 629 OFFCURVE",
"233 640 CURVE SMOOTH",
"238 641 OFFCURVE",
"241 637 OFFCURVE",
"241 629 CURVE SMOOTH",
"241 614 OFFCURVE",
"227 602 OFFCURVE",
"212 602 CURVE SMOOTH",
"207 602 OFFCURVE",
"205 598 OFFCURVE",
"218 598 CURVE SMOOTH",
"222 598 OFFCURVE",
"225 598 OFFCURVE",
"229 599 CURVE SMOOTH",
"249 605 OFFCURVE",
"260 617 OFFCURVE",
"260 627 CURVE SMOOTH",
"260 641 OFFCURVE",
"239 652 OFFCURVE",
"217 652 CURVE SMOOTH",
"134 647 OFFCURVE",
"98 572 OFFCURVE",
"79 520 CURVE SMOOTH",
"76 509 OFFCURVE",
"73 491 OFFCURVE",
"73 474 CURVE SMOOTH",
"73 450 OFFCURVE",
"78 427 OFFCURVE",
"95 422 CURVE",
"102 417 OFFCURVE",
"111 412 OFFCURVE",
"114 412 CURVE SMOOTH"
);
}
);
};
layerId = "04B30934-05D4-410C-A3F8-810C0079C645";
paths = (
{
closed = 1;
nodes = (
"150 402 OFFCURVE",
"198 465 OFFCURVE",
"227 519 CURVE",
"235 480 OFFCURVE",
"250 445 OFFCURVE",
"277 422 CURVE",
"290 408 OFFCURVE",
"302 405 OFFCURVE",
"316 405 CURVE SMOOTH",
"329 405 OFFCURVE",
"342 408 OFFCURVE",
"357 415 CURVE",
"362 416 OFFCURVE",
"365 425 OFFCURVE",
"365 430 CURVE",
"362 430 LINE",
"362 431 OFFCURVE",
"362 431 OFFCURVE",
"361 431 CURVE",
"361 441 LINE",
"361 441 OFFCURVE",
"358 440 OFFCURVE",
"357 439 CURVE",
"356 439 OFFCURVE",
"355 439 OFFCURVE",
"354 438 CURVE SMOOTH",
"353 437 LINE",
"353 437 OFFCURVE",
"348 437 OFFCURVE",
"344 437 CURVE SMOOTH",
"335 437 OFFCURVE",
"326 440 OFFCURVE",
"320 445 CURVE SMOOTH",
"283 480 OFFCURVE",
"264 557 OFFCURVE",
"261 597 CURVE",
"269 627 OFFCURVE",
"220 591 OFFCURVE",
"220 573 CURVE",
"223 545 LINE",
"199 500 OFFCURVE",
"146 431 OFFCURVE",
"115 431 CURVE SMOOTH",
"111 431 OFFCURVE",
"111 431 OFFCURVE",
"111 434 CURVE SMOOTH",
"111 442 OFFCURVE",
"114 455 OFFCURVE",
"119 474 CURVE SMOOTH",
"132 522 OFFCURVE",
"163 619 OFFCURVE",
"234 630 CURVE SMOOTH",
"238 631 OFFCURVE",
"238 631 OFFCURVE",
"238 629 CURVE SMOOTH",
"238 621 OFFCURVE",
"227 612 OFFCURVE",
"212 612 CURVE SMOOTH",
"203 612 OFFCURVE",
"199 588 OFFCURVE",
"218 588 CURVE SMOOTH",
"222 588 OFFCURVE",
"225 588 OFFCURVE",
"230 589 CURVE SMOOTH",
"251 596 OFFCURVE",
"263 611 OFFCURVE",
"263 627 CURVE SMOOTH",
"263 649 OFFCURVE",
"243 662 OFFCURVE",
"217 662 CURVE SMOOTH",
"134 657 OFFCURVE",
"96 578 OFFCURVE",
"76 523 CURVE SMOOTH",
"73 513 OFFCURVE",
"70 492 OFFCURVE",
"70 474 CURVE SMOOTH",
"70 446 OFFCURVE",
"78 415 OFFCURVE",
"96 412 CURVE",
"105 406 OFFCURVE",
"112 402 OFFCURVE",
"114 402 CURVE SMOOTH"
);
}
);
width = 389;
}
);
note = ordfeminine;
unicode = 00AA;
userData = {
KernOnSpecialSpacing = {
L = superiors;
R = superiors;
};
};
}
{
glyphname = paragraph;
layers = (
{
background = {
paths = (
{
closed = 1;
nodes = (
"447 -249 OFFCURVE",
"451 -247 OFFCURVE",
"456 -244 CURVE",
"437 -155 OFFCURVE",
"429 -41 OFFCURVE",
"429 78 CURVE SMOOTH",
"429 248 OFFCURVE",
"446 429 OFFCURVE",
"472 569 CURVE",
"492 566 OFFCURVE",
"510 563 OFFCURVE",
"529 559 CURVE",
"504 439 OFFCURVE",
"490 282 OFFCURVE",
"490 130 CURVE SMOOTH",
"490 6 OFFCURVE",
"499 -114 OFFCURVE",
"522 -205 CURVE SMOOTH",
"528 -231 OFFCURVE",
"542 -249 OFFCURVE",
"557 -249 CURVE SMOOTH",
"562 -249 OFFCURVE",
"566 -247 OFFCURVE",
"571 -244 CURVE",
"555 -170 OFFCURVE",
"549 -79 OFFCURVE",
"549 18 CURVE SMOOTH",
"549 187 OFFCURVE",
"568 374 OFFCURVE",
"588 519 CURVE",
"589 522 OFFCURVE",
"590 537 OFFCURVE",
"590 541 CURVE",
"602 540 OFFCURVE",
"610 549 OFFCURVE",
"610 560 CURVE SMOOTH",
"610 572 OFFCURVE",
"600 586 OFFCURVE",
"576 593 CURVE SMOOTH",
"540 602 OFFCURVE",
"488 606 OFFCURVE",
"438 606 CURVE SMOOTH",
"326 606 OFFCURVE",
"212 584 OFFCURVE",
"148 526 CURVE SMOOTH",
"104 486 OFFCURVE",
"84 429 OFFCURVE",
"84 379 CURVE SMOOTH",
"84 301 OFFCURVE",
"140 234 OFFCURVE",
"227 234 CURVE SMOOTH",
"296 234 OFFCURVE",
"389 293 OFFCURVE",
"389 368 CURVE SMOOTH",
"389 410 OFFCURVE",
"361 446 OFFCURVE",
"313 446 CURVE SMOOTH",
"262 446 OFFCURVE",
"193 409 OFFCURVE",
"193 356 CURVE SMOOTH",
"193 316 OFFCURVE",
"229 285 OFFCURVE",
"266 285 CURVE SMOOTH",
"295 285 OFFCURVE",
"315 308 OFFCURVE",
"315 334 CURVE SMOOTH",
"315 363 OFFCURVE",
"288 389 OFFCURVE",
"263 389 CURVE SMOOTH",
"253 389 OFFCURVE",
"243 385 OFFCURVE",
"231 376 CURVE SMOOTH",
"227 373 OFFCURVE",
"224 369 OFFCURVE",
"222 365 CURVE SMOOTH",
"219 360 OFFCURVE",
"223 361 OFFCURVE",
"226 366 CURVE SMOOTH",
"227 368 OFFCURVE",
"228 370 OFFCURVE",
"233 373 CURVE",
"241 379 OFFCURVE",
"249 382 OFFCURVE",
"256 382 CURVE SMOOTH",
"273 382 OFFCURVE",
"295 364 OFFCURVE",
"295 339 CURVE SMOOTH",
"295 316 OFFCURVE",
"277 295 OFFCURVE",
"254 295 CURVE SMOOTH",
"232 295 OFFCURVE",
"199 320 OFFCURVE",
"199 349 CURVE SMOOTH",
"199 389 OFFCURVE",
"241 411 OFFCURVE",
"275 411 CURVE SMOOTH",
"316 411 OFFCURVE",
"356 365 OFFCURVE",
"356 326 CURVE SMOOTH",
"356 289 OFFCURVE",
"316 268 OFFCURVE",
"281 268 CURVE SMOOTH",
"261 268 OFFCURVE",
"240 274 OFFCURVE",
"214 284 CURVE SMOOTH",
"153 307 OFFCURVE",
"124 349 OFFCURVE",
"124 394 CURVE SMOOTH",
"124 433 OFFCURVE",
"145 475 OFFCURVE",
"185 512 CURVE SMOOTH",
"224 547 OFFCURVE",
"302 575 OFFCURVE",
"366 575 CURVE SMOOTH",
"382 575 OFFCURVE",
"401 574 OFFCURVE",
"421 573 CURVE",
"404 436 OFFCURVE",
"397 228 OFFCURVE",
"397 58 CURVE SMOOTH",
"397 -59 OFFCURVE",
"400 -159 OFFCURVE",
"407 -205 CURVE",
"413 -231 OFFCURVE",
"427 -249 OFFCURVE",
"442 -249 CURVE SMOOTH"
);
}
);
};
layerId = "04B30934-05D4-410C-A3F8-810C0079C645";
paths = (
{
closed = 1;
nodes = (
"447 -249 OFFCURVE",
"451 -247 OFFCURVE",
"456 -244 CURVE",
"437 -155 OFFCURVE",
"429 -41 OFFCURVE",
"429 78 CURVE SMOOTH",
"429 248 OFFCURVE",
"446 429 OFFCURVE",
"472 569 CURVE",
"529 559 LINE",
"504 439 OFFCURVE",
"490 282 OFFCURVE",
"490 130 CURVE SMOOTH",
"490 6 OFFCURVE",
"499 -114 OFFCURVE",
"522 -205 CURVE SMOOTH",
"528 -231 OFFCURVE",
"542 -249 OFFCURVE",
"557 -249 CURVE SMOOTH",
"562 -249 OFFCURVE",
"566 -247 OFFCURVE",
"571 -244 CURVE",
"555 -170 OFFCURVE",
"549 -79 OFFCURVE",
"549 18 CURVE SMOOTH",
"549 187 OFFCURVE",
"568 374 OFFCURVE",
"588 519 CURVE",
"589 522 OFFCURVE",
"590 537 OFFCURVE",
"590 541 CURVE",
"602 540 OFFCURVE",
"610 549 OFFCURVE",
"610 560 CURVE SMOOTH",
"610 572 OFFCURVE",
"600 586 OFFCURVE",
"576 593 CURVE SMOOTH",
"540 602 OFFCURVE",
"488 606 OFFCURVE",
"438 606 CURVE SMOOTH",
"326 606 OFFCURVE",
"212 584 OFFCURVE",
"148 526 CURVE SMOOTH",
"104 486 OFFCURVE",
"84 429 OFFCURVE",
"84 379 CURVE SMOOTH",
"84 301 OFFCURVE",
"140 234 OFFCURVE",
"227 234 CURVE SMOOTH",
"296 234 OFFCURVE",
"389 293 OFFCURVE",
"389 368 CURVE SMOOTH",
"389 410 OFFCURVE",
"361 446 OFFCURVE",
"313 446 CURVE SMOOTH",
"262 446 OFFCURVE",
"193 409 OFFCURVE",
"193 356 CURVE SMOOTH",
"193 316 OFFCURVE",
"229 285 OFFCURVE",
"266 285 CURVE SMOOTH",
"295 285 OFFCURVE",
"315 308 OFFCURVE",
"315 334 CURVE SMOOTH",
"315 363 OFFCURVE",
"288 389 OFFCURVE",
"263 389 CURVE SMOOTH",
"253 389 OFFCURVE",
"243 385 OFFCURVE",
"231 376 CURVE SMOOTH",
"227 373 OFFCURVE",
"224 369 OFFCURVE",
"222 365 CURVE SMOOTH",
"219 360 OFFCURVE",
"223 361 OFFCURVE",
"226 366 CURVE SMOOTH",
"227 368 OFFCURVE",
"228 370 OFFCURVE",
"233 373 CURVE SMOOTH",
"241 379 OFFCURVE",
"249 382 OFFCURVE",
"256 382 CURVE SMOOTH",
"273 382 OFFCURVE",
"295 364 OFFCURVE",
"295 339 CURVE SMOOTH",
"295 316 OFFCURVE",
"277 295 OFFCURVE",
"254 295 CURVE SMOOTH",
"232 295 OFFCURVE",
"199 320 OFFCURVE",
"199 349 CURVE SMOOTH",
"199 389 OFFCURVE",
"241 411 OFFCURVE",
"275 411 CURVE SMOOTH",
"316 411 OFFCURVE",
"356 365 OFFCURVE",
"356 326 CURVE SMOOTH",
"356 289 OFFCURVE",
"316 268 OFFCURVE",
"281 268 CURVE SMOOTH",
"261 268 OFFCURVE",
"240 274 OFFCURVE",
"214 284 CURVE SMOOTH",
"153 307 OFFCURVE",
"124 349 OFFCURVE",
"124 394 CURVE SMOOTH",
"124 433 OFFCURVE",
"145 475 OFFCURVE",
"185 512 CURVE SMOOTH",
"224 547 OFFCURVE",
"302 575 OFFCURVE",
"366 575 CURVE SMOOTH",
"421 573 LINE",
"404 436 OFFCURVE",
"397 228 OFFCURVE",
"397 58 CURVE SMOOTH",
"397 -59 OFFCURVE",
"400 -159 OFFCURVE",
"407 -205 CURVE SMOOTH",
"413 -231 OFFCURVE",
"427 -249 OFFCURVE",
"442 -249 CURVE SMOOTH"
);
}
);
width = 628;
}
);
note = paragraph;
unicode = 00B6;
userData = {
KernOnSpecialSpacing = {
L = symbols;
R = symbols;
};
};
}
{
glyphname = questiondown;
layers = (
{
background = {
paths = (
{
closed = 1;
nodes = (
"243 -330 OFFCURVE",
"279 -316 OFFCURVE",
"307 -288 CURVE SMOOTH",
"334 -259 OFFCURVE",
"348 -222 OFFCURVE",
"348 -179 CURVE SMOOTH",
"348 -149 OFFCURVE",
"340 -122 OFFCURVE",
"325 -97 CURVE SMOOTH",
"294 -47 OFFCURVE",
"261 -22 OFFCURVE",
"227 -22 CURVE SMOOTH",
"201 -22 OFFCURVE",
"179 -36 OFFCURVE",
"162 -63 CURVE SMOOTH",
"148 -86 OFFCURVE",
"141 -112 OFFCURVE",
"141 -141 CURVE SMOOTH",
"141 -165 OFFCURVE",
"148 -190 OFFCURVE",
"162 -217 CURVE SMOOTH",
"179 -249 OFFCURVE",
"197 -265 OFFCURVE",
"218 -265 CURVE SMOOTH",
"229 -265 OFFCURVE",
"238 -259 OFFCURVE",
"244 -248 CURVE SMOOTH",
"250 -236 OFFCURVE",
"253 -224 OFFCURVE",
"253 -211 CURVE SMOOTH",
"253 -203 OFFCURVE",
"252 -195 OFFCURVE",
"249 -187 CURVE SMOOTH",
"245 -176 OFFCURVE",
"241 -170 OFFCURVE",
"236 -170 CURVE SMOOTH",
"229 -170 OFFCURVE",
"225 -175 OFFCURVE",
"225 -185 CURVE SMOOTH",
"225 -190 OFFCURVE",
"226 -196 OFFCURVE",
"228 -205 CURVE SMOOTH",
"230 -214 OFFCURVE",
"231 -221 OFFCURVE",
"231 -225 CURVE SMOOTH",
"231 -240 OFFCURVE",
"228 -247 OFFCURVE",
"222 -247 CURVE SMOOTH",
"213 -247 OFFCURVE",
"203 -233 OFFCURVE",
"191 -206 CURVE SMOOTH",
"174 -168 OFFCURVE",
"166 -135 OFFCURVE",
"166 -108 CURVE SMOOTH",
"166 -69 OFFCURVE",
"182 -50 OFFCURVE",
"215 -50 CURVE SMOOTH",
"246 -50 OFFCURVE",
"270 -65 OFFCURVE",
"287 -96 CURVE SMOOTH",
"302 -121 OFFCURVE",
"309 -150 OFFCURVE",
"309 -183 CURVE SMOOTH",
"309 -212 OFFCURVE",
"303 -236 OFFCURVE",
"290 -257 CURVE SMOOTH",
"273 -286 OFFCURVE",
"243 -300 OFFCURVE",
"199 -300 CURVE SMOOTH",
"158 -300 OFFCURVE",
"124 -289 OFFCURVE",
"97 -268 CURVE SMOOTH",
"68 -243 OFFCURVE",
"54 -211 OFFCURVE",
"54 -172 CURVE SMOOTH",
"54 -133 OFFCURVE",
"69 -95 OFFCURVE",
"100 -56 CURVE SMOOTH",
"147 0 OFFCURVE",
"189 53 OFFCURVE",
"236 102 CURVE",
"247 117 OFFCURVE",
"252 134 OFFCURVE",
"252 153 CURVE SMOOTH",
"252 180 OFFCURVE",
"240 200 OFFCURVE",
"217 213 CURVE",
"212 215 OFFCURVE",
"207 216 OFFCURVE",
"202 216 CURVE SMOOTH",
"192 216 OFFCURVE",
"187 211 OFFCURVE",
"187 200 CURVE SMOOTH",
"187 195 OFFCURVE",
"194 187 OFFCURVE",
"207 177 CURVE SMOOTH",
"220 167 OFFCURVE",
"226 157 OFFCURVE",
"226 146 CURVE SMOOTH",
"226 127 OFFCURVE",
"207 101 OFFCURVE",
"169 67 CURVE SMOOTH",
"108 12 OFFCURVE",
"73 -20 OFFCURVE",
"62 -32 CURVE SMOOTH",
"24 -75 OFFCURVE",
"5 -119 OFFCURVE",
"5 -163 CURVE SMOOTH",
"5 -211 OFFCURVE",
"26 -251 OFFCURVE",
"68 -284 CURVE SMOOTH",
"107 -315 OFFCURVE",
"151 -330 OFFCURVE",
"200 -330 CURVE SMOOTH"
);
},
{
closed = 1;
nodes = (
"249 250 OFFCURVE",
"282 273 OFFCURVE",
"282 302 CURVE SMOOTH",
"282 331 OFFCURVE",
"269 354 OFFCURVE",
"240 354 CURVE SMOOTH",
"211 354 OFFCURVE",
"178 331 OFFCURVE",
"178 302 CURVE SMOOTH",
"178 273 OFFCURVE",
"191 250 OFFCURVE",
"220 250 CURVE SMOOTH"
);
}
);
};
layerId = "04B30934-05D4-410C-A3F8-810C0079C645";
paths = (
{
closed = 1;
nodes = (
"243 -330 OFFCURVE",
"279 -316 OFFCURVE",
"307 -288 CURVE SMOOTH",
"334 -259 OFFCURVE",
"348 -222 OFFCURVE",
"348 -179 CURVE SMOOTH",
"348 -149 OFFCURVE",
"340 -122 OFFCURVE",
"325 -97 CURVE SMOOTH",
"294 -47 OFFCURVE",
"261 -22 OFFCURVE",
"227 -22 CURVE SMOOTH",
"201 -22 OFFCURVE",
"179 -36 OFFCURVE",
"162 -63 CURVE SMOOTH",
"148 -86 OFFCURVE",
"141 -112 OFFCURVE",
"141 -141 CURVE SMOOTH",
"141 -165 OFFCURVE",
"148 -190 OFFCURVE",
"162 -217 CURVE SMOOTH",
"179 -249 OFFCURVE",
"197 -265 OFFCURVE",
"218 -265 CURVE SMOOTH",
"229 -265 OFFCURVE",
"238 -259 OFFCURVE",
"244 -248 CURVE SMOOTH",
"250 -236 OFFCURVE",
"253 -224 OFFCURVE",
"253 -211 CURVE SMOOTH",
"253 -203 OFFCURVE",
"252 -195 OFFCURVE",
"249 -187 CURVE SMOOTH",
"245 -176 OFFCURVE",
"241 -170 OFFCURVE",
"236 -170 CURVE SMOOTH",
"229 -170 OFFCURVE",
"225 -175 OFFCURVE",
"225 -185 CURVE SMOOTH",
"225 -190 OFFCURVE",
"226 -196 OFFCURVE",
"228 -205 CURVE SMOOTH",
"230 -214 OFFCURVE",
"231 -221 OFFCURVE",
"231 -225 CURVE SMOOTH",
"231 -240 OFFCURVE",
"228 -247 OFFCURVE",
"222 -247 CURVE SMOOTH",
"213 -247 OFFCURVE",
"203 -233 OFFCURVE",
"191 -206 CURVE SMOOTH",
"174 -168 OFFCURVE",
"166 -135 OFFCURVE",
"166 -108 CURVE SMOOTH",
"166 -69 OFFCURVE",
"182 -50 OFFCURVE",
"215 -50 CURVE SMOOTH",
"246 -50 OFFCURVE",
"270 -65 OFFCURVE",
"287 -96 CURVE SMOOTH",
"302 -121 OFFCURVE",
"309 -150 OFFCURVE",
"309 -183 CURVE SMOOTH",
"309 -212 OFFCURVE",
"303 -236 OFFCURVE",
"290 -257 CURVE SMOOTH",
"273 -286 OFFCURVE",
"243 -300 OFFCURVE",
"199 -300 CURVE SMOOTH",
"158 -300 OFFCURVE",
"124 -289 OFFCURVE",
"97 -268 CURVE SMOOTH",
"68 -243 OFFCURVE",
"54 -211 OFFCURVE",
"54 -172 CURVE SMOOTH",
"54 -133 OFFCURVE",
"69 -95 OFFCURVE",
"100 -56 CURVE SMOOTH",
"147 0 OFFCURVE",
"189 53 OFFCURVE",
"236 102 CURVE",
"247 117 OFFCURVE",
"252 134 OFFCURVE",
"252 153 CURVE SMOOTH",
"252 180 OFFCURVE",
"240 200 OFFCURVE",
"217 213 CURVE",
"212 215 OFFCURVE",
"207 216 OFFCURVE",
"202 216 CURVE SMOOTH",
"192 216 OFFCURVE",
"187 211 OFFCURVE",
"187 200 CURVE SMOOTH",
"187 195 OFFCURVE",
"194 187 OFFCURVE",
"207 177 CURVE SMOOTH",
"220 167 OFFCURVE",
"226 157 OFFCURVE",
"226 146 CURVE SMOOTH",
"226 127 OFFCURVE",
"207 101 OFFCURVE",
"169 67 CURVE SMOOTH",
"108 12 OFFCURVE",
"73 -20 OFFCURVE",
"62 -32 CURVE SMOOTH",
"24 -75 OFFCURVE",
"5 -119 OFFCURVE",
"5 -163 CURVE SMOOTH",
"5 -211 OFFCURVE",
"26 -251 OFFCURVE",
"68 -284 CURVE SMOOTH",
"107 -315 OFFCURVE",
"151 -330 OFFCURVE",
"200 -330 CURVE SMOOTH"
);
},
{
closed = 1;
nodes = (
"249 250 OFFCURVE",
"282 273 OFFCURVE",
"282 302 CURVE SMOOTH",
"282 331 OFFCURVE",
"269 354 OFFCURVE",
"240 354 CURVE SMOOTH",
"211 354 OFFCURVE",
"178 331 OFFCURVE",
"178 302 CURVE SMOOTH",
"178 273 OFFCURVE",
"191 250 OFFCURVE",
"220 250 CURVE SMOOTH"
);
}
);
width = 364;
}
);
note = questiondown;
unicode = 00BF;
userData = {
KernOnSpecialSpacing = {
R = "spaced-off";
};
};
}
{
glyphname = section;
layers = (
{
background = {
paths = (
{
closed = 1;
nodes = (
"224 -247 OFFCURVE",
"294 -227 OFFCURVE",
"357 -193 CURVE SMOOTH",
"490 -124 OFFCURVE",
"587 -30 OFFCURVE",
"587 114 CURVE SMOOTH",
"587 204 OFFCURVE",
"536 286 OFFCURVE",
"398 319 CURVE SMOOTH",
"309 340 OFFCURVE",
"216 368 OFFCURVE",
"216 428 CURVE SMOOTH",
"216 452 OFFCURVE",
"231 481 OFFCURVE",
"267 517 CURVE SMOOTH",
"317 567 OFFCURVE",
"392 605 OFFCURVE",
"472 605 CURVE SMOOTH",
"542 605 OFFCURVE",
"597 577 OFFCURVE",
"597 514 CURVE SMOOTH",
"597 476 OFFCURVE",
"570 440 OFFCURVE",
"512 440 CURVE SMOOTH",
"496 440 OFFCURVE",
"489 435 OFFCURVE",
"489 430 CURVE SMOOTH",
"489 424 OFFCURVE",
"498 418 OFFCURVE",
"512 418 CURVE SMOOTH",
"568 418 OFFCURVE",
"640 468 OFFCURVE",
"640 530 CURVE SMOOTH",
"640 601 OFFCURVE",
"541 633 OFFCURVE",
"454 633 CURVE SMOOTH",
"309 633 OFFCURVE",
"160 568 OFFCURVE",
"139 442 CURVE SMOOTH",
"138 439 OFFCURVE",
"138 435 OFFCURVE",
"138 431 CURVE SMOOTH",
"138 420 OFFCURVE",
"141 407 OFFCURVE",
"148 393 CURVE",
"97 376 OFFCURVE",
"70 352 OFFCURVE",
"70 289 CURVE SMOOTH",
"70 169 OFFCURVE",
"256 114 OFFCURVE",
"322 89 CURVE SMOOTH",
"401 61 OFFCURVE",
"443 6 OFFCURVE",
"443 -41 CURVE SMOOTH",
"443 -55 OFFCURVE",
"439 -69 OFFCURVE",
"431 -81 CURVE",
"351 -156 OFFCURVE",
"259 -230 OFFCURVE",
"162 -230 CURVE SMOOTH",
"96 -230 OFFCURVE",
"1 -187 OFFCURVE",
"1 -119 CURVE SMOOTH",
"1 -50 OFFCURVE",
"91 26 OFFCURVE",
"162 26 CURVE SMOOTH",
"214 26 OFFCURVE",
"253 -7 OFFCURVE",
"253 -57 CURVE SMOOTH",
"253 -113 OFFCURVE",
"214 -158 OFFCURVE",
"162 -158 CURVE SMOOTH",
"126 -158 OFFCURVE",
"105 -129 OFFCURVE",
"105 -97 CURVE SMOOTH",
"105 -55 OFFCURVE",
"148 -16 OFFCURVE",
"186 -16 CURVE SMOOTH",
"193 -16 OFFCURVE",
"199 -18 OFFCURVE",
"205 -22 CURVE SMOOTH",
"212 -27 OFFCURVE",
"214 -24 OFFCURVE",
"207 -19 CURVE",
"197 -10 OFFCURVE",
"185 -6 OFFCURVE",
"173 -6 CURVE SMOOTH",
"130 -6 OFFCURVE",
"69 -56 OFFCURVE",
"69 -106 CURVE SMOOTH",
"69 -147 OFFCURVE",
"106 -180 OFFCURVE",
"150 -180 CURVE SMOOTH",
"214 -180 OFFCURVE",
"274 -105 OFFCURVE",
"267 -43 CURVE SMOOTH",
"257 25 OFFCURVE",
"195 54 OFFCURVE",
"130 54 CURVE SMOOTH",
"40 54 OFFCURVE",
"-47 -3 OFFCURVE",
"-47 -86 CURVE SMOOTH",
"-47 -180 OFFCURVE",
"50 -247 OFFCURVE",
"160 -247 CURVE SMOOTH"
);
},
{
closed = 1;
nodes = (
"462 -40 OFFCURVE",
"464 -27 OFFCURVE",
"464 -13 CURVE SMOOTH",
"464 47 OFFCURVE",
"423 104 OFFCURVE",
"373 124 CURVE SMOOTH",
"244 172 OFFCURVE",
"125 202 OFFCURVE",
"125 287 CURVE SMOOTH",
"125 315 OFFCURVE",
"121 356 OFFCURVE",
"157 377 CURVE",
"178 346 OFFCURVE",
"214 319 OFFCURVE",
"270 310 CURVE SMOOTH",
"383 289 OFFCURVE",
"517 229 OFFCURVE",
"517 99 CURVE SMOOTH",
"517 45 OFFCURVE",
"498 -7 OFFCURVE",
"458 -53 CURVE"
);
}
);
};
layerId = "04B30934-05D4-410C-A3F8-810C0079C645";
paths = (
{
closed = 1;
nodes = (
"224 -247 OFFCURVE",
"294 -227 OFFCURVE",
"357 -193 CURVE SMOOTH",
"490 -124 OFFCURVE",
"587 -30 OFFCURVE",
"587 114 CURVE SMOOTH",
"587 204 OFFCURVE",
"536 286 OFFCURVE",
"398 319 CURVE SMOOTH",
"309 340 OFFCURVE",
"216 368 OFFCURVE",
"216 428 CURVE SMOOTH",
"216 452 OFFCURVE",
"231 481 OFFCURVE",
"267 517 CURVE SMOOTH",
"317 567 OFFCURVE",
"392 605 OFFCURVE",
"472 605 CURVE SMOOTH",
"542 605 OFFCURVE",
"597 577 OFFCURVE",
"597 514 CURVE SMOOTH",
"597 476 OFFCURVE",
"570 440 OFFCURVE",
"512 440 CURVE SMOOTH",
"496 440 OFFCURVE",
"489 435 OFFCURVE",
"489 430 CURVE SMOOTH",
"489 424 OFFCURVE",
"498 418 OFFCURVE",
"512 418 CURVE SMOOTH",
"568 418 OFFCURVE",
"640 468 OFFCURVE",
"640 530 CURVE SMOOTH",
"640 601 OFFCURVE",
"541 633 OFFCURVE",
"454 633 CURVE SMOOTH",
"309 633 OFFCURVE",
"160 568 OFFCURVE",
"139 442 CURVE",
"138 439 OFFCURVE",
"138 435 OFFCURVE",
"138 431 CURVE SMOOTH",
"138 420 OFFCURVE",
"141 407 OFFCURVE",
"148 393 CURVE",
"97 376 OFFCURVE",
"70 352 OFFCURVE",
"70 289 CURVE SMOOTH",
"70 169 OFFCURVE",
"256 114 OFFCURVE",
"322 89 CURVE SMOOTH",
"401 61 OFFCURVE",
"443 6 OFFCURVE",
"443 -41 CURVE SMOOTH",
"443 -55 OFFCURVE",
"439 -69 OFFCURVE",
"431 -81 CURVE",
"351 -156 OFFCURVE",
"259 -230 OFFCURVE",
"162 -230 CURVE SMOOTH",
"96 -230 OFFCURVE",
"1 -187 OFFCURVE",
"1 -119 CURVE SMOOTH",
"1 -50 OFFCURVE",
"91 26 OFFCURVE",
"162 26 CURVE SMOOTH",
"214 26 OFFCURVE",
"253 -7 OFFCURVE",
"253 -57 CURVE SMOOTH",
"253 -113 OFFCURVE",
"214 -158 OFFCURVE",
"162 -158 CURVE SMOOTH",
"126 -158 OFFCURVE",
"105 -129 OFFCURVE",
"105 -97 CURVE SMOOTH",
"105 -55 OFFCURVE",
"148 -16 OFFCURVE",
"186 -16 CURVE SMOOTH",
"193 -16 OFFCURVE",
"199 -18 OFFCURVE",
"205 -22 CURVE SMOOTH",
"212 -27 OFFCURVE",
"214 -24 OFFCURVE",
"207 -19 CURVE SMOOTH",
"197 -10 OFFCURVE",
"185 -6 OFFCURVE",
"173 -6 CURVE SMOOTH",
"130 -6 OFFCURVE",
"69 -56 OFFCURVE",
"69 -106 CURVE SMOOTH",
"69 -147 OFFCURVE",
"106 -180 OFFCURVE",
"150 -180 CURVE SMOOTH",
"214 -180 OFFCURVE",
"274 -105 OFFCURVE",
"267 -43 CURVE SMOOTH",
"257 25 OFFCURVE",
"195 54 OFFCURVE",
"130 54 CURVE SMOOTH",
"40 54 OFFCURVE",
"-47 -3 OFFCURVE",
"-47 -86 CURVE SMOOTH",
"-47 -180 OFFCURVE",
"50 -247 OFFCURVE",
"160 -247 CURVE SMOOTH"
);
},
{
closed = 1;
nodes = (
"462 -40 OFFCURVE",
"464 -27 OFFCURVE",
"464 -13 CURVE SMOOTH",
"464 47 OFFCURVE",
"423 104 OFFCURVE",
"373 124 CURVE SMOOTH",
"244 172 OFFCURVE",
"125 202 OFFCURVE",
"125 287 CURVE SMOOTH",
"125 315 OFFCURVE",
"121 356 OFFCURVE",
"157 377 CURVE",
"178 346 OFFCURVE",
"214 319 OFFCURVE",
"270 310 CURVE SMOOTH",
"383 289 OFFCURVE",
"517 229 OFFCURVE",
"517 99 CURVE SMOOTH",
"517 45 OFFCURVE",
"498 -7 OFFCURVE",
"458 -53 CURVE"
);
}
);
width = 546;
}
);
note = section;
unicode = 00A7;
userData = {
KernOnSpecialSpacing = {
L = symbols;
R = symbols;
};
};
}
{
color = 4;
glyphname = thorn;
layers = (
{
background = {
paths = (
{
closed = 1;
nodes = (
"126 -247 OFFCURVE",
"131 -247 OFFCURVE",
"136 -245 CURVE",
"123 -226 OFFCURVE",
"120 -167 OFFCURVE",
"120 -106 CURVE SMOOTH",
"120 -52 OFFCURVE",
"123 4 OFFCURVE",
"124 33 CURVE",
"137 5 OFFCURVE",
"164 -4 OFFCURVE",
"192 -4 CURVE SMOOTH",
"215 -4 OFFCURVE",
"239 2 OFFCURVE",
"259 9 CURVE SMOOTH",
"334 36 OFFCURVE",
"376 106 OFFCURVE",
"376 170 CURVE SMOOTH",
"376 238 OFFCURVE",
"329 301 OFFCURVE",
"223 301 CURVE SMOOTH",
"200 301 OFFCURVE",
"177 299 OFFCURVE",
"150 296 CURVE SMOOTH",
"143 296 OFFCURVE",
"174 488 OFFCURVE",
"174 510 CURVE SMOOTH",
"174 513 OFFCURVE",
"171 515 OFFCURVE",
"166 515 CURVE SMOOTH",
"151 515 OFFCURVE",
"122 504 OFFCURVE",
"116 482 CURVE",
"95 321 OFFCURVE",
"82 249 OFFCURVE",
"77 169 CURVE SMOOTH",
"71 95 OFFCURVE",
"64 -3 OFFCURVE",
"64 -84 CURVE SMOOTH",
"64 -148 OFFCURVE",
"68 -201 OFFCURVE",
"80 -223 CURVE SMOOTH",
"87 -238 OFFCURVE",
"103 -247 OFFCURVE",
"121 -247 CURVE SMOOTH"
);
},
{
closed = 1;
nodes = (
"151 19 OFFCURVE",
"121 41 OFFCURVE",
"124 55 CURVE",
"132 127 OFFCURVE",
"143 225 OFFCURVE",
"151 256 CURVE",
"171 261 OFFCURVE",
"204 268 OFFCURVE",
"229 268 CURVE SMOOTH",
"272 268 OFFCURVE",
"315 243 OFFCURVE",
"315 165 CURVE SMOOTH",
"315 98 OFFCURVE",
"271 14 OFFCURVE",
"179 19 CURVE SMOOTH"
);
}
);
};
layerId = "04B30934-05D4-410C-A3F8-810C0079C645";
paths = (
{
closed = 1;
nodes = (
"136 -234 OFFCURVE",
"164 -198 OFFCURVE",
"164 -177 CURVE",
"165 -170 OFFCURVE",
"164 -166 OFFCURVE",
"162 -166 CURVE SMOOTH",
"160 -166 OFFCURVE",
"158 -168 OFFCURVE",
"156 -175 CURVE SMOOTH",
"153 -187 OFFCURVE",
"149 -192 OFFCURVE",
"144 -192 CURVE SMOOTH",
"131 -192 OFFCURVE",
"116 -141 OFFCURVE",
"114 -132 CURVE SMOOTH",
"95 -69 OFFCURVE",
"74 41 OFFCURVE",
"74 128 CURVE SMOOTH",
"74 171 OFFCURVE",
"80 218 OFFCURVE",
"99 262 CURVE",
"118 297 OFFCURVE",
"139 328 OFFCURVE",
"158 339 CURVE SMOOTH",
"168 345 OFFCURVE",
"176 348 OFFCURVE",
"184 348 CURVE SMOOTH",
"220 348 OFFCURVE",
"231 270 OFFCURVE",
"231 208 CURVE SMOOTH",
"231 152 OFFCURVE",
"221 93 OFFCURVE",
"200 55 CURVE SMOOTH",
"185 28 OFFCURVE",
"169 13 OFFCURVE",
"154 13 CURVE SMOOTH",
"124 13 OFFCURVE",
"109 76 OFFCURVE",
"109 124 CURVE SMOOTH",
"109 163 OFFCURVE",
"118 201 OFFCURVE",
"135 230 CURVE SMOOTH",
"150 253 OFFCURVE",
"165 265 OFFCURVE",
"180 268 CURVE SMOOTH",
"185 269 OFFCURVE",
"189 270 OFFCURVE",
"189 272 CURVE SMOOTH",
"189 273 OFFCURVE",
"186 274 OFFCURVE",
"179 274 CURVE",
"160 271 OFFCURVE",
"141 258 OFFCURVE",
"126 234 CURVE SMOOTH",
"107 203 OFFCURVE",
"93 161 OFFCURVE",
"93 117 CURVE SMOOTH",
"93 67 OFFCURVE",
"113 -4 OFFCURVE",
"164 -4 CURVE SMOOTH",
"197 -4 OFFCURVE",
"232 25 OFFCURVE",
"249 55 CURVE SMOOTH",
"269 93 OFFCURVE",
"286 154 OFFCURVE",
"286 217 CURVE SMOOTH",
"286 285 OFFCURVE",
"265 368 OFFCURVE",
"213 368 CURVE SMOOTH",
"172 368 OFFCURVE",
"120 335 OFFCURVE",
"69 232 CURVE",
"69 283 OFFCURVE",
"73 551 OFFCURVE",
"82 619 CURVE SMOOTH",
"84 635 OFFCURVE",
"82 641 OFFCURVE",
"77 641 CURVE SMOOTH",
"72 641 OFFCURVE",
"64 634 OFFCURVE",
"56 624 CURVE SMOOTH",
"47 613 OFFCURVE",
"36 597 OFFCURVE",
"23 578 CURVE",
"21 263 LINE SMOOTH",
"20 92 OFFCURVE",
"39 -88 OFFCURVE",
"94 -219 CURVE SMOOTH",
"98 -230 OFFCURVE",
"105 -234 OFFCURVE",
"112 -234 CURVE SMOOTH"
);
}
);
width = 519;
}
);
note = thorn;
unicode = 00FE;
}
{
glyphname = threequarters;
layers = (
{
background = {
paths = (
{
closed = 1;
nodes = (
"231 109 OFFCURVE",
"232 111 OFFCURVE",
"232 114 CURVE SMOOTH",
"232 116 OFFCURVE",
"231 120 OFFCURVE",
"229 126 CURVE SMOOTH",
"227 131 OFFCURVE",
"226 134 OFFCURVE",
"226 137 CURVE SMOOTH",
"226 165 OFFCURVE",
"266 231 OFFCURVE",
"347 336 CURVE SMOOTH",
"416 425 OFFCURVE",
"471 491 OFFCURVE",
"510 532 CURVE SMOOTH",
"518 541 OFFCURVE",
"485 546 OFFCURVE",
"484 546 CURVE",
"462 537 OFFCURVE",
"411 475 OFFCURVE",
"332 358 CURVE SMOOTH",
"251 240 OFFCURVE",
"210 166 OFFCURVE",
"210 137 CURVE SMOOTH",
"210 130 OFFCURVE",
"212 124 OFFCURVE",
"215 119 CURVE SMOOTH",
"220 112 OFFCURVE",
"224 109 OFFCURVE",
"229 109 CURVE SMOOTH"
);
},
{
closed = 1;
nodes = (
"128 311 OFFCURVE",
"168 322 OFFCURVE",
"203 345 CURVE SMOOTH",
"245 372 OFFCURVE",
"266 405 OFFCURVE",
"266 445 CURVE SMOOTH",
"266 478 OFFCURVE",
"249 503 OFFCURVE",
"214 518 CURVE",
"243 543 OFFCURVE",
"258 571 OFFCURVE",
"258 602 CURVE SMOOTH",
"258 637 OFFCURVE",
"232 655 OFFCURVE",
"181 655 CURVE SMOOTH",
"145 655 OFFCURVE",
"108 648 OFFCURVE",
"69 629 CURVE SMOOTH",
"42 617 OFFCURVE",
"28 604 OFFCURVE",
"28 590 CURVE SMOOTH",
"28 577 OFFCURVE",
"42 571 OFFCURVE",
"69 571 CURVE SMOOTH",
"93 571 OFFCURVE",
"113 573 OFFCURVE",
"128 577 CURVE SMOOTH",
"133 579 OFFCURVE",
"135 582 OFFCURVE",
"135 585 CURVE SMOOTH",
"135 590 OFFCURVE",
"132 593 OFFCURVE",
"127 593 CURVE SMOOTH",
"122 593 OFFCURVE",
"114 592 OFFCURVE",
"99 588 CURVE SMOOTH",
"86 584 OFFCURVE",
"75 582 OFFCURVE",
"68 582 CURVE SMOOTH",
"57 582 OFFCURVE",
"50 585 OFFCURVE",
"45 590 CURVE",
"47 601 OFFCURVE",
"61 612 OFFCURVE",
"86 622 CURVE SMOOTH",
"121 637 OFFCURVE",
"154 644 OFFCURVE",
"185 644 CURVE SMOOTH",
"223 644 OFFCURVE",
"242 631 OFFCURVE",
"242 604 CURVE SMOOTH",
"242 573 OFFCURVE",
"229 546 OFFCURVE",
"202 522 CURVE",
"187 529 OFFCURVE",
"171 530 OFFCURVE",
"152 530 CURVE SMOOTH",
"131 530 OFFCURVE",
"111 527 OFFCURVE",
"94 519 CURVE SMOOTH",
"71 510 OFFCURVE",
"59 496 OFFCURVE",
"58 477 CURVE",
"57 476 LINE",
"56 468 OFFCURVE",
"64 464 OFFCURVE",
"81 464 CURVE SMOOTH",
"116 464 OFFCURVE",
"153 476 OFFCURVE",
"190 501 CURVE",
"211 489 OFFCURVE",
"222 471 OFFCURVE",
"222 446 CURVE SMOOTH",
"222 411 OFFCURVE",
"208 382 OFFCURVE",
"179 359 CURVE SMOOTH",
"151 338 OFFCURVE",
"119 328 OFFCURVE",
"84 328 CURVE SMOOTH",
"58 328 OFFCURVE",
"45 337 OFFCURVE",
"45 356 CURVE SMOOTH",
"45 370 OFFCURVE",
"52 382 OFFCURVE",
"65 393 CURVE SMOOTH",
"79 403 OFFCURVE",
"93 408 OFFCURVE",
"107 408 CURVE SMOOTH",
"112 408 OFFCURVE",
"115 404 OFFCURVE",
"116 397 CURVE SMOOTH",
"117 389 OFFCURVE",
"119 385 OFFCURVE",
"124 385 CURVE SMOOTH",
"130 385 OFFCURVE",
"133 388 OFFCURVE",
"133 393 CURVE SMOOTH",
"133 414 OFFCURVE",
"124 425 OFFCURVE",
"107 425 CURVE SMOOTH",
"88 425 OFFCURVE",
"70 418 OFFCURVE",
"53 405 CURVE SMOOTH",
"36 391 OFFCURVE",
"27 374 OFFCURVE",
"27 355 CURVE SMOOTH",
"27 326 OFFCURVE",
"46 311 OFFCURVE",
"84 311 CURVE SMOOTH"
);
},
{
closed = 1;
nodes = (
"99 481 OFFCURVE",
"93 483 OFFCURVE",
"88 486 CURVE",
"88 488 LINE SMOOTH",
"88 497 OFFCURVE",
"95 504 OFFCURVE",
"108 508 CURVE SMOOTH",
"118 512 OFFCURVE",
"129 514 OFFCURVE",
"140 514 CURVE SMOOTH",
"153 514 OFFCURVE",
"167 511 OFFCURVE",
"181 506 CURVE",
"154 489 OFFCURVE",
"130 481 OFFCURVE",
"107 481 CURVE SMOOTH"
);
},
{
closed = 1;
nodes = (
"588 14 OFFCURVE",
"594 16 OFFCURVE",
"601 20 CURVE SMOOTH",
"608 23 OFFCURVE",
"612 27 OFFCURVE",
"612 32 CURVE SMOOTH",
"612 43 OFFCURVE",
"611 62 OFFCURVE",
"604 90 CURVE SMOOTH",
"598 118 OFFCURVE",
"595 138 OFFCURVE",
"595 150 CURVE",
"620 143 OFFCURVE",
"641 142 OFFCURVE",
"660 142 CURVE SMOOTH",
"678 142 OFFCURVE",
"696 146 OFFCURVE",
"715 153 CURVE",
"736 164 OFFCURVE",
"747 179 OFFCURVE",
"747 196 CURVE SMOOTH",
"747 212 OFFCURVE",
"738 224 OFFCURVE",
"721 232 CURVE SMOOTH",
"706 239 OFFCURVE",
"691 242 OFFCURVE",
"675 242 CURVE SMOOTH",
"659 242 OFFCURVE",
"644 239 OFFCURVE",
"630 234 CURVE SMOOTH",
"613 227 OFFCURVE",
"605 216 OFFCURVE",
"605 202 CURVE SMOOTH",
"605 187 OFFCURVE",
"613 179 OFFCURVE",
"630 179 CURVE SMOOTH",
"638 179 OFFCURVE",
"646 180 OFFCURVE",
"654 183 CURVE SMOOTH",
"666 186 OFFCURVE",
"672 190 OFFCURVE",
"672 195 CURVE SMOOTH",
"672 201 OFFCURVE",
"669 204 OFFCURVE",
"664 204 CURVE SMOOTH",
"661 204 OFFCURVE",
"656 202 OFFCURVE",
"649 199 CURVE SMOOTH",
"641 196 OFFCURVE",
"636 195 OFFCURVE",
"631 195 CURVE SMOOTH",
"625 195 OFFCURVE",
"622 197 OFFCURVE",
"622 202 CURVE SMOOTH",
"622 210 OFFCURVE",
"629 216 OFFCURVE",
"643 220 CURVE SMOOTH",
"654 223 OFFCURVE",
"664 224 OFFCURVE",
"675 224 CURVE SMOOTH",
"711 224 OFFCURVE",
"729 215 OFFCURVE",
"729 196 CURVE SMOOTH",
"729 177 OFFCURVE",
"702 168 OFFCURVE",
"649 168 CURVE SMOOTH",
"632 168 OFFCURVE",
"614 170 OFFCURVE",
"594 173 CURVE",
"594 254 OFFCURVE",
"607 319 OFFCURVE",
"632 370 CURVE",
"633 371 OFFCURVE",
"634 373 OFFCURVE",
"634 375 CURVE SMOOTH",
"634 380 OFFCURVE",
"631 383 OFFCURVE",
"625 383 CURVE SMOOTH",
"623 383 OFFCURVE",
"621 382 OFFCURVE",
"618 379 CURVE",
"603 356 OFFCURVE",
"593 325 OFFCURVE",
"582 282 CURVE SMOOTH",
"575 247 OFFCURVE",
"569 214 OFFCURVE",
"565 179 CURVE",
"512 190 OFFCURVE",
"476 196 OFFCURVE",
"455 196 CURVE SMOOTH",
"450 196 LINE",
"489 237 OFFCURVE",
"519 267 OFFCURVE",
"539 287 CURVE SMOOTH",
"571 317 OFFCURVE",
"587 335 OFFCURVE",
"587 341 CURVE SMOOTH",
"587 344 OFFCURVE",
"585 346 OFFCURVE",
"580 346 CURVE SMOOTH",
"576 346 OFFCURVE",
"572 345 OFFCURVE",
"569 342 CURVE SMOOTH",
"553 327 OFFCURVE",
"541 316 OFFCURVE",
"534 311 CURVE",
"460 240 LINE SMOOTH",
"437 217 OFFCURVE",
"422 206 OFFCURVE",
"415 203 CURVE SMOOTH",
"405 198 OFFCURVE",
"400 193 OFFCURVE",
"400 188 CURVE SMOOTH",
"400 184 OFFCURVE",
"402 181 OFFCURVE",
"406 178 CURVE SMOOTH",
"411 175 OFFCURVE",
"415 173 OFFCURVE",
"418 173 CURVE SMOOTH",
"422 173 OFFCURVE",
"428 174 OFFCURVE",
"435 177 CURVE SMOOTH",
"440 179 OFFCURVE",
"444 179 OFFCURVE",
"447 179 CURVE SMOOTH",
"449 179 OFFCURVE",
"451 179 OFFCURVE",
"453 179 CURVE SMOOTH",
"474 179 OFFCURVE",
"511 172 OFFCURVE",
"563 159 CURVE",
"563 123 LINE SMOOTH",
"563 72 OFFCURVE",
"567 37 OFFCURVE",
"576 18 CURVE SMOOTH",
"577 15 OFFCURVE",
"580 14 OFFCURVE",
"583 14 CURVE SMOOTH"
);
}
);
};
layerId = "04B30934-05D4-410C-A3F8-810C0079C645";
paths = (
{
closed = 1;
nodes = (
"231 109 OFFCURVE",
"232 111 OFFCURVE",
"232 114 CURVE SMOOTH",
"232 116 OFFCURVE",
"231 120 OFFCURVE",
"229 126 CURVE SMOOTH",
"227 131 OFFCURVE",
"226 134 OFFCURVE",
"226 137 CURVE SMOOTH",
"226 165 OFFCURVE",
"266 231 OFFCURVE",
"347 336 CURVE SMOOTH",
"416 425 OFFCURVE",
"471 491 OFFCURVE",
"510 532 CURVE SMOOTH",
"518 541 OFFCURVE",
"485 546 OFFCURVE",
"484 546 CURVE",
"462 537 OFFCURVE",
"411 475 OFFCURVE",
"332 358 CURVE SMOOTH",
"251 240 OFFCURVE",
"210 166 OFFCURVE",
"210 137 CURVE SMOOTH",
"210 130 OFFCURVE",
"212 124 OFFCURVE",
"215 119 CURVE SMOOTH",
"220 112 OFFCURVE",
"224 109 OFFCURVE",
"229 109 CURVE SMOOTH"
);
},
{
closed = 1;
nodes = (
"174 311 OFFCURVE",
"266 366 OFFCURVE",
"266 445 CURVE SMOOTH",
"266 478 OFFCURVE",
"249 503 OFFCURVE",
"214 518 CURVE",
"243 543 OFFCURVE",
"258 571 OFFCURVE",
"258 602 CURVE SMOOTH",
"258 637 OFFCURVE",
"232 655 OFFCURVE",
"181 655 CURVE SMOOTH",
"128 655 OFFCURVE",
"28 626 OFFCURVE",
"28 590 CURVE SMOOTH",
"28 577 OFFCURVE",
"42 571 OFFCURVE",
"69 571 CURVE SMOOTH",
"93 571 OFFCURVE",
"113 573 OFFCURVE",
"128 577 CURVE SMOOTH",
"133 579 OFFCURVE",
"135 582 OFFCURVE",
"135 585 CURVE SMOOTH",
"135 590 OFFCURVE",
"132 593 OFFCURVE",
"127 593 CURVE SMOOTH",
"105 593 OFFCURVE",
"92 582 OFFCURVE",
"68 582 CURVE SMOOTH",
"57 582 OFFCURVE",
"50 585 OFFCURVE",
"45 590 CURVE",
"50 618 OFFCURVE",
"137 644 OFFCURVE",
"185 644 CURVE SMOOTH",
"223 644 OFFCURVE",
"242 631 OFFCURVE",
"242 604 CURVE SMOOTH",
"242 573 OFFCURVE",
"229 546 OFFCURVE",
"202 522 CURVE",
"187 529 OFFCURVE",
"171 530 OFFCURVE",
"152 530 CURVE SMOOTH",
"109 530 OFFCURVE",
"60 514 OFFCURVE",
"58 477 CURVE",
"57 476 LINE",
"56 468 OFFCURVE",
"64 464 OFFCURVE",
"81 464 CURVE SMOOTH",
"116 464 OFFCURVE",
"153 476 OFFCURVE",
"190 501 CURVE",
"211 489 OFFCURVE",
"222 471 OFFCURVE",
"222 446 CURVE SMOOTH",
"222 374 OFFCURVE",
"157 328 OFFCURVE",
"84 328 CURVE SMOOTH",
"58 328 OFFCURVE",
"45 337 OFFCURVE",
"45 356 CURVE SMOOTH",
"45 385 OFFCURVE",
"77 408 OFFCURVE",
"107 408 CURVE SMOOTH",
"112 408 OFFCURVE",
"115 404 OFFCURVE",
"116 397 CURVE SMOOTH",
"117 389 OFFCURVE",
"119 385 OFFCURVE",
"124 385 CURVE SMOOTH",
"130 385 OFFCURVE",
"133 388 OFFCURVE",
"133 393 CURVE SMOOTH",
"133 414 OFFCURVE",
"124 425 OFFCURVE",
"107 425 CURVE SMOOTH",
"71 425 OFFCURVE",
"27 396 OFFCURVE",
"27 355 CURVE SMOOTH",
"27 326 OFFCURVE",
"46 311 OFFCURVE",
"84 311 CURVE SMOOTH"
);
},
{
closed = 1;
nodes = (
"99 481 OFFCURVE",
"93 483 OFFCURVE",
"88 486 CURVE",
"88 488 LINE SMOOTH",
"88 506 OFFCURVE",
"120 514 OFFCURVE",
"140 514 CURVE SMOOTH",
"153 514 OFFCURVE",
"167 511 OFFCURVE",
"181 506 CURVE",
"154 489 OFFCURVE",
"130 481 OFFCURVE",
"107 481 CURVE SMOOTH"
);
},
{
closed = 1;
nodes = (
"588 14 OFFCURVE",
"594 16 OFFCURVE",
"601 20 CURVE SMOOTH",
"608 23 OFFCURVE",
"612 27 OFFCURVE",
"612 32 CURVE SMOOTH",
"612 43 OFFCURVE",
"611 62 OFFCURVE",
"604 90 CURVE SMOOTH",
"598 118 OFFCURVE",
"595 138 OFFCURVE",
"595 150 CURVE",
"620 143 OFFCURVE",
"641 142 OFFCURVE",
"660 142 CURVE SMOOTH",
"701 142 OFFCURVE",
"747 160 OFFCURVE",
"747 196 CURVE SMOOTH",
"747 227 OFFCURVE",
"709 242 OFFCURVE",
"675 242 CURVE SMOOTH",
"645 242 OFFCURVE",
"605 233 OFFCURVE",
"605 202 CURVE SMOOTH",
"605 187 OFFCURVE",
"613 179 OFFCURVE",
"630 179 CURVE SMOOTH",
"644 179 OFFCURVE",
"672 185 OFFCURVE",
"672 195 CURVE SMOOTH",
"672 201 OFFCURVE",
"669 204 OFFCURVE",
"664 204 CURVE SMOOTH",
"660 204 OFFCURVE",
"643 195 OFFCURVE",
"631 195 CURVE SMOOTH",
"625 195 OFFCURVE",
"622 197 OFFCURVE",
"622 202 CURVE SMOOTH",
"622 219 OFFCURVE",
"653 224 OFFCURVE",
"675 224 CURVE SMOOTH",
"711 224 OFFCURVE",
"729 215 OFFCURVE",
"729 196 CURVE SMOOTH",
"729 177 OFFCURVE",
"702 168 OFFCURVE",
"649 168 CURVE SMOOTH",
"632 168 OFFCURVE",
"614 170 OFFCURVE",
"594 173 CURVE",
"594 254 OFFCURVE",
"607 319 OFFCURVE",
"632 370 CURVE",
"633 371 OFFCURVE",
"634 373 OFFCURVE",
"634 375 CURVE SMOOTH",
"634 380 OFFCURVE",
"631 383 OFFCURVE",
"625 383 CURVE SMOOTH",
"623 383 OFFCURVE",
"621 382 OFFCURVE",
"618 379 CURVE",
"603 356 OFFCURVE",
"593 325 OFFCURVE",
"582 282 CURVE SMOOTH",
"575 247 OFFCURVE",
"569 214 OFFCURVE",
"565 179 CURVE",
"512 190 OFFCURVE",
"476 196 OFFCURVE",
"455 196 CURVE SMOOTH",
"450 196 LINE",
"489 237 OFFCURVE",
"519 267 OFFCURVE",
"539 287 CURVE SMOOTH",
"571 317 OFFCURVE",
"587 335 OFFCURVE",
"587 341 CURVE SMOOTH",
"587 344 OFFCURVE",
"585 346 OFFCURVE",
"580 346 CURVE SMOOTH",
"576 346 OFFCURVE",
"572 345 OFFCURVE",
"569 342 CURVE SMOOTH",
"553 327 OFFCURVE",
"541 316 OFFCURVE",
"534 311 CURVE",
"460 240 LINE SMOOTH",
"437 217 OFFCURVE",
"422 206 OFFCURVE",
"415 203 CURVE SMOOTH",
"405 198 OFFCURVE",
"400 193 OFFCURVE",
"400 188 CURVE SMOOTH",
"400 184 OFFCURVE",
"402 181 OFFCURVE",
"406 178 CURVE SMOOTH",
"411 175 OFFCURVE",
"415 173 OFFCURVE",
"418 173 CURVE SMOOTH",
"422 173 OFFCURVE",
"428 174 OFFCURVE",
"435 177 CURVE SMOOTH",
"440 179 OFFCURVE",
"444 179 OFFCURVE",
"447 179 CURVE SMOOTH",
"453 179 LINE SMOOTH",
"474 179 OFFCURVE",
"511 172 OFFCURVE",
"563 159 CURVE",
"563 123 LINE SMOOTH",
"563 72 OFFCURVE",
"567 37 OFFCURVE",
"576 18 CURVE SMOOTH",
"577 15 OFFCURVE",
"580 14 OFFCURVE",
"583 14 CURVE SMOOTH"
);
}
);
width = 810;
}
);
note = threequarters;
unicode = 00BE;
userData = {
KernOnSpecialSpacing = {
};
};
}
{
glyphname = threesuperior;
layers = (
{
background = {
paths = (
{
closed = 1;
nodes = (
"128 311 OFFCURVE",
"168 322 OFFCURVE",
"203 345 CURVE SMOOTH",
"245 372 OFFCURVE",
"266 405 OFFCURVE",
"266 445 CURVE SMOOTH",
"266 478 OFFCURVE",
"249 503 OFFCURVE",
"214 518 CURVE",
"243 543 OFFCURVE",
"258 571 OFFCURVE",
"258 602 CURVE SMOOTH",
"258 637 OFFCURVE",
"232 655 OFFCURVE",
"181 655 CURVE SMOOTH",
"145 655 OFFCURVE",
"108 648 OFFCURVE",
"69 629 CURVE SMOOTH",
"42 617 OFFCURVE",
"28 604 OFFCURVE",
"28 590 CURVE SMOOTH",
"28 577 OFFCURVE",
"42 571 OFFCURVE",
"69 571 CURVE SMOOTH",
"93 571 OFFCURVE",
"113 573 OFFCURVE",
"128 577 CURVE SMOOTH",
"133 579 OFFCURVE",
"135 582 OFFCURVE",
"135 585 CURVE SMOOTH",
"135 590 OFFCURVE",
"132 593 OFFCURVE",
"127 593 CURVE SMOOTH",
"122 593 OFFCURVE",
"114 592 OFFCURVE",
"99 588 CURVE SMOOTH",
"86 584 OFFCURVE",
"75 582 OFFCURVE",
"68 582 CURVE SMOOTH",
"57 582 OFFCURVE",
"50 585 OFFCURVE",
"45 590 CURVE",
"47 601 OFFCURVE",
"61 612 OFFCURVE",
"86 622 CURVE SMOOTH",
"121 637 OFFCURVE",
"154 644 OFFCURVE",
"185 644 CURVE SMOOTH",
"223 644 OFFCURVE",
"242 631 OFFCURVE",
"242 604 CURVE SMOOTH",
"242 573 OFFCURVE",
"229 546 OFFCURVE",
"202 522 CURVE",
"187 529 OFFCURVE",
"171 530 OFFCURVE",
"152 530 CURVE SMOOTH",
"131 530 OFFCURVE",
"111 527 OFFCURVE",
"94 519 CURVE SMOOTH",
"71 510 OFFCURVE",
"59 496 OFFCURVE",
"58 477 CURVE",
"57 476 LINE",
"56 468 OFFCURVE",
"64 464 OFFCURVE",
"81 464 CURVE SMOOTH",
"116 464 OFFCURVE",
"153 476 OFFCURVE",
"190 501 CURVE",
"211 489 OFFCURVE",
"222 471 OFFCURVE",
"222 446 CURVE SMOOTH",
"222 411 OFFCURVE",
"208 382 OFFCURVE",
"179 359 CURVE SMOOTH",
"151 338 OFFCURVE",
"119 328 OFFCURVE",
"84 328 CURVE SMOOTH",
"58 328 OFFCURVE",
"45 337 OFFCURVE",
"45 356 CURVE SMOOTH",
"45 370 OFFCURVE",
"52 382 OFFCURVE",
"65 393 CURVE SMOOTH",
"79 403 OFFCURVE",
"93 408 OFFCURVE",
"107 408 CURVE SMOOTH",
"112 408 OFFCURVE",
"115 404 OFFCURVE",
"116 397 CURVE SMOOTH",
"117 389 OFFCURVE",
"119 385 OFFCURVE",
"124 385 CURVE SMOOTH",
"130 385 OFFCURVE",
"133 388 OFFCURVE",
"133 393 CURVE SMOOTH",
"133 414 OFFCURVE",
"124 425 OFFCURVE",
"107 425 CURVE SMOOTH",
"88 425 OFFCURVE",
"70 418 OFFCURVE",
"53 405 CURVE SMOOTH",
"36 391 OFFCURVE",
"27 374 OFFCURVE",
"27 355 CURVE SMOOTH",
"27 326 OFFCURVE",
"46 311 OFFCURVE",
"84 311 CURVE SMOOTH"
);
},
{
closed = 1;
nodes = (
"99 481 OFFCURVE",
"93 483 OFFCURVE",
"88 486 CURVE",
"88 488 LINE SMOOTH",
"88 497 OFFCURVE",
"95 504 OFFCURVE",
"108 508 CURVE SMOOTH",
"118 512 OFFCURVE",
"129 514 OFFCURVE",
"140 514 CURVE SMOOTH",
"153 514 OFFCURVE",
"167 511 OFFCURVE",
"181 506 CURVE",
"154 489 OFFCURVE",
"130 481 OFFCURVE",
"107 481 CURVE SMOOTH"
);
}
);
};
layerId = "04B30934-05D4-410C-A3F8-810C0079C645";
paths = (
{
closed = 1;
nodes = (
"171 311 OFFCURVE",
"266 363 OFFCURVE",
"266 445 CURVE SMOOTH",
"266 478 OFFCURVE",
"249 503 OFFCURVE",
"214 518 CURVE",
"243 543 OFFCURVE",
"258 571 OFFCURVE",
"258 602 CURVE SMOOTH",
"258 637 OFFCURVE",
"232 655 OFFCURVE",
"181 655 CURVE SMOOTH",
"145 655 OFFCURVE",
"108 648 OFFCURVE",
"69 629 CURVE SMOOTH",
"42 617 OFFCURVE",
"28 604 OFFCURVE",
"28 590 CURVE SMOOTH",
"28 577 OFFCURVE",
"42 571 OFFCURVE",
"69 571 CURVE SMOOTH",
"93 571 OFFCURVE",
"113 573 OFFCURVE",
"128 577 CURVE SMOOTH",
"133 579 OFFCURVE",
"135 582 OFFCURVE",
"135 585 CURVE SMOOTH",
"135 590 OFFCURVE",
"132 593 OFFCURVE",
"127 593 CURVE SMOOTH",
"122 593 OFFCURVE",
"114 592 OFFCURVE",
"99 588 CURVE SMOOTH",
"86 584 OFFCURVE",
"75 582 OFFCURVE",
"68 582 CURVE SMOOTH",
"57 582 OFFCURVE",
"50 585 OFFCURVE",
"45 590 CURVE",
"47 601 OFFCURVE",
"61 612 OFFCURVE",
"86 622 CURVE SMOOTH",
"121 637 OFFCURVE",
"154 644 OFFCURVE",
"185 644 CURVE SMOOTH",
"223 644 OFFCURVE",
"242 631 OFFCURVE",
"242 604 CURVE SMOOTH",
"242 573 OFFCURVE",
"229 546 OFFCURVE",
"202 522 CURVE",
"187 529 OFFCURVE",
"171 530 OFFCURVE",
"152 530 CURVE SMOOTH",
"115 530 OFFCURVE",
"60 517 OFFCURVE",
"58 477 CURVE",
"57 476 LINE",
"56 468 OFFCURVE",
"64 464 OFFCURVE",
"81 464 CURVE SMOOTH",
"116 464 OFFCURVE",
"153 476 OFFCURVE",
"190 501 CURVE",
"211 489 OFFCURVE",
"222 471 OFFCURVE",
"222 446 CURVE SMOOTH",
"222 373 OFFCURVE",
"156 328 OFFCURVE",
"84 328 CURVE SMOOTH",
"58 328 OFFCURVE",
"45 337 OFFCURVE",
"45 356 CURVE SMOOTH",
"45 386 OFFCURVE",
"78 408 OFFCURVE",
"107 408 CURVE SMOOTH",
"112 408 OFFCURVE",
"115 404 OFFCURVE",
"116 397 CURVE SMOOTH",
"117 389 OFFCURVE",
"119 385 OFFCURVE",
"124 385 CURVE SMOOTH",
"130 385 OFFCURVE",
"133 388 OFFCURVE",
"133 393 CURVE SMOOTH",
"133 414 OFFCURVE",
"124 425 OFFCURVE",
"107 425 CURVE SMOOTH",
"72 425 OFFCURVE",
"27 396 OFFCURVE",
"27 355 CURVE SMOOTH",
"27 326 OFFCURVE",
"46 311 OFFCURVE",
"84 311 CURVE SMOOTH"
);
},
{
closed = 1;
nodes = (
"99 481 OFFCURVE",
"93 483 OFFCURVE",
"88 486 CURVE",
"88 488 LINE SMOOTH",
"88 507 OFFCURVE",
"121 514 OFFCURVE",
"140 514 CURVE SMOOTH",
"153 514 OFFCURVE",
"167 511 OFFCURVE",
"181 506 CURVE",
"154 489 OFFCURVE",
"130 481 OFFCURVE",
"107 481 CURVE SMOOTH"
);
}
);
width = 324;
}
);
note = threesuperior;
unicode = 00B3;
userData = {
KernOnSpecialSpacing = {
L = superiors;
R = superiors;
};
};
}
{
glyphname = twosuperior;
layers = (
{
background = {
paths = (
{
closed = 1;
nodes = (
"254 322 OFFCURVE",
"269 326 OFFCURVE",
"284 335 CURVE SMOOTH",
"302 347 OFFCURVE",
"308 362 OFFCURVE",
"308 379 CURVE SMOOTH",
"308 382 OFFCURVE",
"308 385 OFFCURVE",
"306 389 CURVE SMOOTH",
"303 396 OFFCURVE",
"300 399 OFFCURVE",
"297 399 CURVE SMOOTH",
"293 399 OFFCURVE",
"291 397 OFFCURVE",
"291 393 CURVE SMOOTH",
"291 391 OFFCURVE",
"292 388 OFFCURVE",
"294 383 CURVE SMOOTH",
"296 379 OFFCURVE",
"297 376 OFFCURVE",
"297 373 CURVE SMOOTH",
"297 358 OFFCURVE",
"282 350 OFFCURVE",
"253 350 CURVE SMOOTH",
"231 350 OFFCURVE",
"196 365 OFFCURVE",
"149 396 CURVE",
"188 419 OFFCURVE",
"223 448 OFFCURVE",
"254 483 CURVE SMOOTH",
"293 526 OFFCURVE",
"312 565 OFFCURVE",
"312 601 CURVE SMOOTH",
"312 636 OFFCURVE",
"287 654 OFFCURVE",
"238 654 CURVE SMOOTH",
"191 654 OFFCURVE",
"152 644 OFFCURVE",
"119 624 CURVE SMOOTH",
"78 600 LINE",
"63 589 OFFCURVE",
"56 576 OFFCURVE",
"56 561 CURVE SMOOTH",
"56 554 OFFCURVE",
"59 548 OFFCURVE",
"64 543 CURVE SMOOTH",
"69 538 OFFCURVE",
"75 535 OFFCURVE",
"84 535 CURVE SMOOTH",
"96 535 OFFCURVE",
"108 538 OFFCURVE",
"119 544 CURVE",
"145 565 LINE SMOOTH",
"149 569 OFFCURVE",
"154 572 OFFCURVE",
"159 575 CURVE",
"163 579 OFFCURVE",
"165 582 OFFCURVE",
"165 585 CURVE SMOOTH",
"165 588 OFFCURVE",
"164 590 OFFCURVE",
"163 591 CURVE",
"164 590 OFFCURVE",
"157 584 OFFCURVE",
"141 573 CURVE SMOOTH",
"124 562 OFFCURVE",
"110 556 OFFCURVE",
"100 556 CURVE SMOOTH",
"87 556 OFFCURVE",
"80 560 OFFCURVE",
"80 567 CURVE SMOOTH",
"80 576 OFFCURVE",
"89 587 OFFCURVE",
"107 599 CURVE SMOOTH",
"122 610 OFFCURVE",
"142 619 OFFCURVE",
"166 626 CURVE SMOOTH",
"191 634 OFFCURVE",
"212 638 OFFCURVE",
"229 638 CURVE SMOOTH",
"262 638 OFFCURVE",
"278 624 OFFCURVE",
"278 595 CURVE SMOOTH",
"278 561 OFFCURVE",
"262 524 OFFCURVE",
"231 485 CURVE SMOOTH",
"205 451 OFFCURVE",
"174 424 OFFCURVE",
"139 403 CURVE",
"100 428 OFFCURVE",
"75 441 OFFCURVE",
"63 441 CURVE SMOOTH",
"50 441 OFFCURVE",
"39 437 OFFCURVE",
"28 428 CURVE SMOOTH",
"18 419 OFFCURVE",
"13 408 OFFCURVE",
"13 396 CURVE SMOOTH",
"13 375 OFFCURVE",
"26 364 OFFCURVE",
"52 364 CURVE SMOOTH",
"71 364 OFFCURVE",
"92 370 OFFCURVE",
"117 381 CURVE",
"160 342 OFFCURVE",
"201 322 OFFCURVE",
"238 322 CURVE SMOOTH"
);
},
{
closed = 1;
nodes = (
"50 380 OFFCURVE",
"43 387 OFFCURVE",
"43 400 CURVE SMOOTH",
"43 416 OFFCURVE",
"50 424 OFFCURVE",
"63 424 CURVE SMOOTH",
"70 424 OFFCURVE",
"85 412 OFFCURVE",
"108 389 CURVE",
"93 383 OFFCURVE",
"78 380 OFFCURVE",
"65 380 CURVE SMOOTH"
);
}
);
};
layerId = "04B30934-05D4-410C-A3F8-810C0079C645";
paths = (
{
closed = 1;
nodes = (
"271 322 OFFCURVE",
"308 340 OFFCURVE",
"308 379 CURVE SMOOTH",
"308 382 OFFCURVE",
"308 385 OFFCURVE",
"306 389 CURVE SMOOTH",
"303 396 OFFCURVE",
"300 399 OFFCURVE",
"297 399 CURVE SMOOTH",
"293 399 OFFCURVE",
"291 397 OFFCURVE",
"291 393 CURVE SMOOTH",
"291 391 OFFCURVE",
"292 388 OFFCURVE",
"294 383 CURVE SMOOTH",
"296 379 OFFCURVE",
"297 376 OFFCURVE",
"297 373 CURVE SMOOTH",
"297 358 OFFCURVE",
"282 350 OFFCURVE",
"253 350 CURVE SMOOTH",
"231 350 OFFCURVE",
"196 365 OFFCURVE",
"149 396 CURVE",
"188 419 OFFCURVE",
"223 448 OFFCURVE",
"254 483 CURVE SMOOTH",
"293 526 OFFCURVE",
"312 565 OFFCURVE",
"312 601 CURVE SMOOTH",
"312 636 OFFCURVE",
"287 654 OFFCURVE",
"238 654 CURVE SMOOTH",
"191 654 OFFCURVE",
"152 644 OFFCURVE",
"119 624 CURVE SMOOTH",
"78 600 LINE",
"63 589 OFFCURVE",
"56 576 OFFCURVE",
"56 561 CURVE SMOOTH",
"56 554 OFFCURVE",
"59 548 OFFCURVE",
"64 543 CURVE SMOOTH",
"69 538 OFFCURVE",
"75 535 OFFCURVE",
"84 535 CURVE SMOOTH",
"96 535 OFFCURVE",
"108 538 OFFCURVE",
"119 544 CURVE",
"145 565 LINE SMOOTH",
"149 569 OFFCURVE",
"154 572 OFFCURVE",
"159 575 CURVE",
"163 579 OFFCURVE",
"165 582 OFFCURVE",
"165 585 CURVE SMOOTH",
"165 588 OFFCURVE",
"164 590 OFFCURVE",
"163 591 CURVE",
"164 590 OFFCURVE",
"157 584 OFFCURVE",
"141 573 CURVE SMOOTH",
"124 562 OFFCURVE",
"110 556 OFFCURVE",
"100 556 CURVE SMOOTH",
"87 556 OFFCURVE",
"80 560 OFFCURVE",
"80 567 CURVE SMOOTH",
"80 576 OFFCURVE",
"89 587 OFFCURVE",
"107 599 CURVE SMOOTH",
"122 610 OFFCURVE",
"142 619 OFFCURVE",
"166 626 CURVE SMOOTH",
"191 634 OFFCURVE",
"212 638 OFFCURVE",
"229 638 CURVE SMOOTH",
"262 638 OFFCURVE",
"278 624 OFFCURVE",
"278 595 CURVE SMOOTH",
"278 561 OFFCURVE",
"262 524 OFFCURVE",
"231 485 CURVE SMOOTH",
"205 451 OFFCURVE",
"174 424 OFFCURVE",
"139 403 CURVE",
"100 428 OFFCURVE",
"75 441 OFFCURVE",
"63 441 CURVE SMOOTH",
"36 441 OFFCURVE",
"13 422 OFFCURVE",
"13 396 CURVE SMOOTH",
"13 375 OFFCURVE",
"26 364 OFFCURVE",
"52 364 CURVE SMOOTH",
"71 364 OFFCURVE",
"92 370 OFFCURVE",
"117 381 CURVE",
"160 342 OFFCURVE",
"201 322 OFFCURVE",
"238 322 CURVE SMOOTH"
);
},
{
closed = 1;
nodes = (
"50 380 OFFCURVE",
"43 387 OFFCURVE",
"43 400 CURVE SMOOTH",
"43 416 OFFCURVE",
"50 424 OFFCURVE",
"63 424 CURVE SMOOTH",
"70 424 OFFCURVE",
"85 412 OFFCURVE",
"108 389 CURVE",
"93 383 OFFCURVE",
"78 380 OFFCURVE",
"65 380 CURVE SMOOTH"
);
}
);
width = 364;
}
);
note = twosuperior;
unicode = 00B2;
userData = {
KernOnSpecialSpacing = {
L = superiors;
R = superiors;
};
};
}
{
color = 5;
glyphname = uacute;
layers = (
{
background = {
paths = (
{
closed = 1;
nodes = (
"165 -4 OFFCURVE",
"206 92 OFFCURVE",
"230 171 CURVE",
"241 118 OFFCURVE",
"262 66 OFFCURVE",
"305 27 CURVE SMOOTH",
"321 12 OFFCURVE",
"342 5 OFFCURVE",
"364 5 CURVE SMOOTH",
"379 5 OFFCURVE",
"394 8 OFFCURVE",
"409 13 CURVE SMOOTH",
"424 19 LINE SMOOTH",
"428 20 OFFCURVE",
"432 25 OFFCURVE",
"432 27 CURVE SMOOTH",
"432 28 OFFCURVE",
"432 29 OFFCURVE",
"430 29 CURVE SMOOTH",
"428 29 OFFCURVE",
"426 29 OFFCURVE",
"422 27 CURVE SMOOTH",
"416 25 OFFCURVE",
"410 23 OFFCURVE",
"404 23 CURVE SMOOTH",
"391 23 OFFCURVE",
"378 29 OFFCURVE",
"365 41 CURVE SMOOTH",
"312 89 OFFCURVE",
"276 221 OFFCURVE",
"273 288 CURVE",
"275 300 OFFCURVE",
"219 259 OFFCURVE",
"219 248 CURVE SMOOTH",
"220 229 OFFCURVE",
"223 211 OFFCURVE",
"226 192 CURVE",
"205 116 OFFCURVE",
"160 8 OFFCURVE",
"111 13 CURVE",
"93 16 OFFCURVE",
"85 42 OFFCURVE",
"85 76 CURVE SMOOTH",
"85 151 OFFCURVE",
"122 269 OFFCURVE",
"134 299 CURVE",
"136 309 OFFCURVE",
"97 356 OFFCURVE",
"92 345 CURVE SMOOTH",
"78 318 OFFCURVE",
"34 251 OFFCURVE",
"8 212 CURVE SMOOTH",
"5 208 OFFCURVE",
"9 203 OFFCURVE",
"12 207 CURVE SMOOTH",
"31 231 OFFCURVE",
"38 242 OFFCURVE",
"47 253 CURVE",
"34 184 OFFCURVE",
"21 97 OFFCURVE",
"24 63 CURVE SMOOTH",
"27 32 OFFCURVE",
"56 29 OFFCURVE",
"92 6 CURVE SMOOTH",
"98 3 LINE",
"102 2 OFFCURVE",
"105 1 OFFCURVE",
"108 1 CURVE SMOOTH"
);
},
{
closed = 1;
nodes = (
"185 411 OFFCURVE",
"190 413 OFFCURVE",
"195 416 CURVE SMOOTH",
"236 441 OFFCURVE",
"281 462 OFFCURVE",
"328 480 CURVE SMOOTH",
"334 483 OFFCURVE",
"339 488 OFFCURVE",
"342 495 CURVE",
"345 509 OFFCURVE",
"340 517 OFFCURVE",
"327 518 CURVE",
"314 521 OFFCURVE",
"290 510 OFFCURVE",
"256 485 CURVE SMOOTH",
"189 437 LINE",
"178 431 OFFCURVE",
"174 424 OFFCURVE",
"174 418 CURVE SMOOTH",
"174 414 OFFCURVE",
"176 412 OFFCURVE",
"180 411 CURVE SMOOTH"
);
}
);
};
components = (
{
name = u;
},
{
name = acutecomb;
transform = "{1, 0, 0, 1, 126, -26}";
}
);
layerId = "04B30934-05D4-410C-A3F8-810C0079C645";
width = 364;
}
);
note = uacute;
unicode = 00FA;
}
{
color = 5;
glyphname = ucircumflex;
layers = (
{
background = {
paths = (
{
closed = 1;
nodes = (
"165 -4 OFFCURVE",
"206 92 OFFCURVE",
"230 171 CURVE",
"241 118 OFFCURVE",
"262 66 OFFCURVE",
"305 27 CURVE SMOOTH",
"321 12 OFFCURVE",
"342 5 OFFCURVE",
"364 5 CURVE SMOOTH",
"379 5 OFFCURVE",
"394 8 OFFCURVE",
"409 13 CURVE SMOOTH",
"424 19 LINE SMOOTH",
"428 20 OFFCURVE",
"432 25 OFFCURVE",
"432 27 CURVE SMOOTH",
"432 28 OFFCURVE",
"432 29 OFFCURVE",
"430 29 CURVE SMOOTH",
"428 29 OFFCURVE",
"426 29 OFFCURVE",
"422 27 CURVE SMOOTH",
"416 25 OFFCURVE",
"410 23 OFFCURVE",
"404 23 CURVE SMOOTH",
"391 23 OFFCURVE",
"378 29 OFFCURVE",
"365 41 CURVE SMOOTH",
"312 89 OFFCURVE",
"276 221 OFFCURVE",
"273 288 CURVE",
"275 300 OFFCURVE",
"219 259 OFFCURVE",
"219 248 CURVE SMOOTH",
"220 229 OFFCURVE",
"223 211 OFFCURVE",
"226 192 CURVE",
"205 116 OFFCURVE",
"160 8 OFFCURVE",
"111 13 CURVE",
"93 16 OFFCURVE",
"85 42 OFFCURVE",
"85 76 CURVE SMOOTH",
"85 151 OFFCURVE",
"122 269 OFFCURVE",
"134 299 CURVE",
"136 309 OFFCURVE",
"97 356 OFFCURVE",
"92 345 CURVE SMOOTH",
"78 318 OFFCURVE",
"34 251 OFFCURVE",
"8 212 CURVE SMOOTH",
"5 208 OFFCURVE",
"9 203 OFFCURVE",
"12 207 CURVE SMOOTH",
"31 231 OFFCURVE",
"38 242 OFFCURVE",
"47 253 CURVE",
"34 184 OFFCURVE",
"21 97 OFFCURVE",
"24 63 CURVE SMOOTH",
"27 32 OFFCURVE",
"56 29 OFFCURVE",
"92 6 CURVE SMOOTH",
"98 3 LINE",
"102 2 OFFCURVE",
"105 1 OFFCURVE",
"108 1 CURVE SMOOTH"
);
},
{
closed = 1;
nodes = (
"294 407 OFFCURVE",
"297 410 OFFCURVE",
"297 417 CURVE SMOOTH",
"297 426 OFFCURVE",
"282 445 OFFCURVE",
"253 472 CURVE SMOOTH",
"234 491 OFFCURVE",
"220 500 OFFCURVE",
"212 500 CURVE SMOOTH",
"203 500 OFFCURVE",
"182 489 OFFCURVE",
"151 468 CURVE SMOOTH",
"119 446 OFFCURVE",
"103 431 OFFCURVE",
"103 423 CURVE SMOOTH",
"103 419 OFFCURVE",
"106 417 OFFCURVE",
"112 417 CURVE SMOOTH",
"114 417 OFFCURVE",
"130 423 OFFCURVE",
"161 436 CURVE SMOOTH",
"190 449 OFFCURVE",
"206 458 OFFCURVE",
"213 461 CURVE",
"237 449 OFFCURVE",
"256 433 OFFCURVE",
"273 416 CURVE SMOOTH",
"279 410 OFFCURVE",
"284 407 OFFCURVE",
"287 407 CURVE SMOOTH"
);
}
);
};
components = (
{
name = u;
},
{
name = circumflexcomb;
transform = "{1, 0, 0, 1, 81, -26}";
}
);
layerId = "04B30934-05D4-410C-A3F8-810C0079C645";
width = 364;
}
);
note = ucircumflex;
unicode = 00FB;
}
{
color = 5;
glyphname = ydieresis;
layers = (
{
background = {
paths = (
{
closed = 1;
nodes = (
"15 -328 OFFCURVE",
"37 -331 OFFCURVE",
"57 -331 CURVE SMOOTH",
"231 -331 OFFCURVE",
"283 -114 OFFCURVE",
"283 81 CURVE SMOOTH",
"283 163 OFFCURVE",
"274 240 OFFCURVE",
"261 296 CURVE",
"276 314 OFFCURVE",
"290 325 OFFCURVE",
"303 325 CURVE SMOOTH",
"308 325 OFFCURVE",
"312 324 OFFCURVE",
"316 321 CURVE SMOOTH",
"323 317 OFFCURVE",
"326 322 OFFCURVE",
"319 326 CURVE SMOOTH",
"306 334 OFFCURVE",
"292 336 OFFCURVE",
"279 336 CURVE SMOOTH",
"211 336 OFFCURVE",
"181 219 OFFCURVE",
"165 167 CURVE SMOOTH",
"154 136 OFFCURVE",
"147 103 OFFCURVE",
"136 64 CURVE SMOOTH",
"132 49 LINE",
"132 138 OFFCURVE",
"127 288 OFFCURVE",
"30 288 CURVE SMOOTH",
"13 288 OFFCURVE",
"-5 283 OFFCURVE",
"-14 277 CURVE SMOOTH",
"-20 272 OFFCURVE",
"-22 266 OFFCURVE",
"-22 261 CURVE SMOOTH",
"-22 257 OFFCURVE",
"-20 254 OFFCURVE",
"-17 254 CURVE SMOOTH",
"-15 254 OFFCURVE",
"-12 256 OFFCURVE",
"-8 261 CURVE SMOOTH",
"-1 271 OFFCURVE",
"6 276 OFFCURVE",
"13 276 CURVE SMOOTH",
"16 276 OFFCURVE",
"18 275 OFFCURVE",
"21 274 CURVE SMOOTH",
"69 248 OFFCURVE",
"80 114 OFFCURVE",
"80 37 CURVE SMOOTH",
"80 17 OFFCURVE",
"79 1 OFFCURVE",
"78 -8 CURVE",
"73 -18 OFFCURVE",
"125 3 OFFCURVE",
"130 14 CURVE",
"131 14 LINE",
"131 20 LINE",
"136 52 OFFCURVE",
"188 189 OFFCURVE",
"241 269 CURVE",
"244 245 OFFCURVE",
"245 216 OFFCURVE",
"245 185 CURVE SMOOTH",
"245 -11 OFFCURVE",
"190 -319 OFFCURVE",
"32 -319 CURVE SMOOTH",
"23 -319 OFFCURVE",
"12 -317 OFFCURVE",
"2 -315 CURVE SMOOTH",
"-79 -297 OFFCURVE",
"-112 -239 OFFCURVE",
"-112 -183 CURVE SMOOTH",
"-112 -118 OFFCURVE",
"-68 -54 OFFCURVE",
"-4 -54 CURVE SMOOTH",
"69 -54 OFFCURVE",
"110 -127 OFFCURVE",
"110 -181 CURVE SMOOTH",
"110 -213 OFFCURVE",
"95 -239 OFFCURVE",
"62 -239 CURVE SMOOTH",
"57 -239 OFFCURVE",
"51 -238 OFFCURVE",
"45 -237 CURVE SMOOTH",
"8 -228 OFFCURVE",
"-33 -187 OFFCURVE",
"-33 -151 CURVE SMOOTH",
"-33 -142 OFFCURVE",
"-30 -133 OFFCURVE",
"-23 -125 CURVE SMOOTH",
"-16 -118 OFFCURVE",
"-6 -115 OFFCURVE",
"4 -115 CURVE SMOOTH",
"12 -115 OFFCURVE",
"20 -116 OFFCURVE",
"27 -120 CURVE SMOOTH",
"31 -122 OFFCURVE",
"34 -122 OFFCURVE",
"36 -122 CURVE SMOOTH",
"38 -122 OFFCURVE",
"39 -122 OFFCURVE",
"39 -120 CURVE SMOOTH",
"39 -116 OFFCURVE",
"27 -108 OFFCURVE",
"5 -108 CURVE SMOOTH",
"-11 -108 OFFCURVE",
"-27 -113 OFFCURVE",
"-35 -122 CURVE",
"-45 -132 OFFCURVE",
"-50 -145 OFFCURVE",
"-50 -159 CURVE SMOOTH",
"-50 -201 OFFCURVE",
"-11 -252 OFFCURVE",
"35 -262 CURVE SMOOTH",
"43 -264 OFFCURVE",
"50 -265 OFFCURVE",
"56 -265 CURVE SMOOTH",
"99 -265 OFFCURVE",
"121 -227 OFFCURVE",
"121 -182 CURVE SMOOTH",
"121 -124 OFFCURVE",
"84 -53 OFFCURVE",
"9 -36 CURVE SMOOTH",
"-5 -33 OFFCURVE",
"-19 -31 OFFCURVE",
"-31 -31 CURVE SMOOTH",
"-112 -31 OFFCURVE",
"-162 -93 OFFCURVE",
"-162 -160 CURVE SMOOTH",
"-162 -224 OFFCURVE",
"-116 -294 OFFCURVE",
"-8 -322 CURVE SMOOTH"
);
},
{
closed = 1;
nodes = (
"115 446 OFFCURVE",
"138 463 OFFCURVE",
"138 484 CURVE SMOOTH",
"138 505 OFFCURVE",
"128 522 OFFCURVE",
"107 522 CURVE SMOOTH",
"86 522 OFFCURVE",
"62 505 OFFCURVE",
"62 484 CURVE SMOOTH",
"62 463 OFFCURVE",
"71 446 OFFCURVE",
"92 446 CURVE SMOOTH"
);
},
{
closed = 1;
nodes = (
"237 446 OFFCURVE",
"260 463 OFFCURVE",
"260 484 CURVE SMOOTH",
"260 505 OFFCURVE",
"250 522 OFFCURVE",
"229 522 CURVE SMOOTH",
"208 522 OFFCURVE",
"184 505 OFFCURVE",
"184 484 CURVE SMOOTH",
"184 463 OFFCURVE",
"193 446 OFFCURVE",
"214 446 CURVE SMOOTH"
);
}
);
};
components = (
{
name = y;
},
{
name = dieresiscomb;
transform = "{1, 0, 0, 1, -34, -26}";
}
);
layerId = "04B30934-05D4-410C-A3F8-810C0079C645";
width = 222;
}
);
note = ydieresis;
unicode = 00FF;
}
{
glyphname = yen;
layers = (
{
layerId = "04B30934-05D4-410C-A3F8-810C0079C645";
paths = (
{
closed = 1;
nodes = (
"589 506 OFFCURVE",
"581 505 OFFCURVE",
"574 502 CURVE SMOOTH",
"530 483 OFFCURVE",
"478 445 OFFCURVE",
"433 392 CURVE SMOOTH",
"393 343 OFFCURVE",
"362 288 OFFCURVE",
"342 242 CURVE",
"341 242 LINE",
"341 253 OFFCURVE",
"342 264 OFFCURVE",
"342 275 CURVE SMOOTH",
"342 386 OFFCURVE",
"324 520 OFFCURVE",
"203 520 CURVE SMOOTH",
"150 520 OFFCURVE",
"100 492 OFFCURVE",
"63 456 CURVE SMOOTH",
"27 421 OFFCURVE",
"0 381 OFFCURVE",
"0 339 CURVE SMOOTH",
"0 295 OFFCURVE",
"49 256 OFFCURVE",
"105 256 CURVE SMOOTH",
"168 256 OFFCURVE",
"243 303 OFFCURVE",
"246 351 CURVE SMOOTH",
"246 382 OFFCURVE",
"214 416 OFFCURVE",
"168 416 CURVE SMOOTH",
"115 416 OFFCURVE",
"59 367 OFFCURVE",
"59 327 CURVE SMOOTH",
"59 309 OFFCURVE",
"75 300 OFFCURVE",
"95 300 CURVE SMOOTH",
"136 300 OFFCURVE",
"179 337 OFFCURVE",
"179 367 CURVE SMOOTH",
"179 375 OFFCURVE",
"174 382 OFFCURVE",
"161 386 CURVE SMOOTH",
"156 388 OFFCURVE",
"153 389 OFFCURVE",
"150 389 CURVE SMOOTH",
"148 389 OFFCURVE",
"147 388 OFFCURVE",
"146 388 CURVE SMOOTH",
"139 388 OFFCURVE",
"143 385 OFFCURVE",
"148 385 CURVE SMOOTH",
"149 385 OFFCURVE",
"152 385 OFFCURVE",
"155 384 CURVE SMOOTH",
"164 381 OFFCURVE",
"167 375 OFFCURVE",
"167 370 CURVE SMOOTH",
"167 348 OFFCURVE",
"130 319 OFFCURVE",
"98 319 CURVE SMOOTH",
"83 319 OFFCURVE",
"72 325 OFFCURVE",
"72 338 CURVE SMOOTH",
"72 366 OFFCURVE",
"116 403 OFFCURVE",
"157 403 CURVE SMOOTH",
"188 403 OFFCURVE",
"208 381 OFFCURVE",
"208 360 CURVE SMOOTH",
"208 326 OFFCURVE",
"140 267 OFFCURVE",
"91 267 CURVE SMOOTH",
"58 267 OFFCURVE",
"38 298 OFFCURVE",
"38 327 CURVE SMOOTH",
"38 370 OFFCURVE",
"66 417 OFFCURVE",
"106 452 CURVE SMOOTH",
"148 489 OFFCURVE",
"182 506 OFFCURVE",
"210 506 CURVE SMOOTH",
"277 506 OFFCURVE",
"304 406 OFFCURVE",
"304 266 CURVE SMOOTH",
"304 243 LINE",
"284 243 OFFCURVE",
"265 243 OFFCURVE",
"250 240 CURVE SMOOTH",
"230 237 OFFCURVE",
"211 223 OFFCURVE",
"218 220 CURVE SMOOTH",
"232 215 OFFCURVE",
"265 213 OFFCURVE",
"303 212 CURVE",
"302 208 OFFCURVE",
"302 204 OFFCURVE",
"302 200 CURVE SMOOTH",
"302 191 OFFCURVE",
"300 178 OFFCURVE",
"298 164 CURVE",
"287 164 LINE SMOOTH",
"266 164 OFFCURVE",
"246 164 OFFCURVE",
"230 161 CURVE SMOOTH",
"210 158 OFFCURVE",
"191 144 OFFCURVE",
"198 141 CURVE SMOOTH",
"213 135 OFFCURVE",
"252 133 OFFCURVE",
"294 133 CURVE",
"286 82 OFFCURVE",
"273 21 OFFCURVE",
"264 -10 CURVE SMOOTH",
"262 -16 OFFCURVE",
"261 -21 OFFCURVE",
"261 -24 CURVE SMOOTH",
"261 -33 OFFCURVE",
"266 -36 OFFCURVE",
"272 -36 CURVE SMOOTH",
"283 -36 OFFCURVE",
"301 -27 OFFCURVE",
"310 -27 CURVE",
"315 10 OFFCURVE",
"326 47 OFFCURVE",
"336 109 CURVE",
"342 134 LINE",
"377 135 OFFCURVE",
"409 137 OFFCURVE",
"421 140 CURVE SMOOTH",
"439 145 OFFCURVE",
"446 150 OFFCURVE",
"446 154 CURVE SMOOTH",
"446 158 OFFCURVE",
"438 161 OFFCURVE",
"425 161 CURVE SMOOTH",
"404 160 OFFCURVE",
"377 161 OFFCURVE",
"350 162 CURVE",
"366 213 LINE",
"400 214 OFFCURVE",
"429 216 OFFCURVE",
"441 219 CURVE SMOOTH",
"459 224 OFFCURVE",
"466 229 OFFCURVE",
"466 233 CURVE SMOOTH",
"466 237 OFFCURVE",
"458 240 OFFCURVE",
"445 240 CURVE SMOOTH",
"425 239 OFFCURVE",
"402 240 OFFCURVE",
"377 241 CURVE",
"401 304 OFFCURVE",
"425 340 OFFCURVE",
"446 364 CURVE SMOOTH",
"495 427 OFFCURVE",
"568 494 OFFCURVE",
"594 494 CURVE SMOOTH",
"598 494 OFFCURVE",
"601 493 OFFCURVE",
"602 489 CURVE",
"602 484 OFFCURVE",
"598 478 OFFCURVE",
"594 468 CURVE SMOOTH",
"592 460 OFFCURVE",
"590 454 OFFCURVE",
"590 450 CURVE SMOOTH",
"591 443 OFFCURVE",
"594 439 OFFCURVE",
"598 439 CURVE SMOOTH",
"605 439 OFFCURVE",
"617 450 OFFCURVE",
"626 476 CURVE",
"628 479 OFFCURVE",
"629 483 OFFCURVE",
"629 486 CURVE SMOOTH",
"628 500 OFFCURVE",
"613 506 OFFCURVE",
"596 506 CURVE SMOOTH"
);
}
);
width = 513;
}
);
note = yen;
unicode = 00A5;
}
{
glyphname = candle;
layers = (
{
hints = (
{
horizontal = 1;
place = "{-385, 20}";
type = Stem;
},
{
horizontal = 1;
place = "{462, 330}";
type = Stem;
},
{
place = "{84, 136}";
type = Stem;
}
);
layerId = "04B30934-05D4-410C-A3F8-810C0079C645";
paths = (
{
closed = 1;
nodes = (
"248 624 OFFCURVE",
"244 645 OFFCURVE",
"240 656 CURVE",
"224 656 LINE",
"220 649 OFFCURVE",
"214 637 OFFCURVE",
"207 634 CURVE",
"199 692 OFFCURVE",
"195 752 OFFCURVE",
"160 792 CURVE",
"142 792 LINE",
"134 775 OFFCURVE",
"136 763 OFFCURVE",
"136 747 CURVE SMOOTH",
"136 732 OFFCURVE",
"134 713 OFFCURVE",
"122 685 CURVE SMOOTH",
"104 643 OFFCURVE",
"72 609 OFFCURVE",
"72 554 CURVE SMOOTH",
"72 530 OFFCURVE",
"103 462 OFFCURVE",
"151 462 CURVE SMOOTH",
"207 462 OFFCURVE",
"248 592 OFFCURVE",
"248 614 CURVE SMOOTH"
);
},
{
closed = 1;
nodes = (
"230 -246 OFFCURVE",
"219 -194 OFFCURVE",
"219 -186 CURVE SMOOTH",
"219 72 LINE SMOOTH",
"219 209 OFFCURVE",
"204 248 OFFCURVE",
"204 268 CURVE SMOOTH",
"204 286 OFFCURVE",
"226 378 OFFCURVE",
"226 413 CURVE SMOOTH",
"226 422 OFFCURVE",
"221 444 OFFCURVE",
"206 444 CURVE SMOOTH",
"170 444 OFFCURVE",
"124 434 OFFCURVE",
"85 429 CURVE",
"79 419 OFFCURVE",
"78 361 OFFCURVE",
"78 304 CURVE SMOOTH",
"78 213 LINE SMOOTH",
"78 177 OFFCURVE",
"69 132 OFFCURVE",
"69 97 CURVE SMOOTH",
"69 -32 OFFCURVE",
"83 -66 OFFCURVE",
"83 -90 CURVE SMOOTH",
"83 -339 LINE SMOOTH",
"83 -357 OFFCURVE",
"97 -385 OFFCURVE",
"127 -385 CURVE SMOOTH",
"179 -385 LINE SMOOTH",
"225 -385 OFFCURVE",
"230 -283 OFFCURVE",
"230 -259 CURVE SMOOTH"
);
}
);
width = 333;
}
);
note = r;
unicode = 1F56F;
userData = {
KernOnSpecialSpacing = {
L = symbols;
R = symbols;
};
};
}
{
glyphname = asterisk;
layers = (
{
background = {
paths = (
{
closed = 1;
nodes = (
"191 290 OFFCURVE",
"196 294 OFFCURVE",
"196 302 CURVE SMOOTH",
"196 329 OFFCURVE",
"197 362 OFFCURVE",
"197 402 CURVE",
"258 355 LINE SMOOTH",
"261 353 OFFCURVE",
"264 352 OFFCURVE",
"269 352 CURVE SMOOTH",
"284 352 OFFCURVE",
"291 356 OFFCURVE",
"291 365 CURVE SMOOTH",
"291 366 OFFCURVE",
"289 368 OFFCURVE",
"286 371 CURVE SMOOTH",
"207 434 LINE",
"237 458 OFFCURVE",
"263 480 OFFCURVE",
"284 499 CURVE",
"289 502 OFFCURVE",
"291 506 OFFCURVE",
"291 513 CURVE SMOOTH",
"291 524 OFFCURVE",
"287 529 OFFCURVE",
"279 529 CURVE",
"198 466 LINE",
"198 477 OFFCURVE",
"198 492 OFFCURVE",
"197 511 CURVE SMOOTH",
"197 544 LINE SMOOTH",
"197 558 OFFCURVE",
"192 565 OFFCURVE",
"183 565 CURVE SMOOTH",
"170 565 OFFCURVE",
"164 560 OFFCURVE",
"164 551 CURVE SMOOTH",
"164 540 OFFCURVE",
"163 527 OFFCURVE",
"166 508 CURVE SMOOTH",
"167 488 OFFCURVE",
"167 475 OFFCURVE",
"167 464 CURVE",
"118 501 OFFCURVE",
"88 519 OFFCURVE",
"77 519 CURVE SMOOTH",
"68 519 OFFCURVE",
"64 512 OFFCURVE",
"64 497 CURVE SMOOTH",
"64 490 OFFCURVE",
"66 485 OFFCURVE",
"69 482 CURVE",
"100 463 OFFCURVE",
"128 446 OFFCURVE",
"155 431 CURVE",
"109 392 OFFCURVE",
"86 367 OFFCURVE",
"86 356 CURVE SMOOTH",
"86 345 OFFCURVE",
"90 339 OFFCURVE",
"98 339 CURVE SMOOTH",
"101 339 OFFCURVE",
"103 340 OFFCURVE",
"105 342 CURVE SMOOTH",
"168 400 LINE",
"169 361 OFFCURVE",
"169 329 OFFCURVE",
"169 302 CURVE SMOOTH",
"169 294 OFFCURVE",
"173 290 OFFCURVE",
"182 290 CURVE SMOOTH"
);
}
);
};
layerId = "04B30934-05D4-410C-A3F8-810C0079C645";
paths = (
{
closed = 1;
nodes = (
"191 290 OFFCURVE",
"196 294 OFFCURVE",
"196 302 CURVE SMOOTH",
"197 402 LINE",
"258 355 LINE SMOOTH",
"261 353 OFFCURVE",
"264 352 OFFCURVE",
"269 352 CURVE SMOOTH",
"284 352 OFFCURVE",
"291 356 OFFCURVE",
"291 365 CURVE SMOOTH",
"291 366 OFFCURVE",
"289 368 OFFCURVE",
"286 371 CURVE SMOOTH",
"207 434 LINE",
"237 458 OFFCURVE",
"263 480 OFFCURVE",
"284 499 CURVE",
"289 502 OFFCURVE",
"291 506 OFFCURVE",
"291 513 CURVE SMOOTH",
"291 524 OFFCURVE",
"287 529 OFFCURVE",
"279 529 CURVE",
"198 466 LINE",
"197 511 LINE",
"197 544 LINE SMOOTH",
"197 558 OFFCURVE",
"192 565 OFFCURVE",
"183 565 CURVE SMOOTH",
"170 565 OFFCURVE",
"164 560 OFFCURVE",
"164 551 CURVE SMOOTH",
"164 540 OFFCURVE",
"163 527 OFFCURVE",
"166 508 CURVE",
"167 464 LINE",
"118 501 OFFCURVE",
"88 519 OFFCURVE",
"77 519 CURVE SMOOTH",
"68 519 OFFCURVE",
"64 512 OFFCURVE",
"64 497 CURVE SMOOTH",
"64 490 OFFCURVE",
"66 485 OFFCURVE",
"69 482 CURVE",
"100 463 OFFCURVE",
"128 446 OFFCURVE",
"155 431 CURVE",
"109 392 OFFCURVE",
"86 367 OFFCURVE",
"86 356 CURVE SMOOTH",
"86 345 OFFCURVE",
"90 339 OFFCURVE",
"98 339 CURVE SMOOTH",
"101 339 OFFCURVE",
"103 340 OFFCURVE",
"105 342 CURVE SMOOTH",
"168 400 LINE",
"169 302 LINE SMOOTH",
"169 294 OFFCURVE",
"173 290 OFFCURVE",
"182 290 CURVE SMOOTH"
);
}
);
width = 356;
}
);
note = asterisk;
unicode = 002A;
userData = {
KernOnSpecialSpacing = {
L = quotes;
R = quotes;
};
};
}
{
glyphname = comma;
layers = (
{
background = {
paths = (
{
closed = 1;
nodes = (
"32 -158 OFFCURVE",
"34 -157 OFFCURVE",
"37 -156 CURVE",
"103 -120 OFFCURVE",
"158 -54 OFFCURVE",
"158 23 CURVE SMOOTH",
"158 71 OFFCURVE",
"141 95 OFFCURVE",
"108 95 CURVE SMOOTH",
"77 95 OFFCURVE",
"49 71 OFFCURVE",
"49 41 CURVE SMOOTH",
"49 21 OFFCURVE",
"67 0 OFFCURVE",
"106 0 CURVE SMOOTH",
"111 0 OFFCURVE",
"117 0 OFFCURVE",
"123 1 CURVE",
"121 -57 OFFCURVE",
"92 -103 OFFCURVE",
"36 -137 CURVE SMOOTH",
"29 -141 OFFCURVE",
"25 -146 OFFCURVE",
"25 -153 CURVE SMOOTH",
"25 -156 OFFCURVE",
"27 -158 OFFCURVE",
"31 -158 CURVE SMOOTH"
);
}
);
};
layerId = "04B30934-05D4-410C-A3F8-810C0079C645";
paths = (
{
closed = 1;
nodes = (
"32 -158 OFFCURVE",
"34 -157 OFFCURVE",
"37 -156 CURVE",
"103 -120 OFFCURVE",
"158 -54 OFFCURVE",
"158 23 CURVE SMOOTH",
"158 71 OFFCURVE",
"141 95 OFFCURVE",
"108 95 CURVE SMOOTH",
"77 95 OFFCURVE",
"49 71 OFFCURVE",
"49 41 CURVE SMOOTH",
"49 21 OFFCURVE",
"67 0 OFFCURVE",
"106 0 CURVE SMOOTH",
"111 0 OFFCURVE",
"117 0 OFFCURVE",
"123 1 CURVE",
"121 -57 OFFCURVE",
"92 -103 OFFCURVE",
"36 -137 CURVE SMOOTH",
"29 -141 OFFCURVE",
"25 -146 OFFCURVE",
"25 -153 CURVE SMOOTH",
"25 -156 OFFCURVE",
"27 -158 OFFCURVE",
"31 -158 CURVE SMOOTH"
);
}
);
width = 205;
}
);
note = comma;
unicode = 002C;
userData = {
KernOnSpecialSpacing = {
L = period;
R = period;
};
};
}
{
color = 1;
glyphname = doubleprimemod;
layers = (
{
background = {
paths = (
{
closed = 1;
nodes = (
"106 441 OFFCURVE",
"107 438 OFFCURVE",
"110 438 CURVE SMOOTH",
"113 438 OFFCURVE",
"119 443 OFFCURVE",
"121 452 CURVE SMOOTH",
"129 481 OFFCURVE",
"140 512 OFFCURVE",
"140 542 CURVE SMOOTH",
"140 565 OFFCURVE",
"134 596 OFFCURVE",
"113 596 CURVE SMOOTH",
"105 596 OFFCURVE",
"100 588 OFFCURVE",
"100 575 CURVE SMOOTH",
"100 534 OFFCURVE",
"100 492 OFFCURVE",
"105 447 CURVE SMOOTH"
);
},
{
closed = 1;
nodes = (
"200 441 OFFCURVE",
"201 438 OFFCURVE",
"204 438 CURVE SMOOTH",
"207 438 OFFCURVE",
"213 443 OFFCURVE",
"215 452 CURVE SMOOTH",
"223 481 OFFCURVE",
"234 512 OFFCURVE",
"234 542 CURVE SMOOTH",
"234 565 OFFCURVE",
"228 596 OFFCURVE",
"207 596 CURVE SMOOTH",
"199 596 OFFCURVE",
"194 588 OFFCURVE",
"194 575 CURVE SMOOTH",
"194 534 OFFCURVE",
"194 492 OFFCURVE",
"199 447 CURVE SMOOTH"
);
}
);
};
layerId = "04B30934-05D4-410C-A3F8-810C0079C645";
paths = (
{
closed = 1;
nodes = (
"106 441 OFFCURVE",
"107 438 OFFCURVE",
"110 438 CURVE SMOOTH",
"113 438 OFFCURVE",
"119 443 OFFCURVE",
"121 452 CURVE SMOOTH",
"129 481 OFFCURVE",
"140 512 OFFCURVE",
"140 542 CURVE SMOOTH",
"140 565 OFFCURVE",
"134 596 OFFCURVE",
"113 596 CURVE SMOOTH",
"105 596 OFFCURVE",
"100 588 OFFCURVE",
"100 575 CURVE SMOOTH",
"100 534 OFFCURVE",
"100 492 OFFCURVE",
"105 447 CURVE SMOOTH"
);
},
{
closed = 1;
nodes = (
"200 441 OFFCURVE",
"201 438 OFFCURVE",
"204 438 CURVE SMOOTH",
"207 438 OFFCURVE",
"213 443 OFFCURVE",
"215 452 CURVE SMOOTH",
"223 481 OFFCURVE",
"234 512 OFFCURVE",
"234 542 CURVE SMOOTH",
"234 565 OFFCURVE",
"228 596 OFFCURVE",
"207 596 CURVE SMOOTH",
"199 596 OFFCURVE",
"194 588 OFFCURVE",
"194 575 CURVE SMOOTH",
"194 534 OFFCURVE",
"194 492 OFFCURVE",
"199 447 CURVE SMOOTH"
);
}
);
width = 334;
}
);
unicode = 02BA;
}
{
color = 4;
glyphname = hyphen;
layers = (
{
background = {
paths = (
{
closed = 1;
nodes = (
"217 188 OFFCURVE",
"270 191 OFFCURVE",
"287 195 CURVE SMOOTH",
"305 200 OFFCURVE",
"312 205 OFFCURVE",
"312 209 CURVE SMOOTH",
"312 213 OFFCURVE",
"304 216 OFFCURVE",
"291 216 CURVE SMOOTH",
"253 215 OFFCURVE",
"200 219 OFFCURVE",
"154 219 CURVE SMOOTH",
"133 219 OFFCURVE",
"113 219 OFFCURVE",
"96 216 CURVE SMOOTH",
"77 213 OFFCURVE",
"58 199 OFFCURVE",
"65 196 CURVE SMOOTH",
"81 190 OFFCURVE",
"123 188 OFFCURVE",
"167 188 CURVE SMOOTH"
);
}
);
};
layerId = "04B30934-05D4-410C-A3F8-810C0079C645";
paths = (
{
closed = 1;
nodes = (
"217 296 OFFCURVE",
"270 299 OFFCURVE",
"287 303 CURVE SMOOTH",
"305 308 OFFCURVE",
"312 313 OFFCURVE",
"312 317 CURVE SMOOTH",
"312 321 OFFCURVE",
"304 324 OFFCURVE",
"291 324 CURVE SMOOTH",
"253 323 OFFCURVE",
"200 327 OFFCURVE",
"154 327 CURVE SMOOTH",
"133 327 OFFCURVE",
"113 327 OFFCURVE",
"96 324 CURVE SMOOTH",
"77 321 OFFCURVE",
"58 307 OFFCURVE",
"65 304 CURVE SMOOTH",
"81 298 OFFCURVE",
"123 296 OFFCURVE",
"167 296 CURVE SMOOTH"
);
}
);
width = 328;
}
);
note = hyphen;
unicode = 002D;
userData = {
KernOnName = hyphen;
KernOnSpecialSpacing = {
L = hyphen;
R = hyphen;
};
};
}
{
color = 4;
glyphname = plus;
layers = (
{
background = {
paths = (
{
closed = 1;
nodes = (
"186 29 OFFCURVE",
"190 31 OFFCURVE",
"194 35 CURVE SMOOTH",
"219 60 OFFCURVE",
"232 99 OFFCURVE",
"234 153 CURVE",
"242 151 OFFCURVE",
"251 150 OFFCURVE",
"261 150 CURVE SMOOTH",
"293 150 OFFCURVE",
"320 155 OFFCURVE",
"343 164 CURVE SMOOTH",
"350 167 OFFCURVE",
"353 171 OFFCURVE",
"353 176 CURVE SMOOTH",
"353 185 OFFCURVE",
"349 190 OFFCURVE",
"340 190 CURVE SMOOTH",
"333 190 OFFCURVE",
"323 189 OFFCURVE",
"309 187 CURVE SMOOTH",
"301 185 OFFCURVE",
"294 185 OFFCURVE",
"289 185 CURVE SMOOTH",
"285 185 OFFCURVE",
"282 185 OFFCURVE",
"279 185 CURVE SMOOTH",
"259 185 OFFCURVE",
"245 185 OFFCURVE",
"234 186 CURVE",
"230 245 OFFCURVE",
"228 281 OFFCURVE",
"228 296 CURVE SMOOTH",
"228 305 OFFCURVE",
"223 310 OFFCURVE",
"213 310 CURVE SMOOTH",
"205 310 OFFCURVE",
"201 305 OFFCURVE",
"201 296 CURVE SMOOTH",
"201 290 OFFCURVE",
"199 209 OFFCURVE",
"199 194 CURVE",
"179 200 OFFCURVE",
"156 203 OFFCURVE",
"131 203 CURVE SMOOTH",
"104 203 OFFCURVE",
"77 191 OFFCURVE",
"50 167 CURVE SMOOTH",
"47 164 OFFCURVE",
"45 161 OFFCURVE",
"45 158 CURVE SMOOTH",
"45 149 OFFCURVE",
"49 144 OFFCURVE",
"58 144 CURVE",
"89 159 OFFCURVE",
"112 167 OFFCURVE",
"128 167 CURVE SMOOTH",
"155 167 OFFCURVE",
"176 164 OFFCURVE",
"199 159 CURVE",
"199 156 LINE SMOOTH",
"199 101 OFFCURVE",
"192 67 OFFCURVE",
"179 55 CURVE SMOOTH",
"175 51 OFFCURVE",
"173 47 OFFCURVE",
"173 42 CURVE SMOOTH",
"173 33 OFFCURVE",
"176 29 OFFCURVE",
"183 29 CURVE SMOOTH"
);
}
);
};
layerId = "04B30934-05D4-410C-A3F8-810C0079C645";
paths = (
{
closed = 1;
nodes = (
"186 149 OFFCURVE",
"190 151 OFFCURVE",
"194 155 CURVE SMOOTH",
"219 180 OFFCURVE",
"232 219 OFFCURVE",
"234 273 CURVE",
"242 271 OFFCURVE",
"251 270 OFFCURVE",
"261 270 CURVE SMOOTH",
"293 270 OFFCURVE",
"320 275 OFFCURVE",
"343 284 CURVE SMOOTH",
"350 287 OFFCURVE",
"353 291 OFFCURVE",
"353 296 CURVE SMOOTH",
"353 305 OFFCURVE",
"349 310 OFFCURVE",
"340 310 CURVE SMOOTH",
"333 310 OFFCURVE",
"323 309 OFFCURVE",
"309 307 CURVE SMOOTH",
"301 305 OFFCURVE",
"294 305 OFFCURVE",
"289 305 CURVE SMOOTH",
"279 305 LINE SMOOTH",
"259 305 OFFCURVE",
"245 305 OFFCURVE",
"234 306 CURVE",
"230 365 OFFCURVE",
"228 401 OFFCURVE",
"228 416 CURVE SMOOTH",
"228 425 OFFCURVE",
"223 430 OFFCURVE",
"213 430 CURVE SMOOTH",
"205 430 OFFCURVE",
"201 425 OFFCURVE",
"201 416 CURVE SMOOTH",
"199 314 LINE",
"179 320 OFFCURVE",
"156 323 OFFCURVE",
"131 323 CURVE SMOOTH",
"104 323 OFFCURVE",
"77 311 OFFCURVE",
"50 287 CURVE SMOOTH",
"47 284 OFFCURVE",
"45 281 OFFCURVE",
"45 278 CURVE SMOOTH",
"45 269 OFFCURVE",
"49 264 OFFCURVE",
"58 264 CURVE",
"89 279 OFFCURVE",
"112 287 OFFCURVE",
"128 287 CURVE SMOOTH",
"155 287 OFFCURVE",
"176 284 OFFCURVE",
"199 279 CURVE",
"199 276 LINE SMOOTH",
"199 221 OFFCURVE",
"192 187 OFFCURVE",
"179 175 CURVE SMOOTH",
"175 171 OFFCURVE",
"173 167 OFFCURVE",
"173 162 CURVE SMOOTH",
"173 153 OFFCURVE",
"176 149 OFFCURVE",
"183 149 CURVE SMOOTH"
);
}
);
width = 384;
}
);
note = plus;
unicode = 002B;
userData = {
KernOnSpecialSpacing = {
L = math;
R = math;
};
};
}
{
glyphname = slash;
layers = (
{
background = {
paths = (
{
closed = 1;
nodes = (
"71 -81 OFFCURVE",
"73 -79 OFFCURVE",
"73 -74 CURVE SMOOTH",
"73 -71 OFFCURVE",
"71 -65 OFFCURVE",
"68 -56 CURVE SMOOTH",
"65 -47 OFFCURVE",
"63 -42 OFFCURVE",
"63 -39 CURVE SMOOTH",
"63 4 OFFCURVE",
"125 107 OFFCURVE",
"250 268 CURVE SMOOTH",
"355 405 OFFCURVE",
"439 505 OFFCURVE",
"500 569 CURVE SMOOTH",
"501 570 OFFCURVE",
"502 571 OFFCURVE",
"502 572 CURVE SMOOTH",
"502 577 OFFCURVE",
"498 581 OFFCURVE",
"490 585 CURVE SMOOTH",
"483 588 OFFCURVE",
"475 590 OFFCURVE",
"468 590 CURVE SMOOTH",
"460 590 LINE",
"428 578 OFFCURVE",
"350 485 OFFCURVE",
"226 302 CURVE SMOOTH",
"101 120 OFFCURVE",
"38 6 OFFCURVE",
"38 -39 CURVE SMOOTH",
"38 -47 OFFCURVE",
"41 -56 OFFCURVE",
"46 -67 CURVE",
"52 -76 OFFCURVE",
"59 -81 OFFCURVE",
"68 -81 CURVE SMOOTH"
);
}
);
};
layerId = "04B30934-05D4-410C-A3F8-810C0079C645";
paths = (
{
closed = 1;
nodes = (
"71 -81 OFFCURVE",
"73 -79 OFFCURVE",
"73 -74 CURVE SMOOTH",
"73 -71 OFFCURVE",
"71 -65 OFFCURVE",
"68 -56 CURVE SMOOTH",
"65 -47 OFFCURVE",
"63 -42 OFFCURVE",
"63 -39 CURVE SMOOTH",
"63 4 OFFCURVE",
"125 107 OFFCURVE",
"250 268 CURVE SMOOTH",
"355 405 OFFCURVE",
"439 505 OFFCURVE",
"500 569 CURVE SMOOTH",
"501 570 OFFCURVE",
"502 571 OFFCURVE",
"502 572 CURVE SMOOTH",
"502 577 OFFCURVE",
"498 581 OFFCURVE",
"490 585 CURVE SMOOTH",
"483 588 OFFCURVE",
"475 590 OFFCURVE",
"468 590 CURVE SMOOTH",
"460 590 LINE",
"428 578 OFFCURVE",
"350 485 OFFCURVE",
"226 302 CURVE SMOOTH",
"101 120 OFFCURVE",
"38 6 OFFCURVE",
"38 -39 CURVE SMOOTH",
"38 -47 OFFCURVE",
"41 -56 OFFCURVE",
"46 -67 CURVE",
"52 -76 OFFCURVE",
"59 -81 OFFCURVE",
"68 -81 CURVE SMOOTH"
);
}
);
width = 534;
}
);
note = slash;
unicode = 002F;
userData = {
KernOnSpecialSpacing = {
L = slash;
R = slash;
};
};
}
{
glyphname = colon;
layers = (
{
background = {
paths = (
{
closed = 1;
nodes = (
"179 209 OFFCURVE",
"212 232 OFFCURVE",
"212 261 CURVE SMOOTH",
"212 290 OFFCURVE",
"199 313 OFFCURVE",
"170 313 CURVE SMOOTH",
"141 313 OFFCURVE",
"108 290 OFFCURVE",
"108 261 CURVE SMOOTH",
"108 232 OFFCURVE",
"121 209 OFFCURVE",
"150 209 CURVE SMOOTH"
);
},
{
closed = 1;
nodes = (
"166 1 OFFCURVE",
"199 24 OFFCURVE",
"199 53 CURVE SMOOTH",
"199 82 OFFCURVE",
"186 105 OFFCURVE",
"157 105 CURVE SMOOTH",
"128 105 OFFCURVE",
"95 82 OFFCURVE",
"95 53 CURVE SMOOTH",
"95 24 OFFCURVE",
"108 1 OFFCURVE",
"137 1 CURVE SMOOTH"
);
}
);
};
layerId = "04B30934-05D4-410C-A3F8-810C0079C645";
paths = (
{
closed = 1;
nodes = (
"179 209 OFFCURVE",
"212 232 OFFCURVE",
"212 261 CURVE SMOOTH",
"212 290 OFFCURVE",
"199 313 OFFCURVE",
"170 313 CURVE SMOOTH",
"141 313 OFFCURVE",
"108 290 OFFCURVE",
"108 261 CURVE SMOOTH",
"108 232 OFFCURVE",
"121 209 OFFCURVE",
"150 209 CURVE SMOOTH"
);
},
{
closed = 1;
nodes = (
"166 1 OFFCURVE",
"199 24 OFFCURVE",
"199 53 CURVE SMOOTH",
"199 82 OFFCURVE",
"186 105 OFFCURVE",
"157 105 CURVE SMOOTH",
"128 105 OFFCURVE",
"95 82 OFFCURVE",
"95 53 CURVE SMOOTH",
"95 24 OFFCURVE",
"108 1 OFFCURVE",
"137 1 CURVE SMOOTH"
);
}
);
width = 268;
}
);
note = colon;
unicode = 003A;
userData = {
KernOnSpecialSpacing = {
L = "spaced-off";
R = "spaced-off";
};
};
}
{
color = 4;
glyphname = greater;
layers = (
{
background = {
paths = (
{
closed = 1;
nodes = (
"98 123 OFFCURVE",
"101 124 OFFCURVE",
"107 124 CURVE",
"132 127 OFFCURVE",
"191 183 OFFCURVE",
"247 239 CURVE SMOOTH",
"286 276 OFFCURVE",
"300 300 OFFCURVE",
"300 309 CURVE",
"297 320 OFFCURVE",
"225 386 OFFCURVE",
"187 416 CURVE SMOOTH",
"147 443 OFFCURVE",
"121 457 OFFCURVE",
"107 457 CURVE SMOOTH",
"100 457 OFFCURVE",
"97 453 OFFCURVE",
"97 448 CURVE SMOOTH",
"97 447 OFFCURVE",
"97 447 OFFCURVE",
"97 446 CURVE SMOOTH",
"97 443 OFFCURVE",
"111 426 OFFCURVE",
"134 399 CURVE SMOOTH",
"158 369 OFFCURVE",
"228 300 OFFCURVE",
"236 292 CURVE",
"213 256 OFFCURVE",
"153 188 OFFCURVE",
"118 156 CURVE SMOOTH",
"103 144 OFFCURVE",
"98 137 OFFCURVE",
"98 130 CURVE SMOOTH",
"98 126 OFFCURVE",
"97 124 OFFCURVE",
"97 123 CURVE"
);
}
);
};
layerId = "04B30934-05D4-410C-A3F8-810C0079C645";
paths = (
{
closed = 1;
nodes = (
"98 133 OFFCURVE",
"101 134 OFFCURVE",
"107 134 CURVE SMOOTH",
"132 137 OFFCURVE",
"191 193 OFFCURVE",
"247 249 CURVE SMOOTH",
"286 286 OFFCURVE",
"300 310 OFFCURVE",
"300 319 CURVE",
"297 330 OFFCURVE",
"225 396 OFFCURVE",
"187 426 CURVE",
"147 453 OFFCURVE",
"121 467 OFFCURVE",
"107 467 CURVE SMOOTH",
"100 467 OFFCURVE",
"97 463 OFFCURVE",
"97 458 CURVE SMOOTH",
"97 456 LINE SMOOTH",
"97 453 OFFCURVE",
"111 436 OFFCURVE",
"134 409 CURVE SMOOTH",
"158 379 OFFCURVE",
"228 310 OFFCURVE",
"236 302 CURVE",
"213 266 OFFCURVE",
"153 198 OFFCURVE",
"118 166 CURVE SMOOTH",
"103 154 OFFCURVE",
"98 147 OFFCURVE",
"98 140 CURVE SMOOTH",
"98 136 OFFCURVE",
"97 134 OFFCURVE",
"97 133 CURVE"
);
}
);
width = 346;
}
);
note = greater;
unicode = 003E;
userData = {
KernOnSpecialSpacing = {
L = math;
R = math;
};
};
}
{
color = 5;
glyphname = N;
layers = (
{
anchors = (
{
name = bottom;
position = "{621, 0}";
},
{
name = top;
position = "{776, 800}";
}
);
background = {
paths = (
{
closed = 1;
nodes = (
"916 -165 OFFCURVE",
"917 -164 OFFCURVE",
"917 -163 CURVE SMOOTH",
"917 -161 OFFCURVE",
"913 -157 OFFCURVE",
"902 -151 CURVE",
"842 -134 OFFCURVE",
"820 -70 OFFCURVE",
"820 13 CURVE SMOOTH",
"820 238 OFFCURVE",
"979 613 OFFCURVE",
"994 655 CURVE SMOOTH",
"1000 675 OFFCURVE",
"1003 692 OFFCURVE",
"1003 708 CURVE SMOOTH",
"1003 770 OFFCURVE",
"959 799 OFFCURVE",
"929 799 CURVE SMOOTH",
"908 799 OFFCURVE",
"879 784 OFFCURVE",
"842 741 CURVE SMOOTH",
"786 677 OFFCURVE",
"740 611 OFFCURVE",
"701 543 CURVE SMOOTH",
"678 504 OFFCURVE",
"651 457 OFFCURVE",
"623 402 CURVE",
"639 467 OFFCURVE",
"647 525 OFFCURVE",
"647 577 CURVE SMOOTH",
"647 698 OFFCURVE",
"592 794 OFFCURVE",
"482 794 CURVE SMOOTH",
"384 794 OFFCURVE",
"264 722 OFFCURVE",
"185 645 CURVE SMOOTH",
"98 558 OFFCURVE",
"34 463 OFFCURVE",
"34 358 CURVE SMOOTH",
"34 303 OFFCURVE",
"55 254 OFFCURVE",
"133 199 CURVE SMOOTH",
"161 178 OFFCURVE",
"196 169 OFFCURVE",
"232 169 CURVE SMOOTH",
"354 169 OFFCURVE",
"510 271 OFFCURVE",
"510 393 CURVE SMOOTH",
"510 465 OFFCURVE",
"451 537 OFFCURVE",
"365 537 CURVE SMOOTH",
"269 537 OFFCURVE",
"145 428 OFFCURVE",
"145 338 CURVE SMOOTH",
"145 297 OFFCURVE",
"176 275 OFFCURVE",
"217 275 CURVE SMOOTH",
"292 275 OFFCURVE",
"384 358 OFFCURVE",
"384 426 CURVE SMOOTH",
"384 443 OFFCURVE",
"376 459 OFFCURVE",
"355 469 CURVE SMOOTH",
"346 473 OFFCURVE",
"337 475 OFFCURVE",
"328 475 CURVE SMOOTH",
"315 474 OFFCURVE",
"323 469 OFFCURVE",
"330 468 CURVE SMOOTH",
"333 467 OFFCURVE",
"338 466 OFFCURVE",
"346 463 CURVE SMOOTH",
"361 457 OFFCURVE",
"366 444 OFFCURVE",
"366 432 CURVE SMOOTH",
"366 384 OFFCURVE",
"286 317 OFFCURVE",
"226 317 CURVE SMOOTH",
"196 317 OFFCURVE",
"174 332 OFFCURVE",
"174 360 CURVE SMOOTH",
"174 423 OFFCURVE",
"270 510 OFFCURVE",
"345 510 CURVE SMOOTH",
"406 510 OFFCURVE",
"440 462 OFFCURVE",
"440 413 CURVE SMOOTH",
"440 324 OFFCURVE",
"289 198 OFFCURVE",
"198 198 CURVE SMOOTH",
"136 198 OFFCURVE",
"104 261 OFFCURVE",
"104 325 CURVE SMOOTH",
"104 433 OFFCURVE",
"182 541 OFFCURVE",
"267 632 CURVE SMOOTH",
"337 711 OFFCURVE",
"423 783 OFFCURVE",
"488 783 CURVE SMOOTH",
"558 783 OFFCURVE",
"595 689 OFFCURVE",
"595 597 CURVE SMOOTH",
"595 427 OFFCURVE",
"499 187 OFFCURVE",
"415 22 CURVE",
"423 -2 OFFCURVE",
"434 -9 OFFCURVE",
"448 -9 CURVE SMOOTH",
"455 -9 OFFCURVE",
"462 -8 OFFCURVE",
"469 -5 CURVE",
"508 80 OFFCURVE",
"543 177 OFFCURVE",
"588 281 CURVE SMOOTH",
"649 423 OFFCURVE",
"734 588 OFFCURVE",
"857 727 CURVE SMOOTH",
"874 747 OFFCURVE",
"903 771 OFFCURVE",
"920 771 CURVE SMOOTH",
"929 771 OFFCURVE",
"935 765 OFFCURVE",
"935 749 CURVE SMOOTH",
"935 743 OFFCURVE",
"934 734 OFFCURVE",
"932 724 CURVE SMOOTH",
"913 646 OFFCURVE",
"855 489 OFFCURVE",
"810 337 CURVE SMOOTH",
"789 260 OFFCURVE",
"771 149 OFFCURVE",
"771 70 CURVE SMOOTH",
"771 -43 OFFCURVE",
"806 -143 OFFCURVE",
"901 -163 CURVE SMOOTH",
"906 -164 OFFCURVE",
"910 -165 OFFCURVE",
"913 -165 CURVE SMOOTH"
);
}
);
};
layerId = "04B30934-05D4-410C-A3F8-810C0079C645";
paths = (
{
closed = 1;
nodes = (
"916 -165 OFFCURVE",
"917 -164 OFFCURVE",
"917 -163 CURVE SMOOTH",
"917 -161 OFFCURVE",
"913 -157 OFFCURVE",
"902 -151 CURVE",
"842 -134 OFFCURVE",
"820 -70 OFFCURVE",
"820 13 CURVE SMOOTH",
"820 238 OFFCURVE",
"979 613 OFFCURVE",
"994 655 CURVE SMOOTH",
"1000 675 OFFCURVE",
"1003 692 OFFCURVE",
"1003 708 CURVE SMOOTH",
"1003 770 OFFCURVE",
"959 799 OFFCURVE",
"929 799 CURVE SMOOTH",
"908 799 OFFCURVE",
"879 784 OFFCURVE",
"842 741 CURVE SMOOTH",
"786 677 OFFCURVE",
"740 611 OFFCURVE",
"701 543 CURVE SMOOTH",
"678 504 OFFCURVE",
"651 457 OFFCURVE",
"623 402 CURVE",
"639 467 OFFCURVE",
"647 525 OFFCURVE",
"647 577 CURVE SMOOTH",
"647 698 OFFCURVE",
"592 794 OFFCURVE",
"482 794 CURVE SMOOTH",
"384 794 OFFCURVE",
"264 722 OFFCURVE",
"185 645 CURVE SMOOTH",
"98 558 OFFCURVE",
"34 463 OFFCURVE",
"34 358 CURVE SMOOTH",
"34 303 OFFCURVE",
"55 254 OFFCURVE",
"133 199 CURVE SMOOTH",
"161 178 OFFCURVE",
"196 169 OFFCURVE",
"232 169 CURVE SMOOTH",
"354 169 OFFCURVE",
"510 271 OFFCURVE",
"510 393 CURVE SMOOTH",
"510 465 OFFCURVE",
"451 537 OFFCURVE",
"365 537 CURVE SMOOTH",
"269 537 OFFCURVE",
"145 428 OFFCURVE",
"145 338 CURVE SMOOTH",
"145 297 OFFCURVE",
"176 275 OFFCURVE",
"217 275 CURVE SMOOTH",
"292 275 OFFCURVE",
"384 358 OFFCURVE",
"384 426 CURVE SMOOTH",
"384 443 OFFCURVE",
"376 459 OFFCURVE",
"355 469 CURVE SMOOTH",
"346 473 OFFCURVE",
"337 475 OFFCURVE",
"328 475 CURVE SMOOTH",
"315 474 OFFCURVE",
"323 469 OFFCURVE",
"330 468 CURVE SMOOTH",
"333 467 OFFCURVE",
"338 466 OFFCURVE",
"346 463 CURVE SMOOTH",
"361 457 OFFCURVE",
"366 444 OFFCURVE",
"366 432 CURVE SMOOTH",
"366 384 OFFCURVE",
"286 317 OFFCURVE",
"226 317 CURVE SMOOTH",
"196 317 OFFCURVE",
"174 332 OFFCURVE",
"174 360 CURVE SMOOTH",
"174 423 OFFCURVE",
"270 510 OFFCURVE",
"345 510 CURVE SMOOTH",
"406 510 OFFCURVE",
"440 462 OFFCURVE",
"440 413 CURVE SMOOTH",
"440 324 OFFCURVE",
"289 198 OFFCURVE",
"198 198 CURVE SMOOTH",
"136 198 OFFCURVE",
"104 261 OFFCURVE",
"104 325 CURVE SMOOTH",
"104 433 OFFCURVE",
"182 541 OFFCURVE",
"267 632 CURVE SMOOTH",
"337 711 OFFCURVE",
"423 783 OFFCURVE",
"488 783 CURVE SMOOTH",
"558 783 OFFCURVE",
"595 689 OFFCURVE",
"595 597 CURVE SMOOTH",
"595 427 OFFCURVE",
"499 187 OFFCURVE",
"415 22 CURVE",
"423 -2 OFFCURVE",
"434 -9 OFFCURVE",
"448 -9 CURVE SMOOTH",
"455 -9 OFFCURVE",
"462 -8 OFFCURVE",
"469 -5 CURVE",
"508 80 OFFCURVE",
"543 177 OFFCURVE",
"588 281 CURVE SMOOTH",
"649 423 OFFCURVE",
"734 588 OFFCURVE",
"857 727 CURVE SMOOTH",
"874 747 OFFCURVE",
"903 771 OFFCURVE",
"920 771 CURVE SMOOTH",
"929 771 OFFCURVE",
"935 765 OFFCURVE",
"935 749 CURVE SMOOTH",
"935 743 OFFCURVE",
"934 734 OFFCURVE",
"932 724 CURVE SMOOTH",
"913 646 OFFCURVE",
"855 489 OFFCURVE",
"810 337 CURVE SMOOTH",
"789 260 OFFCURVE",
"771 149 OFFCURVE",
"771 70 CURVE SMOOTH",
"771 -43 OFFCURVE",
"806 -143 OFFCURVE",
"901 -163 CURVE SMOOTH",
"906 -164 OFFCURVE",
"910 -165 OFFCURVE",
"913 -165 CURVE SMOOTH"
);
}
);
width = 1004;
}
);
note = N;
unicode = 004E;
userData = {
KernOnName = N;
};
}
{
color = 4;
glyphname = Z;
layers = (
{
anchors = (
{
name = bottom;
position = "{291, 0}";
},
{
name = center;
position = "{445, 400}";
},
{
name = top;
position = "{513, 702}";
}
);
background = {
paths = (
{
closed = 1;
nodes = (
"150 -28 OFFCURVE",
"189 8 OFFCURVE",
"228 59 CURVE",
"339 22 OFFCURVE",
"485 -14 OFFCURVE",
"553 -14 CURVE SMOOTH",
"684 -14 OFFCURVE",
"828 88 OFFCURVE",
"828 224 CURVE SMOOTH",
"828 311 OFFCURVE",
"768 387 OFFCURVE",
"661 387 CURVE SMOOTH",
"550 387 OFFCURVE",
"395 310 OFFCURVE",
"395 204 CURVE SMOOTH",
"395 126 OFFCURVE",
"475 65 OFFCURVE",
"552 65 CURVE SMOOTH",
"616 65 OFFCURVE",
"660 112 OFFCURVE",
"660 164 CURVE SMOOTH",
"660 223 OFFCURVE",
"602 271 OFFCURVE",
"545 271 CURVE SMOOTH",
"513 271 OFFCURVE",
"465 244 OFFCURVE",
"459 220 CURVE",
"454 208 OFFCURVE",
"462 213 OFFCURVE",
"468 222 CURVE SMOOTH",
"477 236 OFFCURVE",
"504 255 OFFCURVE",
"535 255 CURVE SMOOTH",
"575 255 OFFCURVE",
"619 219 OFFCURVE",
"619 172 CURVE SMOOTH",
"619 127 OFFCURVE",
"579 86 OFFCURVE",
"526 86 CURVE SMOOTH",
"468 86 OFFCURVE",
"410 136 OFFCURVE",
"410 189 CURVE SMOOTH",
"410 275 OFFCURVE",
"531 331 OFFCURVE",
"615 331 CURVE SMOOTH",
"697 331 OFFCURVE",
"751 266 OFFCURVE",
"751 186 CURVE SMOOTH",
"751 103 OFFCURVE",
"689 16 OFFCURVE",
"557 16 CURVE SMOOTH",
"479 16 OFFCURVE",
"416 31 OFFCURVE",
"242 80 CURVE",
"291 153 OFFCURVE",
"335 246 OFFCURVE",
"375 319 CURVE SMOOTH",
"444 452 OFFCURVE",
"504 551 OFFCURVE",
"552 604 CURVE",
"586 597 OFFCURVE",
"619 590 OFFCURVE",
"652 590 CURVE SMOOTH",
"715 590 OFFCURVE",
"771 620 OFFCURVE",
"771 675 CURVE SMOOTH",
"771 702 OFFCURVE",
"751 726 OFFCURVE",
"707 726 CURVE SMOOTH",
"647 726 OFFCURVE",
"583 709 OFFCURVE",
"519 642 CURVE",
"438 667 OFFCURVE",
"313 699 OFFCURVE",
"223 699 CURVE SMOOTH",
"136 699 OFFCURVE",
"101 637 OFFCURVE",
"106 553 CURVE SMOOTH",
"106 547 OFFCURVE",
"111 539 OFFCURVE",
"115 539 CURVE SMOOTH",
"118 539 OFFCURVE",
"117 548 OFFCURVE",
"117 550 CURVE SMOOTH",
"114 604 OFFCURVE",
"211 627 OFFCURVE",
"308 627 CURVE SMOOTH",
"371 627 OFFCURVE",
"436 622 OFFCURVE",
"494 614 CURVE",
"418 509 OFFCURVE",
"337 223 OFFCURVE",
"220 86 CURVE",
"158 102 OFFCURVE",
"111 109 OFFCURVE",
"77 109 CURVE SMOOTH",
"24 109 OFFCURVE",
"1 81 OFFCURVE",
"1 47 CURVE SMOOTH",
"1 4 OFFCURVE",
"70 -28 OFFCURVE",
"109 -28 CURVE SMOOTH"
);
},
{
closed = 1;
nodes = (
"50 10 OFFCURVE",
"30 31 OFFCURVE",
"30 60 CURVE SMOOTH",
"30 86 OFFCURVE",
"40 94 OFFCURVE",
"75 94 CURVE SMOOTH",
"105 94 OFFCURVE",
"146 83 OFFCURVE",
"202 67 CURVE",
"168 32 OFFCURVE",
"130 10 OFFCURVE",
"88 10 CURVE SMOOTH"
);
},
{
closed = 1;
nodes = (
"638 606 OFFCURVE",
"601 616 OFFCURVE",
"572 625 CURVE",
"611 664 OFFCURVE",
"659 693 OFFCURVE",
"710 693 CURVE SMOOTH",
"732 692 OFFCURVE",
"752 679 OFFCURVE",
"752 659 CURVE SMOOTH",
"752 628 OFFCURVE",
"715 606 OFFCURVE",
"673 606 CURVE SMOOTH"
);
}
);
};
layerId = "04B30934-05D4-410C-A3F8-810C0079C645";
paths = (
{
closed = 1;
nodes = (
"150 -28 OFFCURVE",
"189 8 OFFCURVE",
"228 59 CURVE",
"339 22 OFFCURVE",
"485 -14 OFFCURVE",
"553 -14 CURVE SMOOTH",
"684 -14 OFFCURVE",
"828 88 OFFCURVE",
"828 224 CURVE SMOOTH",
"828 311 OFFCURVE",
"768 387 OFFCURVE",
"661 387 CURVE SMOOTH",
"550 387 OFFCURVE",
"395 310 OFFCURVE",
"395 204 CURVE SMOOTH",
"395 126 OFFCURVE",
"475 65 OFFCURVE",
"552 65 CURVE SMOOTH",
"616 65 OFFCURVE",
"660 112 OFFCURVE",
"660 164 CURVE SMOOTH",
"660 223 OFFCURVE",
"602 271 OFFCURVE",
"545 271 CURVE SMOOTH",
"513 271 OFFCURVE",
"465 244 OFFCURVE",
"459 220 CURVE",
"454 208 OFFCURVE",
"462 213 OFFCURVE",
"468 222 CURVE SMOOTH",
"477 236 OFFCURVE",
"504 255 OFFCURVE",
"535 255 CURVE SMOOTH",
"575 255 OFFCURVE",
"619 219 OFFCURVE",
"619 172 CURVE SMOOTH",
"619 127 OFFCURVE",
"579 86 OFFCURVE",
"526 86 CURVE SMOOTH",
"468 86 OFFCURVE",
"410 136 OFFCURVE",
"410 189 CURVE SMOOTH",
"410 275 OFFCURVE",
"531 331 OFFCURVE",
"615 331 CURVE SMOOTH",
"697 331 OFFCURVE",
"751 266 OFFCURVE",
"751 186 CURVE SMOOTH",
"751 103 OFFCURVE",
"689 16 OFFCURVE",
"557 16 CURVE SMOOTH",
"479 16 OFFCURVE",
"416 31 OFFCURVE",
"242 80 CURVE",
"291 153 OFFCURVE",
"335 246 OFFCURVE",
"375 319 CURVE SMOOTH",
"444 452 OFFCURVE",
"504 551 OFFCURVE",
"552 604 CURVE",
"586 597 OFFCURVE",
"619 590 OFFCURVE",
"652 590 CURVE SMOOTH",
"715 590 OFFCURVE",
"771 620 OFFCURVE",
"771 675 CURVE SMOOTH",
"771 702 OFFCURVE",
"751 726 OFFCURVE",
"707 726 CURVE SMOOTH",
"647 726 OFFCURVE",
"583 709 OFFCURVE",
"519 642 CURVE",
"438 667 OFFCURVE",
"313 699 OFFCURVE",
"223 699 CURVE SMOOTH",
"136 699 OFFCURVE",
"101 637 OFFCURVE",
"106 553 CURVE SMOOTH",
"106 547 OFFCURVE",
"111 539 OFFCURVE",
"115 539 CURVE SMOOTH",
"118 539 OFFCURVE",
"117 548 OFFCURVE",
"117 550 CURVE SMOOTH",
"114 604 OFFCURVE",
"211 627 OFFCURVE",
"308 627 CURVE SMOOTH",
"371 627 OFFCURVE",
"436 622 OFFCURVE",
"494 614 CURVE",
"418 509 OFFCURVE",
"337 223 OFFCURVE",
"220 86 CURVE",
"158 102 OFFCURVE",
"111 109 OFFCURVE",
"77 109 CURVE SMOOTH",
"24 109 OFFCURVE",
"1 81 OFFCURVE",
"1 47 CURVE SMOOTH",
"1 4 OFFCURVE",
"70 -28 OFFCURVE",
"109 -28 CURVE SMOOTH"
);
},
{
closed = 1;
nodes = (
"50 10 OFFCURVE",
"30 31 OFFCURVE",
"30 60 CURVE SMOOTH",
"30 86 OFFCURVE",
"40 94 OFFCURVE",
"75 94 CURVE SMOOTH",
"105 94 OFFCURVE",
"146 83 OFFCURVE",
"202 67 CURVE",
"168 32 OFFCURVE",
"130 10 OFFCURVE",
"88 10 CURVE SMOOTH"
);
},
{
closed = 1;
nodes = (
"638 606 OFFCURVE",
"601 616 OFFCURVE",
"572 625 CURVE",
"611 664 OFFCURVE",
"659 693 OFFCURVE",
"710 693 CURVE SMOOTH",
"732 692 OFFCURVE",
"752 679 OFFCURVE",
"752 659 CURVE SMOOTH",
"752 628 OFFCURVE",
"715 606 OFFCURVE",
"673 606 CURVE SMOOTH"
);
}
);
width = 889;
}
);
note = Z;
unicode = 005A;
userData = {
KernOnName = Z;
};
}
{
glyphname = bracketleft;
layers = (
{
background = {
paths = (
{
closed = 1;
nodes = (
"222 -55 LINE SMOOTH",
"227 -55 OFFCURVE",
"234 -51 OFFCURVE",
"243 -44 CURVE SMOOTH",
"250 -37 OFFCURVE",
"254 -30 OFFCURVE",
"254 -24 CURVE SMOOTH",
"254 -22 OFFCURVE",
"252 -20 OFFCURVE",
"249 -19 CURVE SMOOTH",
"213 -8 OFFCURVE",
"159 -1 OFFCURVE",
"87 2 CURVE",
"99 22 OFFCURVE",
"105 41 OFFCURVE",
"108 58 CURVE SMOOTH",
"115 101 OFFCURVE",
"118 151 OFFCURVE",
"118 212 CURVE SMOOTH",
"118 228 OFFCURVE",
"118 252 OFFCURVE",
"117 283 CURVE SMOOTH",
"116 315 OFFCURVE",
"116 338 OFFCURVE",
"116 354 CURVE SMOOTH",
"116 439 OFFCURVE",
"123 503 OFFCURVE",
"138 547 CURVE",
"213 570 LINE SMOOTH",
"224 573 OFFCURVE",
"234 574 OFFCURVE",
"243 577 CURVE SMOOTH",
"256 581 OFFCURVE",
"263 587 OFFCURVE",
"263 594 CURVE SMOOTH",
"263 601 OFFCURVE",
"260 605 OFFCURVE",
"253 605 CURVE SMOOTH",
"242 605 OFFCURVE",
"226 602 OFFCURVE",
"203 594 CURVE SMOOTH",
"174 585 OFFCURVE",
"156 580 OFFCURVE",
"149 579 CURVE",
"162 605 LINE",
"162 613 OFFCURVE",
"154 617 OFFCURVE",
"138 617 CURVE SMOOTH",
"134 617 OFFCURVE",
"128 617 OFFCURVE",
"100 603 CURVE",
"93 596 OFFCURVE",
"88 575 OFFCURVE",
"83 541 CURVE SMOOTH",
"76 496 OFFCURVE",
"73 459 OFFCURVE",
"73 428 CURVE SMOOTH",
"73 400 OFFCURVE",
"75 358 OFFCURVE",
"78 299 CURVE SMOOTH",
"81 242 OFFCURVE",
"83 199 OFFCURVE",
"83 170 CURVE SMOOTH",
"83 93 OFFCURVE",
"75 37 OFFCURVE",
"58 4 CURVE",
"31 4 OFFCURVE",
"17 2 OFFCURVE",
"17 -1 CURVE SMOOTH",
"17 -8 OFFCURVE",
"36 -15 OFFCURVE",
"73 -23 CURVE SMOOTH",
"105 -30 OFFCURVE",
"128 -32 OFFCURVE",
"141 -35 CURVE SMOOTH",
"180 -44 OFFCURVE",
"205 -51 OFFCURVE",
"220 -55 CURVE"
);
}
);
};
layerId = "04B30934-05D4-410C-A3F8-810C0079C645";
paths = (
{
closed = 1;
nodes = (
"222 -55 LINE SMOOTH",
"227 -55 OFFCURVE",
"234 -51 OFFCURVE",
"243 -44 CURVE SMOOTH",
"250 -37 OFFCURVE",
"254 -30 OFFCURVE",
"254 -24 CURVE SMOOTH",
"254 -22 OFFCURVE",
"252 -20 OFFCURVE",
"249 -19 CURVE SMOOTH",
"213 -8 OFFCURVE",
"159 -1 OFFCURVE",
"87 2 CURVE",
"99 22 OFFCURVE",
"105 41 OFFCURVE",
"108 58 CURVE SMOOTH",
"115 101 OFFCURVE",
"118 151 OFFCURVE",
"118 212 CURVE SMOOTH",
"117 283 LINE",
"116 354 LINE SMOOTH",
"116 439 OFFCURVE",
"123 503 OFFCURVE",
"138 547 CURVE",
"213 570 LINE SMOOTH",
"224 573 OFFCURVE",
"234 574 OFFCURVE",
"243 577 CURVE SMOOTH",
"256 581 OFFCURVE",
"263 587 OFFCURVE",
"263 594 CURVE SMOOTH",
"263 601 OFFCURVE",
"260 605 OFFCURVE",
"253 605 CURVE SMOOTH",
"242 605 OFFCURVE",
"226 602 OFFCURVE",
"203 594 CURVE SMOOTH",
"174 585 OFFCURVE",
"156 580 OFFCURVE",
"149 579 CURVE",
"162 605 LINE",
"162 613 OFFCURVE",
"154 617 OFFCURVE",
"138 617 CURVE SMOOTH",
"134 617 OFFCURVE",
"128 617 OFFCURVE",
"100 603 CURVE",
"93 596 OFFCURVE",
"88 575 OFFCURVE",
"83 541 CURVE SMOOTH",
"76 496 OFFCURVE",
"73 459 OFFCURVE",
"73 428 CURVE SMOOTH",
"73 400 OFFCURVE",
"75 358 OFFCURVE",
"78 299 CURVE SMOOTH",
"81 242 OFFCURVE",
"83 199 OFFCURVE",
"83 170 CURVE SMOOTH",
"83 93 OFFCURVE",
"75 37 OFFCURVE",
"58 4 CURVE",
"31 4 OFFCURVE",
"17 2 OFFCURVE",
"17 -1 CURVE SMOOTH",
"17 -8 OFFCURVE",
"36 -15 OFFCURVE",
"73 -23 CURVE SMOOTH",
"105 -30 OFFCURVE",
"128 -32 OFFCURVE",
"141 -35 CURVE SMOOTH",
"180 -44 OFFCURVE",
"205 -51 OFFCURVE",
"220 -55 CURVE"
);
}
);
width = 311;
}
);
note = bracketleft;
unicode = 005B;
userData = {
KernOnSpecialSpacing = {
L = parenthesis;
R = parenthesis;
};
};
}
{
glyphname = bracketright;
layers = (
{
background = {
paths = (
{
closed = 1;
nodes = (
"85 -55 LINE",
"179 -32 LINE SMOOTH",
"196 -27 OFFCURVE",
"214 -24 OFFCURVE",
"235 -23 CURVE",
"274 -14 OFFCURVE",
"293 -7 OFFCURVE",
"293 -1 CURVE SMOOTH",
"293 2 OFFCURVE",
"284 4 OFFCURVE",
"266 4 CURVE SMOOTH",
"253 4 LINE",
"244 25 OFFCURVE",
"240 48 OFFCURVE",
"240 74 CURVE SMOOTH",
"240 125 OFFCURVE",
"251 208 OFFCURVE",
"271 325 CURVE SMOOTH",
"284 401 OFFCURVE",
"291 460 OFFCURVE",
"291 500 CURVE SMOOTH",
"291 561 OFFCURVE",
"287 596 OFFCURVE",
"279 604 CURVE",
"274 607 OFFCURVE",
"269 609 OFFCURVE",
"266 609 CURVE",
"261 614 OFFCURVE",
"253 617 OFFCURVE",
"243 617 CURVE SMOOTH",
"226 617 OFFCURVE",
"218 613 OFFCURVE",
"218 604 CURVE SMOOTH",
"218 605 OFFCURVE",
"221 596 OFFCURVE",
"228 579 CURVE",
"221 580 OFFCURVE",
"203 585 OFFCURVE",
"176 594 CURVE SMOOTH",
"152 601 OFFCURVE",
"136 605 OFFCURVE",
"128 605 CURVE SMOOTH",
"120 605 OFFCURVE",
"116 601 OFFCURVE",
"116 592 CURVE SMOOTH",
"116 586 OFFCURVE",
"119 582 OFFCURVE",
"126 579 CURVE",
"164 570 LINE",
"236 547 LINE",
"240 523 OFFCURVE",
"242 496 OFFCURVE",
"242 467 CURVE SMOOTH",
"242 424 OFFCURVE",
"236 360 OFFCURVE",
"225 273 CURVE SMOOTH",
"213 187 OFFCURVE",
"207 122 OFFCURVE",
"207 79 CURVE SMOOTH",
"207 50 OFFCURVE",
"212 25 OFFCURVE",
"222 2 CURVE",
"146 -2 OFFCURVE",
"92 -8 OFFCURVE",
"59 -19 CURVE SMOOTH",
"56 -20 OFFCURVE",
"54 -22 OFFCURVE",
"54 -26 CURVE SMOOTH",
"54 -32 OFFCURVE",
"57 -38 OFFCURVE",
"63 -45 CURVE SMOOTH",
"70 -52 OFFCURVE",
"76 -55 OFFCURVE",
"81 -55 CURVE SMOOTH"
);
}
);
};
layerId = "04B30934-05D4-410C-A3F8-810C0079C645";
paths = (
{
closed = 1;
nodes = (
"85 -55 LINE",
"179 -32 LINE SMOOTH",
"196 -27 OFFCURVE",
"214 -24 OFFCURVE",
"235 -23 CURVE",
"274 -14 OFFCURVE",
"293 -7 OFFCURVE",
"293 -1 CURVE SMOOTH",
"293 2 OFFCURVE",
"284 4 OFFCURVE",
"266 4 CURVE SMOOTH",
"253 4 LINE",
"244 25 OFFCURVE",
"240 48 OFFCURVE",
"240 74 CURVE SMOOTH",
"240 125 OFFCURVE",
"251 208 OFFCURVE",
"271 325 CURVE SMOOTH",
"284 401 OFFCURVE",
"291 460 OFFCURVE",
"291 500 CURVE SMOOTH",
"291 561 OFFCURVE",
"287 596 OFFCURVE",
"279 604 CURVE",
"274 607 OFFCURVE",
"269 609 OFFCURVE",
"266 609 CURVE",
"261 614 OFFCURVE",
"253 617 OFFCURVE",
"243 617 CURVE SMOOTH",
"226 617 OFFCURVE",
"218 613 OFFCURVE",
"218 604 CURVE",
"228 579 LINE",
"221 580 OFFCURVE",
"203 585 OFFCURVE",
"176 594 CURVE SMOOTH",
"152 601 OFFCURVE",
"136 605 OFFCURVE",
"128 605 CURVE SMOOTH",
"120 605 OFFCURVE",
"116 601 OFFCURVE",
"116 592 CURVE SMOOTH",
"116 586 OFFCURVE",
"119 582 OFFCURVE",
"126 579 CURVE",
"164 570 LINE",
"236 547 LINE",
"240 523 OFFCURVE",
"242 496 OFFCURVE",
"242 467 CURVE SMOOTH",
"242 424 OFFCURVE",
"236 360 OFFCURVE",
"225 273 CURVE SMOOTH",
"213 187 OFFCURVE",
"207 122 OFFCURVE",
"207 79 CURVE SMOOTH",
"207 50 OFFCURVE",
"212 25 OFFCURVE",
"222 2 CURVE",
"146 -2 OFFCURVE",
"92 -8 OFFCURVE",
"59 -19 CURVE SMOOTH",
"56 -20 OFFCURVE",
"54 -22 OFFCURVE",
"54 -26 CURVE SMOOTH",
"54 -32 OFFCURVE",
"57 -38 OFFCURVE",
"63 -45 CURVE SMOOTH",
"70 -52 OFFCURVE",
"76 -55 OFFCURVE",
"81 -55 CURVE SMOOTH"
);
}
);
width = 311;
}
);
note = bracketright;
unicode = 005D;
userData = {
KernOnSpecialSpacing = {
L = parenthesis;
R = parenthesis;
};
};
}
{
glyphname = underscore;
layers = (
{
background = {
paths = (
{
closed = 1;
nodes = (
"35 -41 OFFCURVE",
"37 -41 OFFCURVE",
"39 -41 CURVE SMOOTH",
"446 -32 LINE SMOOTH",
"479 -31 OFFCURVE",
"512 -31 OFFCURVE",
"545 -31 CURVE SMOOTH",
"586 -30 OFFCURVE",
"607 -26 OFFCURVE",
"607 -20 CURVE SMOOTH",
"607 -16 OFFCURVE",
"593 -13 OFFCURVE",
"564 -11 CURVE SMOOTH",
"536 -8 OFFCURVE",
"512 -7 OFFCURVE",
"489 -6 CURVE SMOOTH",
"428 -4 OFFCURVE",
"365 -4 OFFCURVE",
"298 -4 CURVE SMOOTH",
"254 -4 OFFCURVE",
"208 -4 OFFCURVE",
"160 -4 CURVE SMOOTH",
"100 -4 OFFCURVE",
"65 -5 OFFCURVE",
"54 -8 CURVE SMOOTH",
"31 -16 OFFCURVE",
"19 -24 OFFCURVE",
"19 -33 CURVE SMOOTH",
"19 -39 OFFCURVE",
"24 -41 OFFCURVE",
"33 -41 CURVE SMOOTH"
);
}
);
};
layerId = "04B30934-05D4-410C-A3F8-810C0079C645";
paths = (
{
closed = 1;
nodes = (
"39 -41 LINE",
"446 -32 LINE",
"545 -31 LINE SMOOTH",
"586 -30 OFFCURVE",
"607 -26 OFFCURVE",
"607 -20 CURVE SMOOTH",
"607 -16 OFFCURVE",
"593 -13 OFFCURVE",
"564 -11 CURVE SMOOTH",
"536 -8 OFFCURVE",
"512 -7 OFFCURVE",
"489 -6 CURVE SMOOTH",
"428 -4 OFFCURVE",
"365 -4 OFFCURVE",
"298 -4 CURVE SMOOTH",
"160 -4 LINE SMOOTH",
"100 -4 OFFCURVE",
"65 -5 OFFCURVE",
"54 -8 CURVE SMOOTH",
"31 -16 OFFCURVE",
"19 -24 OFFCURVE",
"19 -33 CURVE SMOOTH",
"19 -39 OFFCURVE",
"24 -41 OFFCURVE",
"33 -41 CURVE SMOOTH"
);
}
);
width = 611;
}
);
note = underscore;
unicode = 005F;
userData = {
KernOnSpecialSpacing = {
L = underscore;
R = underscore;
};
};
}
{
color = 4;
glyphname = l;
layers = (
{
anchors = (
{
name = bottom;
position = "{143, 33}";
},
{
name = center;
position = "{141, 500}";
},
{
name = top;
position = "{250, 801}";
},
{
name = topright;
position = "{359, 800}";
}
);
background = {
paths = (
{
closed = 1;
nodes = (
"189 33 OFFCURVE",
"220 86 OFFCURVE",
"239 120 CURVE SMOOTH",
"267 167 OFFCURVE",
"296 212 OFFCURVE",
"327 251 CURVE SMOOTH",
"330 256 OFFCURVE",
"329 260 OFFCURVE",
"326 260 CURVE SMOOTH",
"325 260 OFFCURVE",
"322 259 OFFCURVE",
"320 256 CURVE SMOOTH",
"289 219 OFFCURVE",
"267 178 OFFCURVE",
"232 143 CURVE SMOOTH",
"206 117 OFFCURVE",
"177 94 OFFCURVE",
"154 94 CURVE SMOOTH",
"138 94 OFFCURVE",
"125 103 OFFCURVE",
"116 127 CURVE SMOOTH",
"100 168 OFFCURVE",
"90 256 OFFCURVE",
"93 314 CURVE",
"152 411 OFFCURVE",
"273 601 OFFCURVE",
"305 692 CURVE SMOOTH",
"311 709 OFFCURVE",
"314 724 OFFCURVE",
"314 736 CURVE SMOOTH",
"314 750 OFFCURVE",
"310 760 OFFCURVE",
"302 764 CURVE",
"293 790 OFFCURVE",
"271 801 OFFCURVE",
"250 801 CURVE SMOOTH",
"235 801 OFFCURVE",
"219 796 OFFCURVE",
"207 787 CURVE SMOOTH",
"94 706 OFFCURVE",
"41 447 OFFCURVE",
"41 267 CURVE SMOOTH",
"41 195 OFFCURVE",
"47 33 OFFCURVE",
"143 33 CURVE SMOOTH"
);
},
{
closed = 1;
nodes = (
"100 421 OFFCURVE",
"106 475 OFFCURVE",
"135 556 CURVE SMOOTH",
"162 632 OFFCURVE",
"200 700 OFFCURVE",
"253 749 CURVE SMOOTH",
"260 756 OFFCURVE",
"271 762 OFFCURVE",
"280 762 CURVE SMOOTH",
"289 762 OFFCURVE",
"296 756 OFFCURVE",
"296 740 CURVE SMOOTH",
"296 732 OFFCURVE",
"294 720 OFFCURVE",
"289 704 CURVE SMOOTH",
"257 608 OFFCURVE",
"159 439 OFFCURVE",
"95 338 CURVE"
);
}
);
};
layerId = "04B30934-05D4-410C-A3F8-810C0079C645";
paths = (
{
closed = 1;
nodes = (
"189 33 OFFCURVE",
"220 86 OFFCURVE",
"239 120 CURVE SMOOTH",
"267 167 OFFCURVE",
"296 212 OFFCURVE",
"327 251 CURVE",
"330 256 OFFCURVE",
"329 260 OFFCURVE",
"326 260 CURVE SMOOTH",
"325 260 OFFCURVE",
"322 259 OFFCURVE",
"320 256 CURVE SMOOTH",
"289 219 OFFCURVE",
"267 178 OFFCURVE",
"232 143 CURVE SMOOTH",
"206 117 OFFCURVE",
"177 94 OFFCURVE",
"154 94 CURVE SMOOTH",
"138 94 OFFCURVE",
"125 103 OFFCURVE",
"116 127 CURVE SMOOTH",
"100 168 OFFCURVE",
"90 256 OFFCURVE",
"93 314 CURVE",
"152 411 OFFCURVE",
"273 601 OFFCURVE",
"305 692 CURVE SMOOTH",
"311 709 OFFCURVE",
"314 724 OFFCURVE",
"314 736 CURVE SMOOTH",
"314 750 OFFCURVE",
"310 760 OFFCURVE",
"302 764 CURVE",
"293 790 OFFCURVE",
"271 801 OFFCURVE",
"250 801 CURVE SMOOTH",
"235 801 OFFCURVE",
"219 796 OFFCURVE",
"207 787 CURVE SMOOTH",
"94 706 OFFCURVE",
"41 447 OFFCURVE",
"41 267 CURVE SMOOTH",
"41 195 OFFCURVE",
"47 33 OFFCURVE",
"143 33 CURVE SMOOTH"
);
},
{
closed = 1;
nodes = (
"100 421 OFFCURVE",
"106 475 OFFCURVE",
"135 556 CURVE SMOOTH",
"162 632 OFFCURVE",
"200 700 OFFCURVE",
"253 749 CURVE SMOOTH",
"260 756 OFFCURVE",
"271 762 OFFCURVE",
"280 762 CURVE SMOOTH",
"289 762 OFFCURVE",
"296 756 OFFCURVE",
"296 740 CURVE SMOOTH",
"296 732 OFFCURVE",
"294 720 OFFCURVE",
"289 704 CURVE SMOOTH",
"257 608 OFFCURVE",
"159 439 OFFCURVE",
"95 338 CURVE"
);
}
);
width = 281;
}
);
note = l;
unicode = 006C;
userData = {
KernOnName = l;
};
}
{
color = 4;
glyphname = n;
layers = (
{
anchors = (
{
name = bottom;
position = "{158, 0}";
},
{
name = top;
position = "{151, 323}";
}
);
background = {
paths = (
{
closed = 1;
nodes = (
"62 -10 OFFCURVE",
"80 0 OFFCURVE",
"92 4 CURVE",
"90 9 OFFCURVE",
"89 21 OFFCURVE",
"89 35 CURVE SMOOTH",
"89 106 OFFCURVE",
"146 209 OFFCURVE",
"180 256 CURVE SMOOTH",
"192 273 OFFCURVE",
"204 280 OFFCURVE",
"211 280 CURVE SMOOTH",
"215 280 OFFCURVE",
"218 277 OFFCURVE",
"216 270 CURVE SMOOTH",
"203 214 OFFCURVE",
"189 134 OFFCURVE",
"188 54 CURVE",
"191 41 OFFCURVE",
"253 12 OFFCURVE",
"260 19 CURVE",
"280 79 OFFCURVE",
"326 166 OFFCURVE",
"390 251 CURVE SMOOTH",
"395 258 OFFCURVE",
"390 262 OFFCURVE",
"383 254 CURVE SMOOTH",
"319 175 OFFCURVE",
"277 96 OFFCURVE",
"249 49 CURVE",
"246 55 OFFCURVE",
"245 66 OFFCURVE",
"245 79 CURVE SMOOTH",
"245 137 OFFCURVE",
"268 248 OFFCURVE",
"282 284 CURVE",
"285 294 OFFCURVE",
"286 302 OFFCURVE",
"286 309 CURVE SMOOTH",
"286 329 OFFCURVE",
"276 338 OFFCURVE",
"261 338 CURVE SMOOTH",
"242 338 OFFCURVE",
"217 323 OFFCURVE",
"198 299 CURVE SMOOTH",
"151 239 OFFCURVE",
"115 172 OFFCURVE",
"84 100 CURVE",
"84 154 OFFCURVE",
"96 231 OFFCURVE",
"110 266 CURVE",
"112 276 OFFCURVE",
"73 323 OFFCURVE",
"68 312 CURVE SMOOTH",
"53 285 OFFCURVE",
"33 250 OFFCURVE",
"6 211 CURVE SMOOTH",
"4 208 OFFCURVE",
"7 204 OFFCURVE",
"10 204 CURVE SMOOTH",
"11 204 OFFCURVE",
"12 204 OFFCURVE",
"13 205 CURVE SMOOTH",
"32 229 OFFCURVE",
"37 239 OFFCURVE",
"46 250 CURVE",
"41 223 OFFCURVE",
"24 140 OFFCURVE",
"24 74 CURVE SMOOTH",
"24 39 OFFCURVE",
"29 9 OFFCURVE",
"42 -6 CURVE",
"44 -9 OFFCURVE",
"47 -10 OFFCURVE",
"51 -10 CURVE SMOOTH"
);
}
);
};
layerId = "04B30934-05D4-410C-A3F8-810C0079C645";
paths = (
{
closed = 1;
nodes = (
"62 -10 OFFCURVE",
"80 0 OFFCURVE",
"92 4 CURVE",
"90 9 OFFCURVE",
"89 21 OFFCURVE",
"89 35 CURVE SMOOTH",
"89 106 OFFCURVE",
"146 209 OFFCURVE",
"180 256 CURVE SMOOTH",
"192 273 OFFCURVE",
"204 280 OFFCURVE",
"211 280 CURVE SMOOTH",
"215 280 OFFCURVE",
"218 277 OFFCURVE",
"216 270 CURVE SMOOTH",
"203 214 OFFCURVE",
"189 134 OFFCURVE",
"188 54 CURVE",
"191 41 OFFCURVE",
"253 12 OFFCURVE",
"260 19 CURVE",
"280 79 OFFCURVE",
"326 166 OFFCURVE",
"390 251 CURVE SMOOTH",
"395 258 OFFCURVE",
"390 262 OFFCURVE",
"383 254 CURVE SMOOTH",
"319 175 OFFCURVE",
"277 96 OFFCURVE",
"249 49 CURVE",
"246 55 OFFCURVE",
"245 66 OFFCURVE",
"245 79 CURVE SMOOTH",
"245 137 OFFCURVE",
"268 248 OFFCURVE",
"282 284 CURVE SMOOTH",
"285 294 OFFCURVE",
"286 302 OFFCURVE",
"286 309 CURVE SMOOTH",
"286 329 OFFCURVE",
"276 338 OFFCURVE",
"261 338 CURVE SMOOTH",
"242 338 OFFCURVE",
"217 323 OFFCURVE",
"198 299 CURVE SMOOTH",
"151 239 OFFCURVE",
"115 172 OFFCURVE",
"84 100 CURVE",
"84 154 OFFCURVE",
"96 231 OFFCURVE",
"110 266 CURVE",
"112 276 OFFCURVE",
"73 323 OFFCURVE",
"68 312 CURVE SMOOTH",
"53 285 OFFCURVE",
"33 250 OFFCURVE",
"6 211 CURVE SMOOTH",
"4 208 OFFCURVE",
"7 204 OFFCURVE",
"10 204 CURVE SMOOTH",
"11 204 OFFCURVE",
"12 204 OFFCURVE",
"13 205 CURVE SMOOTH",
"32 229 OFFCURVE",
"37 239 OFFCURVE",
"46 250 CURVE",
"41 223 OFFCURVE",
"24 140 OFFCURVE",
"24 74 CURVE SMOOTH",
"24 39 OFFCURVE",
"29 9 OFFCURVE",
"42 -6 CURVE SMOOTH",
"44 -9 OFFCURVE",
"47 -10 OFFCURVE",
"51 -10 CURVE SMOOTH"
);
}
);
width = 345;
}
);
note = n;
unicode = 006E;
}
{
glyphname = bar;
layers = (
{
background = {
paths = (
{
closed = 1;
nodes = (
"171 -183 OFFCURVE",
"176 -182 OFFCURVE",
"181 -179 CURVE",
"167 -131 OFFCURVE",
"160 -1 OFFCURVE",
"160 143 CURVE SMOOTH",
"160 324 OFFCURVE",
"171 526 OFFCURVE",
"193 617 CURVE SMOOTH",
"194 620 OFFCURVE",
"196 630 OFFCURVE",
"196 633 CURVE",
"188 646 OFFCURVE",
"158 655 OFFCURVE",
"147 655 CURVE SMOOTH",
"141 655 OFFCURVE",
"138 654 OFFCURVE",
"137 652 CURVE SMOOTH",
"113 583 OFFCURVE",
"102 405 OFFCURVE",
"102 233 CURVE SMOOTH",
"102 62 OFFCURVE",
"113 -102 OFFCURVE",
"133 -151 CURVE SMOOTH",
"141 -170 OFFCURVE",
"151 -183 OFFCURVE",
"166 -183 CURVE SMOOTH"
);
}
);
};
layerId = "04B30934-05D4-410C-A3F8-810C0079C645";
paths = (
{
closed = 1;
nodes = (
"171 -183 OFFCURVE",
"176 -182 OFFCURVE",
"181 -179 CURVE",
"167 -131 OFFCURVE",
"160 -1 OFFCURVE",
"160 143 CURVE SMOOTH",
"160 324 OFFCURVE",
"171 526 OFFCURVE",
"193 617 CURVE SMOOTH",
"194 620 OFFCURVE",
"196 630 OFFCURVE",
"196 633 CURVE",
"188 646 OFFCURVE",
"158 655 OFFCURVE",
"147 655 CURVE SMOOTH",
"141 655 OFFCURVE",
"138 654 OFFCURVE",
"137 652 CURVE SMOOTH",
"113 583 OFFCURVE",
"102 405 OFFCURVE",
"102 233 CURVE SMOOTH",
"102 62 OFFCURVE",
"113 -102 OFFCURVE",
"133 -151 CURVE SMOOTH",
"141 -170 OFFCURVE",
"151 -183 OFFCURVE",
"166 -183 CURVE SMOOTH"
);
}
);
width = 284;
}
);
note = bar;
unicode = 007C;
userData = {
KernOnSpecialSpacing = {
L = symbols;
R = symbols;
};
};
}
{
glyphname = braceleft;
layers = (
{
background = {
paths = (
{
closed = 1;
nodes = (
"236 -55 OFFCURVE",
"254 -37 OFFCURVE",
"254 -24 CURVE SMOOTH",
"254 -22 OFFCURVE",
"252 -20 OFFCURVE",
"249 -19 CURVE SMOOTH",
"200 -6 OFFCURVE",
"159 7 OFFCURVE",
"148 12 CURVE SMOOTH",
"110 28 OFFCURVE",
"109 56 OFFCURVE",
"109 81 CURVE SMOOTH",
"109 92 OFFCURVE",
"126 137 OFFCURVE",
"126 157 CURVE SMOOTH",
"126 176 OFFCURVE",
"119 202 OFFCURVE",
"105 234 CURVE SMOOTH",
"90 266 OFFCURVE",
"66 290 OFFCURVE",
"27 301 CURVE",
"80 320 OFFCURVE",
"102 341 OFFCURVE",
"121 379 CURVE SMOOTH",
"134 407 OFFCURVE",
"141 427 OFFCURVE",
"141 445 CURVE SMOOTH",
"141 466 OFFCURVE",
"132 485 OFFCURVE",
"112 512 CURVE",
"132 547 OFFCURVE",
"176 561 OFFCURVE",
"221 572 CURVE SMOOTH",
"257 581 OFFCURVE",
"263 587 OFFCURVE",
"263 594 CURVE SMOOTH",
"263 601 OFFCURVE",
"260 605 OFFCURVE",
"253 605 CURVE SMOOTH",
"209 605 OFFCURVE",
"146 593 OFFCURVE",
"117 577 CURVE SMOOTH",
"78 556 OFFCURVE",
"58 525 OFFCURVE",
"58 485 CURVE SMOOTH",
"58 460 OFFCURVE",
"77 440 OFFCURVE",
"77 436 CURVE SMOOTH",
"77 362 OFFCURVE",
"21 335 OFFCURVE",
"2 321 CURVE",
"-15 317 OFFCURVE",
"-18 314 OFFCURVE",
"-18 310 CURVE SMOOTH",
"-18 307 OFFCURVE",
"-16 304 OFFCURVE",
"-12 302 CURVE",
"7 297 OFFCURVE",
"92 204 OFFCURVE",
"92 172 CURVE SMOOTH",
"92 151 OFFCURVE",
"55 97 OFFCURVE",
"55 81 CURVE SMOOTH",
"55 13 OFFCURVE",
"120 -34 OFFCURVE",
"220 -55 CURVE"
);
}
);
};
layerId = "04B30934-05D4-410C-A3F8-810C0079C645";
paths = (
{
closed = 1;
nodes = (
"236 -55 OFFCURVE",
"254 -37 OFFCURVE",
"254 -24 CURVE SMOOTH",
"254 -22 OFFCURVE",
"252 -20 OFFCURVE",
"249 -19 CURVE SMOOTH",
"200 -6 OFFCURVE",
"159 7 OFFCURVE",
"148 12 CURVE SMOOTH",
"110 28 OFFCURVE",
"109 56 OFFCURVE",
"109 81 CURVE SMOOTH",
"109 92 OFFCURVE",
"126 137 OFFCURVE",
"126 157 CURVE SMOOTH",
"126 176 OFFCURVE",
"119 202 OFFCURVE",
"105 234 CURVE SMOOTH",
"90 266 OFFCURVE",
"66 290 OFFCURVE",
"27 301 CURVE",
"80 320 OFFCURVE",
"102 341 OFFCURVE",
"121 379 CURVE SMOOTH",
"134 407 OFFCURVE",
"141 427 OFFCURVE",
"141 445 CURVE SMOOTH",
"141 466 OFFCURVE",
"132 485 OFFCURVE",
"112 512 CURVE",
"132 547 OFFCURVE",
"176 561 OFFCURVE",
"221 572 CURVE SMOOTH",
"257 581 OFFCURVE",
"263 587 OFFCURVE",
"263 594 CURVE SMOOTH",
"263 601 OFFCURVE",
"260 605 OFFCURVE",
"253 605 CURVE SMOOTH",
"209 605 OFFCURVE",
"146 593 OFFCURVE",
"117 577 CURVE SMOOTH",
"78 556 OFFCURVE",
"58 525 OFFCURVE",
"58 485 CURVE SMOOTH",
"58 460 OFFCURVE",
"77 440 OFFCURVE",
"77 436 CURVE SMOOTH",
"77 362 OFFCURVE",
"21 335 OFFCURVE",
"2 321 CURVE",
"-15 317 OFFCURVE",
"-18 314 OFFCURVE",
"-18 310 CURVE SMOOTH",
"-18 307 OFFCURVE",
"-16 304 OFFCURVE",
"-12 302 CURVE",
"7 297 OFFCURVE",
"92 204 OFFCURVE",
"92 172 CURVE SMOOTH",
"92 151 OFFCURVE",
"55 97 OFFCURVE",
"55 81 CURVE SMOOTH",
"55 13 OFFCURVE",
"120 -34 OFFCURVE",
"220 -55 CURVE"
);
}
);
width = 311;
}
);
note = braceleft;
unicode = 007B;
userData = {
KernOnSpecialSpacing = {
L = parenthesis;
R = parenthesis;
};
};
}
{
glyphname = braceright;
layers = (
{
background = {
paths = (
{
closed = 1;
nodes = (
"206 -34 OFFCURVE",
"271 13 OFFCURVE",
"271 81 CURVE SMOOTH",
"271 97 OFFCURVE",
"234 151 OFFCURVE",
"234 172 CURVE SMOOTH",
"234 204 OFFCURVE",
"319 297 OFFCURVE",
"338 302 CURVE",
"342 304 OFFCURVE",
"344 307 OFFCURVE",
"344 310 CURVE SMOOTH",
"344 314 OFFCURVE",
"341 317 OFFCURVE",
"324 321 CURVE",
"304 334 OFFCURVE",
"249 363 OFFCURVE",
"249 436 CURVE SMOOTH",
"249 440 OFFCURVE",
"268 460 OFFCURVE",
"268 485 CURVE SMOOTH",
"268 525 OFFCURVE",
"248 556 OFFCURVE",
"209 577 CURVE SMOOTH",
"180 593 OFFCURVE",
"117 605 OFFCURVE",
"73 605 CURVE SMOOTH",
"66 605 OFFCURVE",
"63 601 OFFCURVE",
"63 594 CURVE SMOOTH",
"63 587 OFFCURVE",
"69 581 OFFCURVE",
"105 572 CURVE SMOOTH",
"150 561 OFFCURVE",
"194 547 OFFCURVE",
"214 512 CURVE",
"194 485 OFFCURVE",
"185 466 OFFCURVE",
"185 445 CURVE SMOOTH",
"185 427 OFFCURVE",
"192 407 OFFCURVE",
"205 379 CURVE SMOOTH",
"222 340 OFFCURVE",
"247 321 OFFCURVE",
"299 301 CURVE",
"260 290 OFFCURVE",
"236 266 OFFCURVE",
"221 234 CURVE SMOOTH",
"207 202 OFFCURVE",
"200 176 OFFCURVE",
"200 157 CURVE SMOOTH",
"200 137 OFFCURVE",
"214 89 OFFCURVE",
"214 78 CURVE SMOOTH",
"214 54 OFFCURVE",
"216 28 OFFCURVE",
"178 12 CURVE SMOOTH",
"167 7 OFFCURVE",
"126 -6 OFFCURVE",
"77 -19 CURVE SMOOTH",
"74 -20 OFFCURVE",
"72 -22 OFFCURVE",
"72 -24 CURVE SMOOTH",
"72 -37 OFFCURVE",
"90 -55 OFFCURVE",
"106 -55 CURVE"
);
}
);
};
layerId = "04B30934-05D4-410C-A3F8-810C0079C645";
paths = (
{
closed = 1;
nodes = (
"206 -34 OFFCURVE",
"271 13 OFFCURVE",
"271 81 CURVE SMOOTH",
"271 97 OFFCURVE",
"234 151 OFFCURVE",
"234 172 CURVE SMOOTH",
"234 204 OFFCURVE",
"319 297 OFFCURVE",
"338 302 CURVE",
"342 304 OFFCURVE",
"344 307 OFFCURVE",
"344 310 CURVE SMOOTH",
"344 314 OFFCURVE",
"341 317 OFFCURVE",
"324 321 CURVE",
"304 334 OFFCURVE",
"249 363 OFFCURVE",
"249 436 CURVE SMOOTH",
"249 440 OFFCURVE",
"268 460 OFFCURVE",
"268 485 CURVE SMOOTH",
"268 525 OFFCURVE",
"248 556 OFFCURVE",
"209 577 CURVE SMOOTH",
"180 593 OFFCURVE",
"117 605 OFFCURVE",
"73 605 CURVE SMOOTH",
"66 605 OFFCURVE",
"63 601 OFFCURVE",
"63 594 CURVE SMOOTH",
"63 587 OFFCURVE",
"69 581 OFFCURVE",
"105 572 CURVE SMOOTH",
"150 561 OFFCURVE",
"194 547 OFFCURVE",
"214 512 CURVE",
"194 485 OFFCURVE",
"185 466 OFFCURVE",
"185 445 CURVE SMOOTH",
"185 427 OFFCURVE",
"192 407 OFFCURVE",
"205 379 CURVE SMOOTH",
"222 340 OFFCURVE",
"247 321 OFFCURVE",
"299 301 CURVE",
"260 290 OFFCURVE",
"236 266 OFFCURVE",
"221 234 CURVE SMOOTH",
"207 202 OFFCURVE",
"200 176 OFFCURVE",
"200 157 CURVE SMOOTH",
"200 137 OFFCURVE",
"214 89 OFFCURVE",
"214 78 CURVE SMOOTH",
"214 54 OFFCURVE",
"216 28 OFFCURVE",
"178 12 CURVE SMOOTH",
"167 7 OFFCURVE",
"126 -6 OFFCURVE",
"77 -19 CURVE SMOOTH",
"74 -20 OFFCURVE",
"72 -22 OFFCURVE",
"72 -24 CURVE SMOOTH",
"72 -37 OFFCURVE",
"90 -55 OFFCURVE",
"106 -55 CURVE"
);
}
);
width = 311;
}
);
note = braceright;
unicode = 007D;
userData = {
KernOnSpecialSpacing = {
L = parenthesis;
R = parenthesis;
};
};
}
{
color = 4;
glyphname = eng;
layers = (
{
background = {
paths = (
{
closed = 1;
nodes = (
"-11 -320 OFFCURVE",
"8 -322 OFFCURVE",
"26 -322 CURVE SMOOTH",
"254 -322 OFFCURVE",
"266 121 OFFCURVE",
"275 272 CURVE SMOOTH",
"277 300 OFFCURVE",
"263 325 OFFCURVE",
"241 325 CURVE SMOOTH",
"229 325 OFFCURVE",
"214 317 OFFCURVE",
"198 299 CURVE SMOOTH",
"154 250 OFFCURVE",
"115 172 OFFCURVE",
"84 100 CURVE",
"84 154 OFFCURVE",
"96 231 OFFCURVE",
"110 266 CURVE",
"112 276 OFFCURVE",
"73 323 OFFCURVE",
"68 312 CURVE SMOOTH",
"53 285 OFFCURVE",
"33 250 OFFCURVE",
"6 211 CURVE SMOOTH",
"4 208 OFFCURVE",
"7 204 OFFCURVE",
"10 204 CURVE SMOOTH",
"11 204 OFFCURVE",
"12 204 OFFCURVE",
"13 205 CURVE SMOOTH",
"32 229 OFFCURVE",
"37 239 OFFCURVE",
"46 250 CURVE",
"41 223 OFFCURVE",
"24 140 OFFCURVE",
"24 74 CURVE SMOOTH",
"24 39 OFFCURVE",
"29 9 OFFCURVE",
"42 -6 CURVE",
"44 -9 OFFCURVE",
"47 -10 OFFCURVE",
"51 -10 CURVE SMOOTH",
"62 -10 OFFCURVE",
"80 0 OFFCURVE",
"92 4 CURVE",
"90 9 OFFCURVE",
"89 21 OFFCURVE",
"89 35 CURVE SMOOTH",
"89 45 OFFCURVE",
"90 55 OFFCURVE",
"91 63 CURVE SMOOTH",
"102 131 OFFCURVE",
"152 210 OFFCURVE",
"182 251 CURVE SMOOTH",
"194 268 OFFCURVE",
"204 276 OFFCURVE",
"210 276 CURVE SMOOTH",
"219 276 OFFCURVE",
"222 261 OFFCURVE",
"221 233 CURVE",
"209 47 OFFCURVE",
"177 -313 OFFCURVE",
"6 -313 CURVE SMOOTH",
"-3 -313 OFFCURVE",
"-13 -311 OFFCURVE",
"-24 -309 CURVE SMOOTH",
"-78 -297 OFFCURVE",
"-99 -253 OFFCURVE",
"-99 -209 CURVE SMOOTH",
"-99 -157 OFFCURVE",
"-69 -105 OFFCURVE",
"-26 -105 CURVE SMOOTH",
"-22 -105 OFFCURVE",
"-18 -106 OFFCURVE",
"-13 -107 CURVE SMOOTH",
"-4 -109 OFFCURVE",
"1 -107 OFFCURVE",
"1 -103 CURVE SMOOTH",
"1 -99 OFFCURVE",
"-6 -93 OFFCURVE",
"-19 -91 CURVE SMOOTH",
"-85 -83 OFFCURVE",
"-128 -139 OFFCURVE",
"-128 -197 CURVE SMOOTH",
"-128 -245 OFFCURVE",
"-99 -295 OFFCURVE",
"-31 -314 CURVE SMOOTH"
);
}
);
};
layerId = "04B30934-05D4-410C-A3F8-810C0079C645";
paths = (
{
closed = 1;
nodes = (
"254 -322 OFFCURVE",
"266 121 OFFCURVE",
"275 272 CURVE SMOOTH",
"277 300 OFFCURVE",
"263 325 OFFCURVE",
"241 325 CURVE SMOOTH",
"229 325 OFFCURVE",
"214 317 OFFCURVE",
"198 299 CURVE SMOOTH",
"154 250 OFFCURVE",
"115 172 OFFCURVE",
"84 100 CURVE",
"84 154 OFFCURVE",
"96 231 OFFCURVE",
"110 266 CURVE",
"112 276 OFFCURVE",
"73 323 OFFCURVE",
"68 312 CURVE SMOOTH",
"53 285 OFFCURVE",
"33 250 OFFCURVE",
"6 211 CURVE SMOOTH",
"4 208 OFFCURVE",
"7 204 OFFCURVE",
"10 204 CURVE SMOOTH",
"11 204 OFFCURVE",
"12 204 OFFCURVE",
"13 205 CURVE SMOOTH",
"32 229 OFFCURVE",
"37 239 OFFCURVE",
"46 250 CURVE",
"41 223 OFFCURVE",
"24 140 OFFCURVE",
"24 74 CURVE SMOOTH",
"24 39 OFFCURVE",
"29 9 OFFCURVE",
"42 -6 CURVE SMOOTH",
"44 -9 OFFCURVE",
"47 -10 OFFCURVE",
"51 -10 CURVE SMOOTH",
"62 -10 OFFCURVE",
"80 0 OFFCURVE",
"92 4 CURVE",
"90 9 OFFCURVE",
"89 21 OFFCURVE",
"89 35 CURVE SMOOTH",
"89 45 OFFCURVE",
"90 55 OFFCURVE",
"91 63 CURVE SMOOTH",
"102 131 OFFCURVE",
"152 210 OFFCURVE",
"182 251 CURVE SMOOTH",
"194 268 OFFCURVE",
"204 276 OFFCURVE",
"210 276 CURVE SMOOTH",
"219 276 OFFCURVE",
"222 261 OFFCURVE",
"221 233 CURVE SMOOTH",
"209 47 OFFCURVE",
"177 -313 OFFCURVE",
"6 -313 CURVE SMOOTH",
"-3 -313 OFFCURVE",
"-13 -311 OFFCURVE",
"-24 -309 CURVE SMOOTH",
"-78 -297 OFFCURVE",
"-99 -253 OFFCURVE",
"-99 -209 CURVE SMOOTH",
"-99 -157 OFFCURVE",
"-69 -105 OFFCURVE",
"-26 -105 CURVE SMOOTH",
"-22 -105 OFFCURVE",
"-18 -106 OFFCURVE",
"-13 -107 CURVE SMOOTH",
"-4 -109 OFFCURVE",
"1 -107 OFFCURVE",
"1 -103 CURVE SMOOTH",
"1 -99 OFFCURVE",
"-6 -93 OFFCURVE",
"-19 -91 CURVE SMOOTH",
"-85 -83 OFFCURVE",
"-128 -139 OFFCURVE",
"-128 -197 CURVE SMOOTH",
"-128 -245 OFFCURVE",
"-99 -295 OFFCURVE",
"-31 -314 CURVE SMOOTH",
"-11 -320 OFFCURVE",
"8 -322 OFFCURVE",
"26 -322 CURVE SMOOTH"
);
}
);
width = 345;
}
);
unicode = 014B;
}
{
color = 5;
glyphname = Zcaron;
layers = (
{
background = {
paths = (
{
closed = 1;
nodes = (
"150 -28 OFFCURVE",
"189 8 OFFCURVE",
"228 59 CURVE",
"237 56 OFFCURVE",
"247 54 OFFCURVE",
"258 51 CURVE SMOOTH",
"313 35 OFFCURVE",
"455 -14 OFFCURVE",
"553 -14 CURVE SMOOTH",
"568 -14 OFFCURVE",
"582 -12 OFFCURVE",
"594 -10 CURVE SMOOTH",
"756 22 OFFCURVE",
"828 129 OFFCURVE",
"828 224 CURVE SMOOTH",
"828 311 OFFCURVE",
"768 387 OFFCURVE",
"661 387 CURVE SMOOTH",
"550 387 OFFCURVE",
"395 310 OFFCURVE",
"395 204 CURVE SMOOTH",
"395 193 OFFCURVE",
"397 182 OFFCURVE",
"401 170 CURVE SMOOTH",
"410 139 OFFCURVE",
"430 113 OFFCURVE",
"453 98 CURVE SMOOTH",
"489 74 OFFCURVE",
"522 65 OFFCURVE",
"552 65 CURVE SMOOTH",
"616 65 OFFCURVE",
"660 112 OFFCURVE",
"660 164 CURVE SMOOTH",
"660 188 OFFCURVE",
"650 214 OFFCURVE",
"629 235 CURVE SMOOTH",
"614 248 OFFCURVE",
"583 271 OFFCURVE",
"545 271 CURVE SMOOTH",
"524 271 OFFCURVE",
"500 263 OFFCURVE",
"477 243 CURVE",
"467 236 OFFCURVE",
"461 228 OFFCURVE",
"459 220 CURVE",
"454 208 OFFCURVE",
"463 214 OFFCURVE",
"468 222 CURVE",
"481 236 LINE",
"501 250 OFFCURVE",
"519 255 OFFCURVE",
"535 255 CURVE SMOOTH",
"569 255 OFFCURVE",
"593 232 OFFCURVE",
"605 216 CURVE SMOOTH",
"615 202 OFFCURVE",
"619 187 OFFCURVE",
"619 172 CURVE SMOOTH",
"619 127 OFFCURVE",
"579 86 OFFCURVE",
"526 86 CURVE SMOOTH",
"505 86 OFFCURVE",
"483 92 OFFCURVE",
"460 107 CURVE",
"433 128 OFFCURVE",
"410 153 OFFCURVE",
"410 189 CURVE SMOOTH",
"410 275 OFFCURVE",
"531 331 OFFCURVE",
"615 331 CURVE SMOOTH",
"630 331 OFFCURVE",
"643 329 OFFCURVE",
"654 326 CURVE SMOOTH",
"717 306 OFFCURVE",
"751 248 OFFCURVE",
"751 186 CURVE SMOOTH",
"751 103 OFFCURVE",
"689 16 OFFCURVE",
"557 16 CURVE SMOOTH",
"451 16 OFFCURVE",
"311 60 OFFCURVE",
"253 77 CURVE SMOOTH",
"242 80 LINE",
"291 153 OFFCURVE",
"335 246 OFFCURVE",
"375 319 CURVE SMOOTH",
"420 406 OFFCURVE",
"490 535 OFFCURVE",
"548 599 CURVE SMOOTH",
"552 604 LINE",
"586 597 OFFCURVE",
"619 590 OFFCURVE",
"652 590 CURVE SMOOTH",
"674 590 OFFCURVE",
"696 594 OFFCURVE",
"717 602 CURVE SMOOTH",
"750 615 OFFCURVE",
"771 647 OFFCURVE",
"771 675 CURVE SMOOTH",
"771 702 OFFCURVE",
"751 726 OFFCURVE",
"707 726 CURVE SMOOTH",
"647 726 OFFCURVE",
"583 709 OFFCURVE",
"519 642 CURVE",
"438 667 OFFCURVE",
"313 699 OFFCURVE",
"223 699 CURVE SMOOTH",
"205 699 OFFCURVE",
"189 698 OFFCURVE",
"175 695 CURVE",
"131 681 OFFCURVE",
"103 609 OFFCURVE",
"106 553 CURVE SMOOTH",
"106 547 OFFCURVE",
"111 539 OFFCURVE",
"115 539 CURVE SMOOTH",
"116 539 OFFCURVE",
"117 541 OFFCURVE",
"117 545 CURVE SMOOTH",
"117 546 OFFCURVE",
"117 548 OFFCURVE",
"117 550 CURVE SMOOTH",
"114 596 OFFCURVE",
"199 623 OFFCURVE",
"252 626 CURVE SMOOTH",
"270 627 OFFCURVE",
"289 627 OFFCURVE",
"308 627 CURVE SMOOTH",
"371 627 OFFCURVE",
"436 622 OFFCURVE",
"494 614 CURVE",
"418 509 OFFCURVE",
"337 223 OFFCURVE",
"220 86 CURVE",
"164 100 OFFCURVE",
"121 109 OFFCURVE",
"88 109 CURVE SMOOTH",
"64 109 OFFCURVE",
"45 104 OFFCURVE",
"30 94 CURVE SMOOTH",
"25 90 LINE",
"22 89 OFFCURVE",
"21 87 OFFCURVE",
"21 86 CURVE",
"7 72 OFFCURVE",
"1 59 OFFCURVE",
"1 47 CURVE SMOOTH",
"1 4 OFFCURVE",
"70 -28 OFFCURVE",
"109 -28 CURVE SMOOTH"
);
},
{
closed = 1;
nodes = (
"51 10 OFFCURVE",
"30 31 OFFCURVE",
"30 61 CURVE SMOOTH",
"30 67 OFFCURVE",
"31 75 OFFCURVE",
"33 82 CURVE",
"44 91 OFFCURVE",
"58 94 OFFCURVE",
"75 94 CURVE SMOOTH",
"105 94 OFFCURVE",
"146 83 OFFCURVE",
"202 67 CURVE",
"168 32 OFFCURVE",
"130 10 OFFCURVE",
"88 10 CURVE SMOOTH"
);
},
{
closed = 1;
nodes = (
"611 664 OFFCURVE",
"659 693 OFFCURVE",
"710 693 CURVE SMOOTH",
"732 692 OFFCURVE",
"752 679 OFFCURVE",
"752 659 CURVE SMOOTH",
"752 653 OFFCURVE",
"751 646 OFFCURVE",
"746 639 CURVE SMOOTH",
"730 614 OFFCURVE",
"703 606 OFFCURVE",
"673 606 CURVE SMOOTH",
"638 606 OFFCURVE",
"601 616 OFFCURVE",
"572 625 CURVE"
);
},
{
closed = 1;
nodes = (
"516 808 LINE",
"541 837 OFFCURVE",
"582 872 OFFCURVE",
"641 915 CURVE",
"646 925 LINE",
"642 932 LINE",
"629 931 OFFCURVE",
"603 919 OFFCURVE",
"566 896 CURVE SMOOTH",
"532 875 OFFCURVE",
"509 858 OFFCURVE",
"496 845 CURVE",
"429 900 OFFCURVE",
"391 928 OFFCURVE",
"382 928 CURVE SMOOTH",
"377 928 OFFCURVE",
"374 925 OFFCURVE",
"374 919 CURVE SMOOTH",
"374 912 OFFCURVE",
"395 892 OFFCURVE",
"436 858 CURVE SMOOTH",
"477 825 OFFCURVE",
"501 807 OFFCURVE",
"510 805 CURVE"
);
}
);
};
components = (
{
name = Z;
},
{
name = caroncomb;
transform = "{1, 0, 0, 1, 425, 332}";
}
);
layerId = "04B30934-05D4-410C-A3F8-810C0079C645";
width = 889;
}
);
note = Zcaron;
unicode = 017D;
}
{
color = 5;
glyphname = zcaron;
layers = (
{
background = {
paths = (
{
closed = 1;
nodes = (
"180 -18 OFFCURVE",
"196 -10 OFFCURVE",
"203 15 CURVE SMOOTH",
"216 62 OFFCURVE",
"246 131 OFFCURVE",
"281 186 CURVE SMOOTH",
"296 209 OFFCURVE",
"310 228 OFFCURVE",
"326 251 CURVE SMOOTH",
"331 258 OFFCURVE",
"326 262 OFFCURVE",
"319 254 CURVE SMOOTH",
"255 177 OFFCURVE",
"246 159 OFFCURVE",
"216 110 CURVE SMOOTH",
"196 80 OFFCURVE",
"169 71 OFFCURVE",
"142 71 CURVE SMOOTH",
"117 71 OFFCURVE",
"92 79 OFFCURVE",
"76 83 CURVE",
"124 147 OFFCURVE",
"181 230 OFFCURVE",
"210 269 CURVE",
"215 268 OFFCURVE",
"220 267 OFFCURVE",
"224 267 CURVE SMOOTH",
"243 267 OFFCURVE",
"261 277 OFFCURVE",
"281 305 CURVE SMOOTH",
"294 322 OFFCURVE",
"299 334 OFFCURVE",
"299 341 CURVE SMOOTH",
"299 348 OFFCURVE",
"293 351 OFFCURVE",
"286 351 CURVE SMOOTH",
"281 351 OFFCURVE",
"276 349 OFFCURVE",
"272 348 CURVE SMOOTH",
"256 343 OFFCURVE",
"226 314 OFFCURVE",
"224 300 CURVE",
"193 305 OFFCURVE",
"157 359 OFFCURVE",
"122 359 CURVE SMOOTH",
"88 359 OFFCURVE",
"31 248 OFFCURVE",
"16 225 CURVE SMOOTH",
"-2 200 OFFCURVE",
"-4 193 OFFCURVE",
"-1 193 CURVE SMOOTH",
"1 193 OFFCURVE",
"6 197 OFFCURVE",
"8 201 CURVE SMOOTH",
"20 218 OFFCURVE",
"30 231 OFFCURVE",
"43 246 CURVE SMOOTH",
"72 279 OFFCURVE",
"90 286 OFFCURVE",
"112 286 CURVE SMOOTH",
"118 286 OFFCURVE",
"125 286 OFFCURVE",
"132 285 CURVE SMOOTH",
"155 282 OFFCURVE",
"186 277 OFFCURVE",
"201 272 CURVE",
"149 207 OFFCURVE",
"97 133 OFFCURVE",
"61 86 CURVE",
"55 90 OFFCURVE",
"49 92 OFFCURVE",
"44 92 CURVE SMOOTH",
"7 92 OFFCURVE",
"-25 14 OFFCURVE",
"-9 14 CURVE SMOOTH",
"10 14 OFFCURVE",
"28 20 OFFCURVE",
"55 55 CURVE",
"85 59 OFFCURVE",
"126 -18 OFFCURVE",
"165 -18 CURVE SMOOTH"
);
},
{
closed = 1;
nodes = (
"197 441 LINE",
"222 470 OFFCURVE",
"263 505 OFFCURVE",
"322 548 CURVE",
"327 558 LINE",
"323 565 LINE",
"310 564 OFFCURVE",
"284 552 OFFCURVE",
"247 529 CURVE SMOOTH",
"213 508 OFFCURVE",
"190 491 OFFCURVE",
"177 478 CURVE",
"110 533 OFFCURVE",
"72 561 OFFCURVE",
"63 561 CURVE SMOOTH",
"58 561 OFFCURVE",
"55 558 OFFCURVE",
"55 552 CURVE SMOOTH",
"55 545 OFFCURVE",
"76 525 OFFCURVE",
"117 491 CURVE SMOOTH",
"158 458 OFFCURVE",
"182 440 OFFCURVE",
"191 438 CURVE"
);
}
);
};
components = (
{
name = z;
},
{
name = caroncomb;
transform = "{1, 0, 0, 1, 126, -22}";
}
);
layerId = "04B30934-05D4-410C-A3F8-810C0079C645";
width = 281;
}
);
note = zcaron;
unicode = 017E;
}
{
color = 9;
glyphname = cedi;
layers = (
{
background = {
components = (
{
name = slash;
transform = "{0.54243, 0.09565, -0.17982, 1.01977, 73, -54}";
}
);
paths = (
{
closed = 1;
nodes = (
"200 -33 OFFCURVE",
"311 10 OFFCURVE",
"368 145 CURVE SMOOTH",
"384 182 OFFCURVE",
"371 189 OFFCURVE",
"355 159 CURVE SMOOTH",
"290 38 OFFCURVE",
"181 -7 OFFCURVE",
"150 -7 CURVE SMOOTH",
"116 -7 OFFCURVE",
"105 90 OFFCURVE",
"105 157 CURVE SMOOTH",
"105 295 OFFCURVE",
"122 477 OFFCURVE",
"201 477 CURVE SMOOTH",
"253 477 OFFCURVE",
"269 379 OFFCURVE",
"269 336 CURVE SMOOTH",
"269 303 OFFCURVE",
"306 327 OFFCURVE",
"306 375 CURVE SMOOTH",
"306 433 OFFCURVE",
"271 503 OFFCURVE",
"183 503 CURVE SMOOTH",
"147 503 OFFCURVE",
"116 486 OFFCURVE",
"99 462 CURVE SMOOTH",
"70 423 OFFCURVE",
"42 296 OFFCURVE",
"42 181 CURVE SMOOTH",
"42 63 OFFCURVE",
"71 -43 OFFCURVE",
"157 -35 CURVE SMOOTH"
);
}
);
};
layerId = "04B30934-05D4-410C-A3F8-810C0079C645";
paths = (
{
closed = 1;
nodes = (
"290 27 OFFCURVE",
"358 89 OFFCURVE",
"374 147 CURVE SMOOTH",
"376 152 OFFCURVE",
"377 159 OFFCURVE",
"377 165 CURVE SMOOTH",
"377 173 OFFCURVE",
"375 180 OFFCURVE",
"373 180 CURVE SMOOTH",
"371 180 OFFCURVE",
"369 177 OFFCURVE",
"366 168 CURVE SMOOTH",
"362 156 OFFCURVE",
"347 127 OFFCURVE",
"339 116 CURVE SMOOTH",
"301 68 OFFCURVE",
"257 47 OFFCURVE",
"218 47 CURVE SMOOTH",
"155 47 OFFCURVE",
"97 75 OFFCURVE",
"97 217 CURVE SMOOTH",
"97 303 OFFCURVE",
"159 456 OFFCURVE",
"267 456 CURVE SMOOTH",
"297 456 OFFCURVE",
"311 430 OFFCURVE",
"311 404 CURVE SMOOTH",
"311 371 OFFCURVE",
"285 351 OFFCURVE",
"259 351 CURVE SMOOTH",
"241 351 OFFCURVE",
"230 344 OFFCURVE",
"237 340 CURVE",
"242 336 OFFCURVE",
"249 335 OFFCURVE",
"257 335 CURVE SMOOTH",
"298 335 OFFCURVE",
"347 366 OFFCURVE",
"347 409 CURVE SMOOTH",
"347 464 OFFCURVE",
"297 478 OFFCURVE",
"253 478 CURVE SMOOTH",
"120 478 OFFCURVE",
"39 347 OFFCURVE",
"39 194 CURVE",
"44 87 OFFCURVE",
"125 27 OFFCURVE",
"208 27 CURVE SMOOTH"
);
},
{
closed = 1;
nodes = (
"170 -101 OFFCURVE",
"167 -90 CURVE SMOOTH",
"161 -64 OFFCURVE",
"181 104 OFFCURVE",
"211 243 CURVE SMOOTH",
"244 393 OFFCURVE",
"271 503 OFFCURVE",
"293 574 CURVE SMOOTH",
"293 575 OFFCURVE",
"294 576 OFFCURVE",
"294 577 CURVE SMOOTH",
"293 582 OFFCURVE",
"290 586 OFFCURVE",
"285 589 CURVE SMOOTH",
"280 592 OFFCURVE",
"276 593 OFFCURVE",
"272 592 CURVE SMOOTH",
"267 592 LINE",
"252 576 OFFCURVE",
"227 474 OFFCURVE",
"192 276 CURVE SMOOTH",
"157 78 OFFCURVE",
"144 -44 OFFCURVE",
"152 -90 CURVE SMOOTH",
"155 -108 OFFCURVE"
);
}
);
width = 337;
}
);
unicode = 20B5;
}
{
color = 9;
glyphname = colonsign;
layers = (
{
layerId = "04B30934-05D4-410C-A3F8-810C0079C645";
paths = (
{
closed = 1;
nodes = (
"290 27 OFFCURVE",
"358 89 OFFCURVE",
"374 147 CURVE SMOOTH",
"376 152 OFFCURVE",
"377 159 OFFCURVE",
"377 165 CURVE SMOOTH",
"377 173 OFFCURVE",
"375 180 OFFCURVE",
"373 180 CURVE SMOOTH",
"371 180 OFFCURVE",
"369 177 OFFCURVE",
"366 168 CURVE SMOOTH",
"362 156 OFFCURVE",
"347 127 OFFCURVE",
"339 116 CURVE SMOOTH",
"301 68 OFFCURVE",
"257 47 OFFCURVE",
"218 47 CURVE SMOOTH",
"155 47 OFFCURVE",
"97 75 OFFCURVE",
"97 217 CURVE SMOOTH",
"97 303 OFFCURVE",
"159 456 OFFCURVE",
"267 456 CURVE SMOOTH",
"297 456 OFFCURVE",
"311 430 OFFCURVE",
"311 404 CURVE SMOOTH",
"311 371 OFFCURVE",
"285 351 OFFCURVE",
"259 351 CURVE SMOOTH",
"241 351 OFFCURVE",
"230 344 OFFCURVE",
"237 340 CURVE",
"242 336 OFFCURVE",
"249 335 OFFCURVE",
"257 335 CURVE SMOOTH",
"298 335 OFFCURVE",
"347 366 OFFCURVE",
"347 409 CURVE SMOOTH",
"347 464 OFFCURVE",
"297 478 OFFCURVE",
"253 478 CURVE SMOOTH",
"120 478 OFFCURVE",
"39 347 OFFCURVE",
"39 194 CURVE",
"44 87 OFFCURVE",
"125 27 OFFCURVE",
"208 27 CURVE SMOOTH"
);
},
{
closed = 1;
nodes = (
"141 -101 OFFCURVE",
"138 -90 CURVE SMOOTH",
"132 -64 OFFCURVE",
"152 104 OFFCURVE",
"182 243 CURVE SMOOTH",
"215 393 OFFCURVE",
"242 503 OFFCURVE",
"264 574 CURVE SMOOTH",
"264 575 OFFCURVE",
"265 576 OFFCURVE",
"265 577 CURVE SMOOTH",
"264 582 OFFCURVE",
"261 586 OFFCURVE",
"256 589 CURVE SMOOTH",
"251 592 OFFCURVE",
"247 592 OFFCURVE",
"243 592 CURVE SMOOTH",
"238 592 LINE",
"223 576 OFFCURVE",
"198 474 OFFCURVE",
"163 276 CURVE SMOOTH",
"128 78 OFFCURVE",
"115 -44 OFFCURVE",
"123 -90 CURVE SMOOTH",
"126 -108 OFFCURVE"
);
},
{
closed = 1;
nodes = (
"217 -101 OFFCURVE",
"214 -90 CURVE SMOOTH",
"208 -64 OFFCURVE",
"228 104 OFFCURVE",
"258 243 CURVE SMOOTH",
"291 393 OFFCURVE",
"318 503 OFFCURVE",
"340 574 CURVE SMOOTH",
"340 575 OFFCURVE",
"341 576 OFFCURVE",
"341 577 CURVE SMOOTH",
"340 582 OFFCURVE",
"337 586 OFFCURVE",
"332 589 CURVE SMOOTH",
"327 592 OFFCURVE",
"323 593 OFFCURVE",
"319 592 CURVE SMOOTH",
"314 592 LINE",
"299 576 OFFCURVE",
"274 474 OFFCURVE",
"239 276 CURVE SMOOTH",
"204 78 OFFCURVE",
"191 -44 OFFCURVE",
"199 -90 CURVE SMOOTH",
"202 -108 OFFCURVE"
);
}
);
width = 337;
}
);
unicode = 20A1;
}
{
color = 9;
glyphname = guarani;
layers = (
{
layerId = "04B30934-05D4-410C-A3F8-810C0079C645";
paths = (
{
closed = 1;
nodes = (
"290 27 OFFCURVE",
"358 89 OFFCURVE",
"374 147 CURVE SMOOTH",
"376 152 OFFCURVE",
"377 159 OFFCURVE",
"377 165 CURVE SMOOTH",
"377 173 OFFCURVE",
"375 180 OFFCURVE",
"373 180 CURVE SMOOTH",
"371 180 OFFCURVE",
"369 177 OFFCURVE",
"366 168 CURVE SMOOTH",
"362 156 OFFCURVE",
"347 127 OFFCURVE",
"339 116 CURVE SMOOTH",
"301 68 OFFCURVE",
"257 47 OFFCURVE",
"218 47 CURVE SMOOTH",
"155 47 OFFCURVE",
"97 75 OFFCURVE",
"97 217 CURVE SMOOTH",
"97 303 OFFCURVE",
"159 456 OFFCURVE",
"267 456 CURVE SMOOTH",
"297 456 OFFCURVE",
"327 429 OFFCURVE",
"327 403 CURVE SMOOTH",
"327 370 OFFCURVE",
"300 350 OFFCURVE",
"273 350 CURVE SMOOTH",
"257 350 OFFCURVE",
"258 334 OFFCURVE",
"271 334 CURVE SMOOTH",
"314 334 OFFCURVE",
"365 365 OFFCURVE",
"365 408 CURVE SMOOTH",
"360 463 OFFCURVE",
"297 478 OFFCURVE",
"253 478 CURVE SMOOTH",
"120 478 OFFCURVE",
"39 347 OFFCURVE",
"39 194 CURVE",
"44 87 OFFCURVE",
"125 27 OFFCURVE",
"208 27 CURVE SMOOTH"
);
},
{
closed = 1;
nodes = (
"177 -101 OFFCURVE",
"174 -90 CURVE SMOOTH",
"168 -64 OFFCURVE",
"188 104 OFFCURVE",
"218 243 CURVE SMOOTH",
"251 393 OFFCURVE",
"278 503 OFFCURVE",
"300 574 CURVE SMOOTH",
"300 575 OFFCURVE",
"301 576 OFFCURVE",
"301 577 CURVE SMOOTH",
"300 582 OFFCURVE",
"297 586 OFFCURVE",
"292 589 CURVE SMOOTH",
"287 592 OFFCURVE",
"283 592 OFFCURVE",
"279 592 CURVE SMOOTH",
"274 592 LINE",
"259 576 OFFCURVE",
"234 474 OFFCURVE",
"199 276 CURVE SMOOTH",
"164 78 OFFCURVE",
"151 -44 OFFCURVE",
"159 -90 CURVE SMOOTH",
"162 -108 OFFCURVE"
);
},
{
closed = 1;
nodes = (
"373 52 OFFCURVE",
"376 68 OFFCURVE",
"380 84 CURVE SMOOTH",
"387 112 OFFCURVE",
"404 196 OFFCURVE",
"414 218 CURVE",
"395 214 OFFCURVE",
"327 213 OFFCURVE",
"263 211 CURVE SMOOTH",
"225 211 OFFCURVE",
"207 210 OFFCURVE",
"192 210 CURVE",
"192 185 LINE",
"235 186 LINE SMOOTH",
"287 187 OFFCURVE",
"346 187 OFFCURVE",
"361 188 CURVE",
"371 176 OFFCURVE",
"357 101 OFFCURVE",
"352 79 CURVE SMOOTH",
"350 67 OFFCURVE",
"347 54 OFFCURVE",
"345 40 CURVE",
"343 20 OFFCURVE",
"361 16 OFFCURVE",
"369 35 CURVE"
);
}
);
width = 414;
}
);
unicode = 20B2;
}
